<?xml version="1.0" encoding="UTF-8"?>
<svg id="Calque_1" data-name="Calque 1" xmlns="http://www.w3.org/2000/svg" viewBox="0 0 400 400">
  <defs>
    <style>
      .cls-1 {
        fill: none;
        stroke: #5e5e5e;
        stroke-miterlimit: 10;
        stroke-width: 2px;
      }
    </style>
  </defs>
  <path class="cls-1" d="m135.77,167.41c-.06-1.39-.32-6.56-.14-13.58.45-17.23,1.38-41.71,15.49-60.47,2.01-2.67,1.47-1.51,7.41-8.64,3.42-4.11,10.49-12.77,18.52-24.07,22.48-31.64,19.17-37.1,27.77-40.12,13.02-4.56,24.14,6.71,35.8-1.23,4.81-3.28,3.92-5.88,8.64-8.64,10.18-5.95,29.75-2.91,36.41,9.87,7.85,15.08-8.08,32.54-10.49,35.18-7.07,7.75-10.8,6.24-20.98,14.19-11.84,9.25-27.93,27.79-23.45,39.5,3.72,9.73,18.17,5.68,28.39,16.66,10.27,11.04,7.83,28.2,4.32,50.61-5.96,38.05-15.61,37.84-33.94,94.43-5.83,17.98-8.59,29.55-18.52,33.33-13.08,4.98-24.19-9.07-40.12-3.09-12.61,4.74-17.63,18.04-18.52,20.37-5,13.22-2.49,30.17,3.7,32.09,3.65,1.13,6.11-3.73,21.6-14.19,12.15-8.21,15.61-8.58,17.28-8.64,8.46-.3,17.84,5.67,20.98,13.58,5.41,13.61-8.87,29.88-18.52,37.03-16.52,12.25-42.65,14.93-58.01,3.09-5.67-4.37-13.55-13.55-14.19-61.72-.87-65.27,12.8-107.54,10.56-155.53Z"/>
  <path class="cls-1" d="m135.69,163.3c47.69-50.14,95.38-100.29,143.07-150.43"/>
  <path class="cls-1" d="m132.04,230.19c5.82,3.23,15.52,5.66,19.77,3.05,7.64-4.69,10.73-15.84,12.58-32.2,1.86-16.39,16.35-16.48,21.5-25,2.62-4.34-1.22-5.9-1.65-21.81-.3-11.22.74-13.21,1.65-14.4,4.93-6.48,19.03-6.71,27.16-.82,10.74,7.78-3.94,27.15,4.53,38.68,4.22,5.74,19.87,13.3,43.65,9.67"/>
  <path class="cls-1" d="m126.53,281.26c3.14-2.24,13.51-9.18,20.68-11.4,22.88-7.1,35.95,6.1,45.67-1.23,10.6-8-.34-27.18,13.58-46.49,7.77-10.78,12.26-12.21,13.58-12.34,7.15-.74,21.74,7.13,23.25,23.59"/>
  <path class="cls-1" d="m208.61,219.28c1.71-10.29,7.08-31.55,8.79-41.83"/>
  <path class="cls-1" d="m160.9,81.63c-3.89-20.02-6.47-39.09-6.17-48.65.09-2.84.26-5.87,2.26-8.64,8.28-11.43,37.95-2.14,42.48-.72"/>
</svg>