<?xml version="1.0" encoding="UTF-8"?>
<svg id="Calque_1" data-name="Calque 1" xmlns="http://www.w3.org/2000/svg" viewBox="0 0 400 400">
  <defs>
    <style>
      .cls-1 {
        fill: none;
        stroke: #5e5e5e;
        stroke-miterlimit: 10;
        stroke-width: 2px;
      }
    </style>
  </defs>
  <path class="cls-1" d="m190,80.28h0c-7.09,11.48-7.53,24.91-1.15,32.74,11.2,13.74,39.57,5.5,44.81-6.32,3.2-7.24-3.31-13.44,1.15-21.83,3.57-6.72,12.42-11.5,17.23-9.19,6.87,3.3,5.11,20.83,2.3,31.02-1.14,4.12-8.32,30.17-26.43,34.47-9.29,2.2-22.66-2.17-49.4-10.91-3.93-1.28-8.65-2.9-12.06-.57-5.69,3.89-6.11,17.67-.57,26.43,10.43,16.5,35.21,4.35,47.68,20.11,12.39,15.65.74,43.78-2.3,51.13-.39.95-7.67,18.27-12.64,17.23-5.26-1.1.13-21.14-11.49-36.19-6.19-8.02-18.67-16.49-27.57-13.79-28.07,8.52-28.03,130.16,1.15,139.6,4.54,1.47,9.26.05,13.21-1.15,14.54-4.39,23.85-17.22,33.89-37.34,22.11-44.27,21.34-70.85,37.91-75.26,8.47-2.25,15.33,2.91,20.68-2.3,5.33-5.19,5.53-17.13,0-23.55-7-8.14-19.78-3.45-22.98-9.77-3.07-6.05,5.69-16.18,8.04-18.96,15.81-18.69,44.05-62.06,39.06-87.89-4.89-25.33-44.96-50.58-71.81-37.91-17.37,8.19-26.38,36.48-28.72,40.21"/>
</svg>