<?xml version="1.0" encoding="UTF-8"?>
<svg id="Calque_1" data-name="Calque 1" xmlns="http://www.w3.org/2000/svg" viewBox="0 0 400 400">
  <defs>
    <style>
      .cls-1 {
        fill: none;
        stroke: #5e5e5e;
        stroke-miterlimit: 10;
        stroke-width: 3px;
      }
    </style>
  </defs>
  <path class="cls-1" d="m70.49,115.53c50.52-6.14,88.21-8.21,97.81-5.71,2.21.58,7.51,1.96,10.6,6.52,2.52,3.73,1.66,6.77,2.45,8.97,4.65,12.93,65.59-6.69,76.62,9.78,5,7.48.7,23.85-8.97,29.34-20.16,11.46-47.81-33.42-92.92-27.71-12.05,1.52-28.3,7.03-30.16,16.3-1.19,5.94,4.31,9.56,6.52,20.38,2.27,11.09-.91,20.02-2.45,25.27-5.73,19.53-20.72,97.08,4.08,114.11,11.71,8.04,31.09,1.74,41.57-4.89,22.11-13.98,12.07-29.18,33.6-46.64,16.01-12.99,43.76-24.59,63.39-17.75,17.44,6.08,19.43,17.93,39.12,22.01,4.66.97,23.16,4.8,35.05-5.71,16.91-14.93,11.76-51.18-1.63-57.05-8.76-3.84-17.07,13.84-30.97,13.86-99.53.09-129.78,25.09-154.05,13.86-11.43-5.29-1.67-29.09,8.15-36.68,12.13-9.38,26.77,1.53,74.17,3.26,25.39.93,35.97-1.66,41.57-8.97,4.82-6.28,1.92-10.79,8.15-22.01,6.47-11.65,12.49-11.99,18.75-22.01,6.03-9.66,9.41-23.72,6.52-30.97-6.45-16.16-51.55-17.33-110.85-4.08"/>
  <path class="cls-1" d="m71.41,115.41c-8.67.79-11.59,1.67-3.64,45.66,2.33,12.89,11.84,18.81,16.48,24.09,29.74,33.83,30.56,102.78,8.15,115.74-8.14,4.7-19.68,2.23-26.99-2.9-18.82-13.2-20.93-51.93-.54-96.18"/>
</svg>