<?xml version="1.0" encoding="UTF-8"?>
<svg id="Calque_1" data-name="Calque 1" xmlns="http://www.w3.org/2000/svg" viewBox="0 0 400 400">
  <defs>
    <style>
      .cls-1 {
        fill: none;
        stroke: #5e5e5e;
        stroke-miterlimit: 10;
        stroke-width: 2px;
      }
    </style>
  </defs>
  <path class="cls-1" d="m71.63,193.16c-15.93-33.73,1.29-74.27,23.16-125.75,3.47-8.16,3.65-11.08,5.52-11.03,36.52.98,67.16-3.19,132.37,1.1.64.04,2.72-.14,3.68,1.1,2.64,3.43-7.8,11.25-8.58,20.84-.58,7.09,4.49,10.85,21.08,29.17,21.71,23.98,23.34,28.93,23.29,33.58-.11,9.99-7.83,10.87-9.56,24.02-.33,2.48-.93,9.16,6.37,28.92,9.13,24.7,14.78,26.98,12.75,31.87-5.92,14.24-53.55-5.91-75.5,17.16-9.53,10.01-3.39,16.79-16.18,33.34-3.68,4.76-17.76,22.98-40.69,25.49-13.87,1.52-33.53-2.44-36.28-12.26-3.06-10.9,15.42-26.64,28.43-33.83,11.44-6.32,16.18-4.65,24.51-12.26,10.28-9.39,7.97-16.41,16.67-21.08,8.93-4.8,13.75,1.31,28.92-2.45,6.16-1.53,17.1-4.24,20.1-12.26,2.93-7.84-2.24-19.32-10.3-24.02-17.97-10.48-49.77,13.13-59.81,20.59-22.31,16.57-20.77,24.9-38.73,33.34-21.92,10.31-30.85,1.02-44.61,10.79-19.33,13.72-27.79,50.57-12.26,73.05,12.61,18.25,36.59,20.59,46.57,21.57,20.45,2,24.9-4.81,84.81-17.16,11.34-2.34,8.09-.74,42.16-.49,11.72.08,14.01,6.84,22.55,10.3,29.5,11.94,74.26-1.64,79.42-22.55,2.78-11.25-5.5-26.34-15.2-28.43-12.42-2.68-18.64,17.79-37.75,20.59-21.19,3.11-44.48-17.53-42.16-25.98,2.34-8.53,29.83-1.27,62.26-21.08,6.85-4.18,10.32-6.36,12.75-10.3,13.59-22.06-9.59-75.57-45.1-87.75-8.83-3.03-13.18-1.71-100.5,7.84-9.35,1.02-23.86,2.44-29.42-5.39-6.65-9.38,5.79-23.26-2.45-38.24-2.96-5.39-8.98-11.6-14.71-10.79-5.59.79-8.76,7.95-9.81,10.3-9.39,21.16,10.02,36.32,4.9,61.28-3.08,15.03-14.53,31.08-26.47,31.38-14.19.36-24.88-21.65-26.23-24.51Z"/>
  <path class="cls-1" d="m116.98,87.26c12.68-.7,31.09-1.38,53.44-.98,34.95.62,42.6,3.21,47.06,9.31,7.15,9.79,5.15,27.29-4.9,36.77-15.58,14.69-47.81,5.11-50.01-9.31-2.57-16.91.25-18.02.98-29.91.82-13.27-3.43-27.33-29.17-24.64-12.17,1.27-30.58,29.42-17.34,63.79"/>
</svg>