<?xml version="1.0" encoding="UTF-8"?>
<svg id="Calque_1" data-name="Calque 1" xmlns="http://www.w3.org/2000/svg" viewBox="0 0 400 400">
  <defs>
    <style>
      .cls-1 {
        fill: none;
        stroke: #5e5e5e;
        stroke-miterlimit: 10;
        stroke-width: 2px;
      }
    </style>
  </defs>
  <path class="cls-1" d="m36.36,284.56l96-96.26s6.8-25.75,2.15-37.26c-.21-.51-.44-1-.69-1.45-.42-.74-.9-1.4-1.45-1.95-8.49-8.49,6-14.17,6-14.17l123.45-32.74s22.42-1.05,26.25,2.78c1.53,1.53,3.24,2.75,4.73,3.66,1.08.66,2.26,1.09,3.48,1.29,1.34.22,2.73.17,4.08-.18l15.71-4.05c1.64-.42,2.93-1.69,3.39-3.31,1.76-6.16,5.38-16.34,13.85-21.12,7.78-4.39,35.1,3.02,25.34,24.13-7.08,15.32-9.57,17.04-9.57,17.04l-84.58,101.56c-.42.51-.88.98-1.37,1.42l-3.68,3.28c-1.73,1.54-4.15,2.02-6.33,1.24-6.14-2.19-18.75-7.36-26.53-15.14-6.22-6.22-10.03-10.69-12.1-13.31-1.39-1.76-1.95-4.03-1.53-6.23,1.4-7.41,6.02-24.26,19.25-25.65,24.95-2.62,37.55-4.57,43.77-5.77,4.02-.77,7.61-2.23,8.95-6.1,1.65-4.78,3.36-8.39-2.04-13.79-9.45-9.45-44.04,2.17-44.04,2.17l-32.73,9.29c-6.78,1.92-15.96,4.65-19.49,10.75-4.52,7.82-13.4,23.63-6,38.43,3.7,7.4,9.57,13.79,9.57,13.79l21.83,22.47s17.85,30.49-10.95,52.56c-10.12,7.76-15.03,8.23-17.81,9.38-1.51.63-41.23,14.21-57.41,19.74-4.48,1.53-9.18,2.31-13.92,2.31h0s-11.68-3.86,2.81-18.64c16.88-17.21,55.21-34.53,63.86-38.31,1.44-.63,2.45-1.95,2.67-3.5.35-2.41.08-6.5-2.96-12.57-5.86-11.72-12.82-17.29-16.6-23.84-2-3.46-5.89-5.4-9.86-4.98-5.89.63-9.08,4.35-13.62,11.2-1.84,2.77-2.86,4.56-3.42,5.66-.74,1.44-1.52,2.85-2.38,4.22l-13.9,23.41c-2.26,3.8-7.42,8.36-11.47,10.13-6.61,2.88-13.19,5.59-18.56,14.99-1.79,3.13-3.32,5.87-3.32,5.87l-8.29,13.61c-2.82,4.64-7.11,7.49-11.88,10.07-8.47,4.58-32.81,4.29-33.26-25.91-.06-4.09,4.6-10.21,4.6-10.21Z"/>
  <path class="cls-1" d="m295.86,108.39c-.19,0-162.05,41.21-162.05,41.21"/>
</svg>