<?xml version="1.0" encoding="UTF-8"?>
<svg id="Calque_1" data-name="Calque 1" xmlns="http://www.w3.org/2000/svg" viewBox="0 0 400 400">
  <defs>
    <style>
      .cls-1 {
        fill: none;
        stroke: #5e5e5e;
        stroke-miterlimit: 10;
        stroke-width: 3px;
      }
    </style>
  </defs>
  <path class="cls-1" d="m73.36,162.88c-13.13-3.9-31.03,1.1-34.23,11.09-.95,2.96-1.41,8.9,8.68,21.21,24.04,29.34,58.33,36.64,58.33,36.64,82.73,17.6,179.68-74.28,211.63-76.65,1.64-.12,8.09-.38,11.57-4.82,4.57-5.83,2.26-16.62-.96-21.69-8.28-13.04-54.96-3.57-147.99,15.91-30.11,6.3-51.16,10.83-51.1,16.87.05,4.82,13.55,9.83,25.55,11.09,37.17,3.9,56.58-14.19,104.85-33.5,6.03-2.41,19.91-10.55,31.58-.72,16.59,13.98-61.99,35.06-95.93,45.31-46.65,14.09-62.36,14.33-73.76,8.2-25.29-13.61-34.71-20.73-34.71-20.73-5.32-4.02-8.09-6.59-13.5-8.2Z"/>
</svg>