<svg width="1440" height="1175" viewBox="0 0 1440 1175" fill="none" xmlns="http://www.w3.org/2000/svg">
<path opacity="0.1" d="M-30 45.9998C62 116.5 67.5 -17.5001 193 4.49991C379.334 37.1641 794.5 -45.0001 882 45.9999C969.5 137 1017.5 279 1042 390.5C1066.5 502 1102 694 1209.5 767.5C1317 841 1394 745.5 1503 830C1612 914.5 1677.5 1004.5 1649.5 1039.5C1621.5 1074.5 1586.5 1183 1450.5 1172.5C1314.5 1162 1032 1058.5 991 912C950 765.5 308.5 1005 239 991C169.5 977 148.5 951.109 106.5 900C64.5 848.89 60.5 789.5 89 746.5C117.5 703.5 260 631.5 208 620.5C156 609.5 115.5 620.5 43.5 589.5C-28.5 558.5 16 432 16 432C16 432 126.5 256.5 43.5 174C-39.5 91.4997 -74 87.9997 -124 82.9997" stroke="black" stroke-opacity="0.5" stroke-width="2"/>
</svg>
