<?xml version="1.0" encoding="utf-8"?>
<!-- Generator: Adobe Illustrator 28.0.0, SVG Export Plug-In . SVG Version: 6.00 Build 0)  -->
<svg version="1.1" id="Calque_1" xmlns="http://www.w3.org/2000/svg" xmlns:xlink="http://www.w3.org/1999/xlink" x="0px" y="0px"
	 viewBox="0 0 431 436" style="enable-background:new 0 0 431 436;width:73vw;max-width:400px" xml:space="preserve">
<style type="text/css">
	.st0{clip-path:url(#SVGID_00000178908578237336564380000012818185346204425908_);}
	.st1{fill:#FFFFFF;}
	.st2{fill:none;stroke:#FFFFFF;stroke-width:0.25;stroke-miterlimit:10;}
	.st3{fill:none;stroke:#FFFFFF;stroke-width:0.5;stroke-miterlimit:10;}
	.st4{fill:#0D1D6C;cursor:pointer}
</style>
<g>
	<defs>
		<rect id="SVGID_1_" y="0" width="431" height="436"/>
	</defs>
	<clipPath id="SVGID_00000029738767364427339080000011766018312186179736_">
		<use xlink:href="#SVGID_1_"  style="overflow:visible;"/>
	</clipPath>
	<g style="clip-path:url(#SVGID_00000029738767364427339080000011766018312186179736_);">
		<path class="st1" d="M370.8,85.5c0.5,0.8,1.2,1.5,1.6,2.4c1.6,3.8,4.4,5.8,8.3,6.3c1.2,3.1,3.8,4.3,6.9,4.4
			c4.5,0.2,9,0.4,13.5,0.2c7-0.4,13.3,2.1,19.6,4.3c-2,5.5-4.6,10.6-7,15.9c-1.8,0.2-1.2,1.5-1.1,2.5v0.2c-1.7,0.3-1.1,1.5-1.1,2.5
			l0,0.2c-1.8,0.3-1,1.7-1.1,2.7l0,0c-0.3,0.1-0.7,0.1-0.7,0.2c-1.6,5.1-4.6,9.9-4,15.6c0,0.2,0,0.5,0,0.7c-2,0.4-1.2,2-1.1,3
			c0.3,3.3-0.2,6.2-3.2,8.2c-0.9,0.5-1.6,1.2-2.1,2.1c-0.5,0.7-1.1,1.4-1.6,2.1c-0.8,0-1.3,0.4-1.6,1.1c-0.7,0.8-1.5,1.5-1.6,2.7
			c-0.9,0-1.7,0.1-2.1,1.1c-2.4,1.5-3.6,4.1-5.8,5.8c-0.9,0.7-2,2,0.1,3c0.5,0.2,0.4,1.1,0.2,1.7c-0.8,3-0.3,6.1-0.3,9.2h0
			c-1.2-0.1-1.2,0.7-1.1,1.6c-2.1,0.4-2.3,2.1-2.7,3.7l0,0c-1.2,0-1.2,0.8-1,1.7l0,0c-1.3-0.1-1.2,0.8-1.1,1.7
			c-0.1,0.1-0.2,0.3-0.3,0.4c-1.2-0.1-1.4,0.6-1.3,1.6l0,0c-0.5,0.2-0.6,0.6-0.5,1.1c-1.6,0-1.8,0.9-1.5,2.2h0c-1.6,0.3-2.5,1-2,2.8
			c0-0.1-0.1-0.1-0.1-0.2c0,0.1,0.1,0.1,0.1,0.2c-2,0.4-2.5,1.8-2.4,3.6c-0.2,0.2-0.3,0.3-0.5,0.5c-1.2,0.1-1.2,0.8-1,1.7l0,0
			c-1.2-0.1-1.2,0.7-1.2,1.5l0,0c-1.1,0-1.1,0.8-1.1,1.6l0,0c-1.2,0.1-1.1,0.8-1,1.7l0,0c-1.3-0.1-1.2,0.7-1.1,1.6c0,0,0,0,0,0
			c-1.3-0.1-1.2,0.8-1.1,1.6l0,0c-0.4,0.1-0.5,0.3-0.4,0.7v0.1c-1.2,0-0.8,0.8-0.7,1.4l0,0c-0.6,0.1-0.7,0.6-0.6,1.1l0-0.1
			c-2,2.3-2.9,4.9-2.8,8c0,0.4,0,0.7-0.1,1c-0.1,0.3-0.4,0.6-0.4,0.9c0.1,0.9,0.8,1.7,1.5,1.6c2.1-0.3,4.6,1.6,6.4-1.1
			c0.5-0.1,1-0.1,1.6-0.2c0.2,0.7,0.2,1.3-0.1,1.9c-0.1,0.2-0.2,0.4-0.3,0.7c-0.6,1.7,0.3,1.8,1.7,1.9c3.8,0.3,7.4-1,11.2-1.3
			c0.8,0.5,0.7,1.3,0.9,2.1c0.4,1.5,0.4,3.3,2.1,4.1l0,0c0,0.5,0.1,1,0.7,1l-0.1,0.1l0-0.1c-0.1,0.6-0.2,1,0.6,0.9l0,0.1
			c-0.6,1.3,0.2,1.7,1.3,1.8c0.1,0.8-0.5,2.2,1.3,2l0,0.1c0,0,0-0.1,0-0.1c-0.2,1.1-0.2,2-1.8,2.5c-2.4,0.7-3.8,3.5-3.6,6
			c-1.1-0.1-2.5-0.8-2.8,1.2c-0.3,1.5,1.4,2.2,1.4,3.5c-1.3,0.2-1.6-0.9-2.2-1.3c-0.5-0.4-0.9-1.2-1.8-0.7c-0.7,0.4-1.3,1.1-1,2
			c0.5,1.5-0.4,1.4-1.4,1.4c-1,0-1.7,0.5-2.3,1.1c-1.3,1.3-2.6,2.6-3.9,4c-2.4,2.5-2.5,2.5,0.1,4.8c0.5,0.5,0.9,1.5,1.9,1
			c0.9-0.5,0.3-1.2,0.2-1.9c-0.2-1.5,0-2.7,1.9-1.4c1.1,0.7,1.7,0.4,1.7-0.9c0-0.9,0-1.8,1.3-1.9c2.4,0,2.2-1.1,1.2-2.7
			c-0.3-0.4-0.4-0.8-0.1-1.2c0.3-0.3,0.7-0.2,1,0c1.9,1.2,3.3,0.7,4.3-1.2c0.3-0.6,0.9-1,1.5-0.8c0.6,0.2,0.2,0.9,0.4,1.4
			c0.3,1.4,0.3,3.1,2.3,3.4c0.1,0.1,0.3,0.3,0.4,0.4c0.3,2,1.2,3.4,3.3,3.8l0,0c0,0.9-0.3,1.9,1.2,1.3l0.1,0.1
			c-0.7,1.4-0.1,1.9,1.3,1.8l0,0c-0.1,0.9-0.1,1.7,1.1,1.6l0,0c-0.1,0.9-0.2,1.7,1,1.7l0,0c0.1,0.9-0.5,2.2,1.2,2.1h0
			c-0.2,2.4-0.3,4.8,0.1,7.3l0,0c-1.7,0.2-3.1,0.9-3.8,2.6l0,0c-3.1-0.4-5.5,1.1-7.9,2.6c-0.8,0.5-2.4,0.5-2.1,2.2l-0.2,0l0.2,0
			c-1.4-0.4-1.3,0.8-1.5,1.5c-0.3,1,0.1,1.8,1.3,2.1l0,0c0,3.2,1.9,5.2,4.4,6.8c0.1,0.1,0.3,0.3,0.4,0.4c0.3,2.2,3.3,3.9,5.8,3.4
			c1.3,1.2,1.1,2.7,1.1,4.2l0,0.1c-1.9,1-0.7,2.7-0.9,4c-0.2,3-0.7,5.9-0.8,8.9c-0.3,4.8,1.7,7.9,6.1,9.5c0.7,0.3,1.4,0.7,2.1,1
			c0.8,1.5,2.2,2.2,3.6,2.9c4.8,2.5,10.1,3.3,15.2,4.7c-2,8.1-6.7,14.6-13,19.8c-5.3,4.4-10.3,9.2-16.1,13c-2.4,1.6-4.2,3.5-3.2,6.8
			c0.4,1.4-0.5,2.3-2,2.6c-5.7,0.9-11.1,3-16.3,5.5c-4.5,2.2-8.6,1.4-12.1-2.3c-1.5-1.6-3.4-2.4-5.5-2.1c-3,0.4-5.1-0.9-7.1-2.8
			c-3.1-2.9-6.3-5.6-11-4.3c-0.8,0.2-1.3-0.5-1.7-1.1c-1.5-1.9-3.6-2.5-5.7-1.8c-6.2,2.1-11.9,0.8-17.6-2c-4.3-2.1-9.1-2.7-14-2.1
			c-5.9,0.7-10.5,3.6-14.1,8.1c-1.1,1.3-2.3,2.1-3.8,2.6c-10.5,3.6-15.8,11.7-18.3,22c-0.6,2.2,0.3,4.4,1.1,6.4
			c1.4,3.3,3.1,6.6,3.6,10.3c0.1,0.9,0.5,2.1-0.3,2.7c-0.8,0.6-1.6-0.3-2.4-0.7c-3.4-1.5-4.4-1.4-7.2,1.4c-0.8,0.8-1.7,0.9-2.7,1
			c-6.4,0.6-12.8,1.5-19.3,1.6c-0.6-1.1-1.4-0.2-2.1-0.2c-4.1,0.4-6.6-2.3-6-6.3c0.2-1.5,1.9-2,2.2-3.2c0.6-2.8,1.9-1.7,3.1-0.8
			c1-0.6-1-2.4,1-2.2c1.4,0.2,1.6-0.3,1.9-1.4c0.3-0.9,0.2-4-0.4-4.6c-0.5-0.5-1.4-0.9-1.5-0.3c-0.2,1.8-2.2,1.4-2.7,2.5
			c-1.3,2.6-3.3,4.4-5.8,5.6c-1.7,0.8-1.4,3.2-3.1,4l0.1-0.1l-0.1,0.1c0.1-0.9-0.2-1.3-1.1-1l0.2-0.1l-0.2,0.1
			c0.4-1.4-0.6-1.3-1.4-1.2l0,0c-0.4-2.1-1.6-3-3.8-2.7l0,0c0-1.3-0.8-1.2-1.7-1v0c-0.8-2-2.5-2.5-4.4-2.2l-0.2,0
			c-0.4-1.8-1.7-1-2.8-1.1l0,0c-0.4-1.2-1.4-1.4-2.4-1.7c-1.7-0.5-3.6-0.9-5.3-1.4c-3.3-1.1-6.5-2.2-10.1-1.7l-0.1,0.1l-0.1-0.1
			c0-1.1-0.8-1.2-1.6-1.2c-1.3,0-2.6,0.1-3.9,0.1l-0.1,0.1l-0.1-0.1c-0.1-0.3-0.2-0.8-0.4-0.8c-0.6-0.1-0.6,0.5-0.6,0.9
			c-1.3,0.9-1.2,2.2-1.4,3.5c-0.4,2.8-1.6,3.6-4.1,3.2c-12.4-1.9-24.7-4.2-36.8-7.4c-3.4-0.9-6.6-2.8-9.9-4.2
			c-4.8-2.1-9.5-4.2-14.3-6.2c1-3.7-0.5-6-4.1-7.1c0.5-3.3-0.7-5.6-3.8-7c0.4-1.1,1.4-1.8,2.1-2.7c1.8-2.3,4-4.2,4.8-7.2
			c1.6-5.5,2.4-11.2,3.6-16.8c2.6-11.6,4.8-23.2,6-35c1-9.3,3.5-18.2,5.4-27.3c1.4-6.7,1.4-13.4-2-19.6c-0.6-1.1-0.9-2.1-0.4-3.3
			c1.2,0,2.1-0.2,2.1-1.7v0c0.8,0.1,1.7,0.1,1.5-1.2c0.3,0,0.8,0.1,0.9-0.1c0.3-0.3,0-0.6-0.3-0.8c0.2-0.4,0.3-0.7,0.5-1.1
			c0.7-0.1,1.5,0,0.6-1c0.1-0.9,0.3-1.7,0.4-2.6c1-0.5,1-1.1,0-1.7c-0.5-1.6-0.4-3.2-0.4-4.8c0.8-1.5,1.2-2.9-0.8-3.8
			c-0.3-1.1-0.3-2.1-0.1-3.2c0.1-0.3,0.1-0.5,0.2-0.8c0-0.3,0.1-0.5,0.1-0.8c0.3-0.1,0.8-0.3,0.8-0.4c0.1-0.6-0.5-0.6-0.9-0.6
			l-0.5-0.5c-0.1-0.7,0-1.5-1-0.6c-0.7,0-1.5,0-2.1-0.4c0.1-1.3,0.2-2.6,0.4-3.9c0.2-1.7-0.2-3.4-2.7-3v0c-0.6-2.6-2.6-0.8-3.9-1.2
			h-0.2c-1-1.8-2.7-2.1-4.6-2.2l-0.1,0l-0.1-0.1c-0.2-0.1-0.5-0.3-0.7-0.4v0c0.3-1.1-0.7-1.3-1.3-1.8c-1.1-1-0.9-2.3-0.6-3.5
			c0.3-1.2,1.3-0.4,2-0.3c0.9,0.1,1-0.5,1.1-1.2c0-0.9,0.2-1.9,1.2-1.8c2.7,0.2,2.2-1.3,1.4-3.3c2.7,1.7,4.1,0.8,4.9-1.5
			c0.3-0.8,1.1-0.9,1.5-1.3c1.4-1.4,3.2-2.5,3.3-4.8c0.1-2.2,2.8-4.4,5.1-4.2c1.6,0.1,2.7-1,2.6-2.3c-0.1-1.5,0.1-1.9,1.5-1.9
			c0.5,0,1.1-0.3,1.1-0.9c-0.1-0.7-0.8-0.6-1.3-0.6c-1.3,0.1-1.7-0.6-1.7-1.8c0-0.5,0-1.2-0.7-1.1c-0.6,0.1-0.8,0.6-0.8,1.2
			c-0.1,0.6,0.1,1.5-0.7,1.6c-3.5,0.2-4.4,3.7-6.7,5.3c-2.4,1.7-4.1,4.4-6.3,6.5c-1.4,1.3-2.4,3.1-3.9,4.1c-1.9,1.3-3.5,2.9-4.9,4.7
			c-1.8,2.4-3.1,2.7-5.8,1.5c-0.3-0.1-0.7-0.1-1-0.1c0-0.7-0.4-1.1-1.1-1l0,0c-0.1-1.5-0.6-2.5-2.3-2.4c0.1,0,0.1-0.1,0.2-0.1
			c-0.1,0-0.1,0.1-0.2,0.1c0.4-1.2-0.4-1.3-1.2-1.3l-0.2-0.1v-0.2c0-0.4-0.2-0.7-0.6-0.8c-0.4-0.4-0.8-0.9-1.2-1.3
			c0.2-0.1,0.5-0.2,0.7-0.2c1-1.2,0.9-2.5,0.1-3.8c0-0.4,0.1-0.8,0.5-1.1c1.3-0.4,2.4-0.9,1.7-2.6c0.1-1.1,0.1-2.1,0.2-3.2
			c0.4-0.4,0.4-0.7-0.1-1l-0.2-1c1-1.2,0-1.4-0.8-1.6c-0.3-0.6-0.5-1.2-0.8-1.9c0-0.4-0.2-0.6-0.6-0.7c-0.5-0.3-0.9-0.7-1-1.4
			c-0.4-1-0.5-2.3-1.2-3.1c-0.6-0.8-0.3-2.7-2.2-2.3v0c0.3-0.9,0-1.2-0.9-1.2l0,0c0.2-1.7-0.6-2.3-2.2-2.2c-0.2-0.1-0.3-0.3-0.5-0.4
			c-0.1-0.6-0.6-0.7-1.1-0.6c0,0,0,0,0,0c-0.1-1.4-1.3-1.4-2.3-1.7c-0.1-0.2,0-0.3,0.1-0.4c1.6-1.3,1.6-1.8,0-2.6l0,0
			c0.1-1-0.5-1.2-1.3-1c-0.6,0-1.2-0.1-1.8-0.1c-0.6-1.4-0.3-3.6,0.4-3.7c3.2-0.7,4.4-2.7,5.1-5.6c0.5-2.1,2.5-3.5,4.5-3.8
			c0.1,0,0.2-0.1,0.2-0.1c-0.5-2.6,1.8-1,2.6-1.7c0.7-0.7,0.1-2,1.5-2.3c1.5-0.2,0.9-1,0.3-1.6c-0.7-0.6-1.6-1.1-2.1-2
			c-0.4-0.7-0.7-0.4-1.4,0.1c-2.6,2.1-4,5.2-7.1,6.9c-1.4,0.8-2.7,2.2-2.3,4.1c0.4,1.9-0.1,1.8-1.3,0.8c-0.2-0.2-0.8-0.4-0.9-0.2
			c-1.8,1.6-4.1,0.5-6.1,0.9l-0.1,0.1l-0.1-0.1c-0.1-0.3-0.3-0.9-0.4-0.9c-2.9,0.1-5.5-0.9-8.2-1.5c0,0-0.1-0.1-0.1-0.1
			c0-2.1-1.6-2-3-2.3l0,0c0-0.9-0.4-1.2-1.2-0.9l0.1-0.2l-0.1,0.2c0.4-1.5-0.6-1.3-1.5-1.2l0,0c0.1-1.3-0.7-1.3-1.6-1.2l0,0
			c0-1.2-0.8-1.2-1.6-1.1l0,0c-0.2-1.7-1.4-1.7-2.7-1.6l0,0c-2.6-3.3-6.6-3.3-10.1-4.3l0,0c-0.2-2-1.7-2.1-3.3-2.1l0.1,0
			c-0.1-0.6-0.6-0.7-1.1-0.6l0,0c-0.3-2.3-1.5-2.9-3.5-2.1l-0.2,0c-0.3-2-2.4-0.7-3.2-1.7c0-0.4,0-0.9,0-1.3
			c-0.1-1.7-0.2-3.3,2.4-2.4c0.6,0.2,1.3,0,1.1-1c-0.3-1.7,0.6-2.2,2.1-2.2c1.2,0,1.8-0.5,0.6-1.5c-0.4-0.4-1-0.6-0.7-1.2
			c0.4-0.8,1.1-0.4,1.6-0.1c2.2,1.1,3.2,0.1,3.2-2c0-1.2,0.8-0.8,1.4-1c1.9-0.6,4-2.2,3.9-3.8c-0.2-2.7,2.1-3.7,2.8-5.7
			c0.1-0.4,0.7-0.6,1.1-0.2c1.7,1.5,3.2-0.3,3.4-1.1c0.5-1.8,1.8-2.6,3-3.7c-1.2-0.9-2.8-0.6-3.3-2.2c-0.1-0.4-0.9-0.4-0.9-0.2
			c-0.3,1.4-1.8,1.3-2.4,2c-3.6,4.5-8.5,7.7-12.4,12c-1.1,1.2-1.7,3-3.1,3.8c-2.5,1.5-4.2,3.7-6.1,5.8c-1.8,1.9-2.7,3.4,0,5.1
			c-0.6,0.7-1.6,0.3-2,1c-1.9,0.5-3.9,1.1-5.8,1.6c-0.6-1.3-1.4-2.2-2.9-1.9c0.1-0.1,0.1-0.1,0.1-0.2c-0.1,0.1-0.1,0.1-0.1,0.2
			c0.4-1.4-0.6-1.3-1.5-1.2l0,0c0.1-1.5-0.9-1.8-2.1-1.7l0,0c-0.4-1.5-0.5-3.1-0.5-4.7c0-5.6,0-11.2,0-16.8c0.4-0.7,0.9-1.2,1.6-1.5
			c1.4,0.3,2.8,0.7,2.7-1.6c0.9,0,1.7-0.1,2.6-0.1c1.7,1.4,3.8,0.1,5.5,0.8c2,0.8,2-0.4,2-1.8c6.9-0.5,13.9-1.1,20.8-1.6
			c1.6-0.1,3.1-0.5,3.9-1.9c2.3-4.4,6.1-5.8,10.7-5.9c1.2,1.9,2.5,3.8,3.7,5.7c1.9,3.1,4.3,5.5,8.2,5.8c2.4,4,5,5.1,9.3,4.1
			c5.9-1.4,11.8-2.7,17.8-4c1.3-0.3,2.8-0.8,4.2,0c2.2,1.3,4.7,1.5,7,2.2c2.2,0.7,2.6-0.2,2.7-2.3c0.4-7.9-0.7-15.7-2.2-23.4
			c-1.3-6.9-3.1-13.6-5.2-20.2c-0.5-1.5-1.7-3.4-0.8-4.4c1-1.1,2.9,0.3,4.4,0.6c2.9,0.5,5.9,2.4,8.9,0.2c1.1,1,1.8,2.4,2.3,3.8
			c1.7,4.4,5.3,6.3,9.4,7.7c0.6,1.5,1.7,2.4,3.2,3c3.4,1.4,7,2.4,10.6,3.2c6.4,1.3,12.6,3.1,19.3,0.9c2.2-0.7,2.9-1.5,2.6-3.7
			c-0.3-2.4-0.6-4.9,0.6-7.1c3.1-6,8.1-9.9,14.3-12.4c5.1-2,10.5-3,15.8-4.3c10-2.6,15.5-9.2,16.7-19.5c0.7-5.9,0.8-11.8,1.1-17.7
			c0.3-5,1.2-9.9,6.7-12.2c0.9,0.1,1.7,0.3,1.8-1c0.5-0.3,1-0.5,1.6-0.4c0.9,0.6,1.7,0.8,2.1-0.6c0.8-0.5,1.7-0.6,2.7-0.5
			c0.2,1.4-1,1.8-1.8,2.4c-1.3,1.1-1.7,2.2-0.1,3.4c0.8,0.6,1.4,2.2,2.4,1.8c1.4-0.6-0.4-2,0.3-3.1c0.4-0.6-1.3-1.2-0.2-1.7
			c0.9-0.5,1.4,0.4,1.9,1c0.4,0.5,0.8,1.1,1.5,0.9c1-0.3,0.3-1,0.3-1.5c-0.1-0.9,0.4-1.4,1.2-1.5c1.8-0.1,4.2-1.3,4.5,2
			c0.1,0.7,0.4,1.2,1.2,1.1l0,0c-0.1,0.5,0,0.9,0.5,1.1l0,0c-0.2,1.3,0.5,1.8,1.7,1.6c1.6,0.9,3.3,1.4,5.1,1.5
			c1.3,2.6,3.1,4.5,6.3,4.1c1-0.1,2.1-0.3,3.1-0.4c2.5,3.3,6,5.4,9.5,7.5c2.5,1.5,4.9,3.2,7.3,4.7c0.3,0.8,0.9,0.7,1.6,0.7v0
			c-0.1,1.5,1.9,1,2.1,2.2c0.1,1.6-0.7,2.6-1.8,3.6c-2.4,2.2-4.9,4.4-7.1,6.8c-1,1.1-1.7,2.3-3.1,3.1c-0.8,0.5-1.9,1.5-0.7,2.6
			c0.8,0.8,1.7,1.4,2.5,2.3c0.2,0.2,0.9,0.2,1.2,0.1c0.6-0.2,0.3-0.7,0.1-1.1c-0.9-2,0.1-2.4,1.8-2.1c0.8,0.2,1.8-0.1,1.6-0.8
			c-0.5-2.3,1.3-2,2.4-2.6c0.6-0.3,1.9-0.1,1-1.5c-0.3-0.5-0.9-1.1-0.3-1.6c0.5-0.4,0.9,0.2,1.4,0.5c1,0.6,1.4-0.2,1.9-0.9
			c0.4-0.6,0.9-1.2-0.2-1.6c-0.6-0.2-0.6-0.6-0.3-1c0.3-0.4,0.7-0.5,1.2-0.2c0.7,0.5,1.5,1.2,2.1,0.4c1.1-1.4,2.5-0.8,3.8-0.7
			c0,0.8,0,1.7,1.2,1.5c0,0,0,0,0,0c-0.1,0.9-0.2,1.7,1.1,1.6l0,0c0.3,1.4-1.2,3.4,1.1,4.3l-0.1,0c-0.3,4.5-0.2,4.5,2.7,4.8
			c1.8,0.4,3.6,0.8,5.4,1.2c0.2,1,0.1,2.1,1.1,2.8c2.6,1.9,8.4,1.8,11.2,0c0.1,0.2,0.2,0.4,0.3,0.6c0,0.8-0.3,2,1.3,1.5l0,0.1
			l-0.1-0.1c-0.1,0.7,0.4,0.8,0.9,0.8l0,0c0.1,0.3,0.3,0.5,0.6,0.5l-0.1,0c0.2,0.7,0.8,0.7,1.3,0.6c0.4-0.1,0.6,0.1,0.7,0.5
			c0.4,0.8,1,0.8,1.6,0.2c0.5-0.1,0.9,0,1.3,0.4c1.1,2.4,2.9,3.6,5.5,3.5c0.2,0.1,0.4,0.3,0.5,0.4l0.2,0.1c0.1,1.2-0.2,2.4-1.2,3
			c-2.4,1.6-2.7,5.2-5.8,6.1c-0.3,0.1-0.7,0.6-0.8,1c-0.8,1.7-3.8,2-3.1,4.7c0,0.1-0.3,0.2-0.4,0.3c-3.8,0.5-5,4.1-7.7,6.1
			c-0.6,0.5-1.6,1.1-0.7,2.2c0.9,1.1,1.3,2.6,2.9,2.9c0.8,0.1,1.4-0.4,1.2-1.3c-0.5-1.6,0-2,1.5-1.4c0.9,0.3,1.9-0.1,1.8-0.9
			c-0.6-2.7,1-2.7,2.8-2.7c0.4,0,0.9-0.6,1.2-0.9c1.6-1.7,3.5-3.2,4.8-5.1c1-1.4,3.4-2.6,3.2-4c-0.3-2,1.1-2.6,1.7-3.8
			c0.9-2.1,2.2-1.7,3.8-0.9c0.5,0.3,1.4-0.1,2.1-0.1c4.9,3.3,10.4,5.5,15.7,7.9c3.1,1.4,6.4,2.1,10,0.5c2.5-1.1,5.5-1.5,8.3-0.5
			c0.2,0.2,0.4,0.4,0.5,0.6L370.8,85.5L370.8,85.5L370.8,85.5z"/>
		<path class="st2" d="M126.9,260.5c0.3,1.3-0.6,1.3-1.5,1.2v0c0,1.5-0.9,1.7-2.1,1.7c-0.5,1.2-0.2,2.2,0.4,3.3
			c3.4,6.2,3.4,12.9,2,19.6c-1.9,9.1-4.4,18-5.4,27.3c-1.2,11.7-3.4,23.4-6,35c-1.2,5.6-2.1,11.3-3.6,16.8c-0.8,3-3.1,4.9-4.8,7.2
			c-0.7,0.9-1.7,1.6-2.1,2.7c3,1.4,4.3,3.7,3.8,7c3.6,1.1,5.1,3.4,4.1,7.1c4.8,2.1,9.6,4.1,14.3,6.2c3.3,1.4,6.5,3.3,9.9,4.2
			c12.1,3.1,24.4,5.5,36.8,7.4c2.5,0.4,3.7-0.5,4.1-3.2c0.2-1.3,0.1-2.7,1.4-3.5c0.1-0.4,0-1,0.6-0.9c0.2,0,0.3,0.6,0.4,0.8l0.1,0.1
			l0.1-0.1c1.3,0,2.6,0,3.9-0.1c0.9,0,1.6,0.1,1.6,1.2l0.1,0.1l0.1-0.1c3.6-0.5,6.8,0.6,10.1,1.7c1.7,0.5,3.5,0.9,5.3,1.4
			c1,0.3,2.1,0.5,2.4,1.7l0,0c1,0.1,2.4-0.8,2.8,1.1l0.2,0c2-0.2,3.6,0.2,4.4,2.2v0c0.9-0.2,1.7-0.3,1.7,1l0,0
			c2.1-0.3,3.4,0.6,3.8,2.7l0,0c0.9-0.1,1.8-0.2,1.4,1.2l0.2-0.1l-0.2,0.1c0.9-0.3,1.3,0,1.1,1l0.1-0.1l-0.1,0.1
			c1.7-0.8,1.4-3.2,3.1-4c2.6-1.2,4.5-3.1,5.8-5.6c0.5-1,2.5-0.7,2.7-2.5c0.1-0.6,1-0.2,1.5,0.3c0.6,0.7,0.7,3.7,0.4,4.6
			c-0.3,1.1-0.4,1.6-1.9,1.4c-1.9-0.2,0,1.6-1,2.2c-1.2-0.9-2.5-2-3.1,0.8c-0.3,1.2-1.9,1.7-2.2,3.2c-0.6,4,1.8,6.7,6,6.3
			c0.7-0.1,1.5-0.9,2.1,0.2c6.5-0.1,12.9-1,19.3-1.6c0.9-0.1,1.9-0.2,2.7-1c2.8-2.7,3.7-2.9,7.2-1.4c0.8,0.3,1.6,1.2,2.4,0.7
			c0.9-0.6,0.5-1.8,0.3-2.7c-0.5-3.7-2.2-6.9-3.6-10.3c-0.9-2.1-1.7-4.2-1.1-6.4c2.5-10.3,7.8-18.4,18.3-22c1.6-0.5,2.8-1.3,3.8-2.6
			c3.6-4.6,8.2-7.4,14.1-8.1c4.9-0.6,9.7,0,14,2.1c5.7,2.8,11.4,4.1,17.6,2c2.1-0.7,4.2-0.1,5.7,1.8c0.4,0.5,0.9,1.3,1.7,1.1
			c4.8-1.3,7.9,1.4,11,4.3c2,1.9,4.1,3.2,7.1,2.8c2.1-0.3,4.1,0.5,5.5,2.1c3.5,3.8,7.6,4.5,12.1,2.3c5.2-2.5,10.5-4.6,16.3-5.5
			c1.5-0.2,2.4-1.1,2-2.6c-1-3.3,0.8-5.2,3.2-6.8c5.8-3.8,10.8-8.6,16.1-13c6.4-5.3,11-11.7,13-19.8c-5.1-1.4-10.5-2.2-15.2-4.7
			c-1.4-0.7-2.8-1.4-3.6-2.9c-0.7-0.3-1.4-0.8-2.1-1c-4.5-1.6-6.4-4.7-6.1-9.5c0.2-3,0.7-5.9,0.8-8.9c0.3-1.4-1-3.1,0.9-4l0-0.1
			c0.1-1.5,0.2-3-1.1-4.2c-2.4,0.6-5.4-1.2-5.8-3.4c-0.1-0.1-0.3-0.3-0.4-0.4c-2.5-1.6-4.4-3.6-4.4-6.8l0,0c-1.1-0.2-1.6-1-1.3-2.1
			c0.2-0.7,0.2-1.9,1.5-1.5l-0.2,0l0.2,0c-0.3-1.7,1.3-1.7,2.1-2.2c2.4-1.5,4.9-3,7.9-2.6l0,0c0.7-1.7,2-2.5,3.8-2.6l0,0
			c-0.4-2.4-0.3-4.8-0.1-7.3h0c-1.7,0.1-1.1-1.2-1.2-2.1l0,0c-1.2,0-1.2-0.8-1-1.7l0,0c-1.3,0.1-1.2-0.7-1.1-1.6l0,0
			c-1.4,0.1-2-0.4-1.3-1.8l-0.1-0.1c-1.5,0.6-1.3-0.5-1.2-1.3l0,0c-2.1-0.4-3-1.8-3.3-3.8c-0.1-0.1-0.3-0.3-0.4-0.4
			c-1.9-0.3-1.9-2-2.3-3.4c-0.1-0.5,0.2-1.2-0.4-1.4c-0.6-0.2-1.3,0.2-1.5,0.8c-1,2-2.4,2.4-4.3,1.2c-0.3-0.2-0.7-0.3-1,0
			c-0.4,0.4-0.2,0.8,0.1,1.2c1.1,1.5,1.2,2.7-1.2,2.7c-1.3,0-1.3,0.9-1.3,1.9c-0.1,1.3-0.6,1.6-1.7,0.9c-1.9-1.3-2.1-0.1-1.9,1.4
			c0.1,0.7,0.7,1.4-0.2,1.9c-1,0.5-1.4-0.5-1.9-1c-2.5-2.4-2.5-2.4-0.1-4.8c1.3-1.3,2.6-2.6,3.9-4c0.6-0.6,1.3-1.2,2.3-1.1
			c0.9,0,1.9,0.1,1.4-1.4c-0.3-0.9,0.3-1.5,1-2c0.9-0.5,1.2,0.3,1.8,0.7c0.7,0.5,1,1.5,2.2,1.3c-0.1-1.4-1.7-2-1.4-3.5
			c0.4-2,1.7-1.3,2.8-1.2c-0.2-2.5,1.2-5.3,3.6-6c1.6-0.5,1.5-1.4,1.8-2.5c0,0,0,0.1,0,0.1l0-0.1c-1.7,0.2-1.1-1.1-1.3-2
			c-1.1-0.1-1.8-0.5-1.3-1.8l0-0.1c-0.8,0.1-0.8-0.4-0.6-0.9l0,0.1l0.1-0.1c-0.7,0-0.7-0.4-0.7-1l0,0c-1.7-0.8-1.8-2.6-2.1-4.1
			c-0.2-0.8-0.2-1.6-0.9-2.1c-3.7,0.3-7.3,1.7-11.2,1.3c-1.4-0.1-2.3-0.2-1.7-1.9c0.1-0.2,0.2-0.5,0.3-0.7c0.2-0.6,0.3-1.3,0.1-1.9
			c-0.5,0.1-1,0.1-1.6,0.2c-1.7,2.6-4.2,0.7-6.4,1.1c-0.7,0.1-1.4-0.7-1.5-1.6c0-0.3,0.3-0.6,0.4-0.9c0-0.4,0-0.7,0.1-1
			c-0.1-3,0.8-5.7,2.8-8l0,0.1c-0.1-0.5,0-1,0.6-1.1l0,0c-0.1-0.6-0.5-1.4,0.7-1.4v-0.1c-0.2-0.4,0-0.6,0.4-0.7l0,0
			c-0.1-0.9-0.2-1.7,1.1-1.6c0,0,0,0,0,0c-0.1-0.9-0.2-1.7,1.1-1.6l0,0c-0.1-0.9-0.2-1.6,1-1.7l0,0c0-0.8-0.1-1.6,1.1-1.6l0,0
			c0-0.8-0.1-1.7,1.2-1.5l0,0c-0.2-0.9-0.2-1.7,1-1.7c0.2-0.2,0.3-0.3,0.5-0.5c-0.1-1.8,0.4-3.2,2.4-3.6c0-0.1-0.1-0.1-0.1-0.2
			c0,0.1,0.1,0.1,0.1,0.2c-0.5-1.8,0.4-2.5,2-2.8h0c-0.2-1.3,0-2.2,1.5-2.2c-0.1-0.5,0-0.9,0.5-1.1l0,0c-0.1-0.9,0.1-1.7,1.3-1.6
			c0.1-0.1,0.2-0.3,0.3-0.4c0-0.9-0.2-1.7,1.1-1.7l0,0c-0.1-0.9-0.2-1.6,1-1.7l0,0c0.4-1.6,0.6-3.3,2.7-3.7
			c-0.1-0.9-0.1-1.7,1.1-1.6h0c0-3.1-0.5-6.1,0.3-9.2c0.2-0.6,0.3-1.5-0.2-1.7c-2.2-1-1-2.3-0.1-3c2.1-1.8,3.4-4.4,5.8-5.8
			c0.4-1,1.2-1.1,2.1-1.1c0.1-1.1,0.9-1.9,1.6-2.7c0.3-0.7,0.8-1.1,1.6-1.1c0.5-0.7,1.1-1.4,1.6-2.1c0.5-0.9,1.2-1.6,2.1-2.1
			c3-2,3.5-4.9,3.2-8.2c-0.1-1-0.8-2.6,1.1-3c0-0.2,0-0.5,0-0.7c-0.7-5.7,2.4-10.5,4-15.6c0-0.1,0.5-0.1,0.7-0.2l0,0
			c0.1-1-0.7-2.4,1.1-2.7l0-0.2c0-1-0.6-2.2,1.1-2.5v-0.2c0-1-0.6-2.3,1.1-2.5c2.4-5.3,5-10.5,7-15.9c-6.4-2.3-12.7-4.7-19.6-4.3
			c-4.5,0.2-9,0-13.5-0.2c-3.1-0.1-5.6-1.3-6.9-4.4c-4-0.6-6.8-2.6-8.3-6.3c-0.4-0.9-1-1.6-1.6-2.4l0.1,0l0,0.1v-0.2
			c-0.2-0.2-0.4-0.4-0.5-0.6c-2.8-1-5.8-0.5-8.3,0.5c-3.6,1.5-6.8,0.8-10-0.5c-5.4-2.3-10.8-4.6-15.7-7.9c-0.7,0-1.5,0.4-2.1,0.1
			c-1.6-0.8-2.9-1.2-3.8,0.9c-0.5,1.2-2,1.8-1.7,3.8c0.2,1.4-2.1,2.6-3.2,4c-1.4,1.9-3.2,3.5-4.8,5.1c-0.4,0.4-0.8,0.9-1.2,0.9
			c-1.8,0.1-3.4,0-2.8,2.7c0.2,0.8-0.9,1.3-1.8,0.9c-1.5-0.6-2-0.1-1.5,1.4c0.3,0.9-0.4,1.4-1.2,1.3c-1.6-0.3-2.1-1.8-2.9-2.9
			c-0.8-1.1,0.1-1.7,0.7-2.2c2.6-2,3.9-5.6,7.7-6.1c0.1,0,0.4-0.2,0.4-0.3c-0.7-2.7,2.3-3,3.1-4.7c0.2-0.4,0.5-0.9,0.8-1
			c3.1-0.9,3.4-4.5,5.8-6.1c1-0.7,1.3-1.8,1.2-3l-0.2-0.1c-0.2-0.1-0.4-0.3-0.5-0.4c-2.6,0.1-4.5-1.1-5.5-3.5
			c-0.3-0.4-0.8-0.5-1.3-0.4c-0.6,0.6-1.1,0.6-1.6-0.2c-0.1-0.4-0.3-0.6-0.7-0.5c-0.6,0.1-1.1,0.1-1.3-0.6l0.1,0
			c-0.4,0-0.6-0.2-0.6-0.5l0,0c-0.5,0-1,0-0.9-0.8l0.1,0.1l0-0.1c-1.6,0.5-1.2-0.7-1.3-1.5c-0.1-0.2-0.2-0.4-0.3-0.6
			c-2.8,1.9-8.6,1.9-11.2,0c-1-0.7-0.9-1.8-1.1-2.8c-1.8-0.4-3.6-0.8-5.4-1.2c-3-0.3-3-0.3-2.7-4.8l0.1,0c-2.3-0.9-0.8-2.8-1.1-4.3
			l0,0c-1.3,0.1-1.2-0.7-1.1-1.6c0,0,0,0,0,0c-1.2,0.1-1.2-0.7-1.2-1.5c-1.3-0.1-2.7-0.7-3.8,0.7c-0.6,0.8-1.4,0.1-2.1-0.4
			c-0.4-0.3-0.9-0.2-1.2,0.2c-0.3,0.4-0.2,0.8,0.3,1c1.2,0.4,0.7,1,0.2,1.6c-0.5,0.6-0.9,1.4-1.9,0.9c-0.4-0.2-0.9-0.9-1.4-0.5
			c-0.6,0.6-0.1,1.1,0.3,1.6c0.8,1.3-0.5,1.2-1,1.5c-1.1,0.6-2.9,0.3-2.4,2.6c0.1,0.7-0.8,0.9-1.6,0.8c-1.7-0.3-2.7,0.1-1.8,2.1
			c0.2,0.4,0.5,0.9-0.1,1.1c-0.3,0.1-1,0.1-1.2-0.1c-0.8-0.9-1.7-1.5-2.5-2.3c-1.2-1.1-0.1-2.1,0.7-2.6c1.3-0.8,2.1-2,3.1-3.1
			c2.2-2.4,4.7-4.6,7.1-6.8c1.1-1,1.9-2,1.8-3.6c-0.2-1.2-2.2-0.7-2.1-2.2v0c-0.6,0.1-1.3,0.2-1.6-0.7c-2.4-1.6-4.8-3.3-7.3-4.7
			c-3.5-2-6.9-4.2-9.5-7.5c-1,0.1-2.1,0.3-3.1,0.4c-3.2,0.4-5-1.5-6.3-4.1c-1.8-0.2-3.5-0.6-5.1-1.5c-1.2,0.2-1.9-0.3-1.7-1.6l0,0
			c-0.5-0.2-0.6-0.6-0.5-1.1l0,0c-0.8,0.1-1.2-0.4-1.2-1.1c-0.4-3.3-2.7-2.1-4.5-2c-0.8,0.1-1.2,0.6-1.2,1.5c0,0.5,0.8,1.2-0.3,1.5
			c-0.7,0.2-1.1-0.4-1.5-0.9c-0.5-0.6-1-1.5-1.9-1c-1.1,0.6,0.6,1.1,0.2,1.7c-0.7,1,1.1,2.5-0.3,3.1c-1,0.4-1.6-1.2-2.4-1.8
			c-1.6-1.2-1.2-2.2,0.1-3.4c0.7-0.6,2-1,1.8-2.4c-0.9-0.2-1.8,0-2.7,0.5c-0.4,1.4-1.2,1.2-2.1,0.6c-0.6-0.1-1.1,0.1-1.6,0.4
			c-0.1,1.3-1,1.1-1.8,1c-5.4,2.3-6.3,7.2-6.7,12.2c-0.4,5.9-0.4,11.8-1.1,17.7c-1.2,10.3-6.7,16.9-16.7,19.5
			C197.5,67,192.1,68,187,70c-6.2,2.4-11.2,6.3-14.3,12.4c-1.1,2.2-0.8,4.7-0.6,7.1c0.2,2.2-0.5,3-2.6,3.7
			c-6.6,2.2-12.9,0.4-19.3-0.9c-3.6-0.8-7.2-1.8-10.6-3.2c-1.5-0.6-2.6-1.5-3.2-3c-4.1-1.4-7.7-3.3-9.4-7.7
			c-0.5-1.4-1.2-2.7-2.3-3.8c-3,2.2-5.9,0.3-8.9-0.2c-1.5-0.3-3.4-1.7-4.4-0.6c-0.9,1,0.4,2.9,0.8,4.4c2.1,6.6,3.9,13.4,5.2,20.2
			c1.5,7.8,2.6,15.5,2.2,23.4c-0.1,2.1-0.5,3-2.7,2.3c-2.3-0.7-4.8-0.9-7-2.2c-1.3-0.8-2.8-0.3-4.2,0c-6,1.3-11.9,2.6-17.8,4
			c-4.3,1-6.9-0.1-9.3-4.1c-3.9-0.3-6.3-2.7-8.2-5.8c-1.2-1.9-2.5-3.8-3.7-5.7c-4.6,0.1-8.4,1.5-10.7,5.9c-0.7,1.4-2.3,1.8-3.9,1.9
			c-6.9,0.5-13.9,1.1-20.8,1.6c0,1.4,0,2.6-2,1.8c-1.8-0.7-3.8,0.6-5.5-0.8c-0.9,0-1.7,0.1-2.6,0.1c0.1,2.3-1.4,1.9-2.7,1.6
			c-0.7,0.3-1.2,0.8-1.6,1.5c0,5.6,0.1,11.2,0,16.8c0,1.6,0.1,3.2,0.5,4.7l0,0c1.2-0.1,2.2,0.1,2.1,1.7l0,0c0.9-0.1,1.8-0.2,1.5,1.2
			 M126.9,260.5l0.1,0.2 M126.9,260.5c0.3,0,0.8,0.1,0.9-0.1c0.3-0.3,0-0.6-0.3-0.8c0.2-0.4,0.3-0.7,0.5-1.1c0.7-0.1,1.5,0,0.6-1
			c0.1-0.9,0.3-1.7,0.4-2.6c1-0.5,1-1.1,0-1.7c-0.5-1.6-0.4-3.2-0.4-4.8c0.8-1.5,1.2-2.9-0.8-3.8c-0.3-1.1-0.3-2.1-0.1-3.2
			c0.1-0.3,0.1-0.5,0.2-0.8c0-0.3,0.1-0.5,0.1-0.8c0.3-0.1,0.8-0.3,0.8-0.4c0.1-0.6-0.5-0.6-0.9-0.6l-0.5-0.5c-0.1-0.7,0-1.5-1-0.6
			c-0.7,0-1.5,0-2.1-0.4c0.1-1.3,0.2-2.6,0.4-3.9c0.2-1.7-0.2-3.4-2.7-3v0c-0.6-2.6-2.6-0.8-3.9-1.2h-0.2c-1-1.8-2.7-2.1-4.6-2.2
			l-0.1,0l-0.1-0.1c-0.2-0.1-0.5-0.3-0.7-0.4v0c0.3-1.1-0.7-1.3-1.3-1.8c-1.1-1-0.9-2.3-0.6-3.5c0.3-1.2,1.3-0.4,2-0.3
			c0.9,0.1,1-0.5,1.1-1.2c0-0.9,0.2-1.9,1.2-1.8c2.7,0.2,2.2-1.3,1.4-3.3c2.7,1.7,4.1,0.8,4.9-1.5c0.3-0.8,1.1-0.9,1.5-1.3
			c1.4-1.4,3.2-2.5,3.3-4.8c0.1-2.2,2.8-4.4,5.1-4.2c1.6,0.1,2.7-1,2.6-2.3c-0.1-1.5,0.1-1.9,1.5-1.9c0.5,0,1.1-0.3,1.1-0.9
			c-0.1-0.7-0.8-0.6-1.3-0.6c-1.3,0.1-1.7-0.6-1.7-1.8c0-0.5,0-1.2-0.7-1.1c-0.6,0.1-0.8,0.6-0.8,1.2c-0.1,0.6,0.1,1.5-0.7,1.6
			c-3.5,0.2-4.4,3.7-6.7,5.3c-2.4,1.7-4.1,4.4-6.3,6.5c-1.4,1.3-2.4,3.1-3.9,4.1c-1.9,1.3-3.5,2.9-4.9,4.7c-1.8,2.4-3.1,2.7-5.8,1.5
			c-0.3-0.1-0.7-0.1-1-0.1c0-0.7-0.4-1.1-1.1-1l0,0c-0.1-1.5-0.6-2.5-2.3-2.4c0.1,0,0.1-0.1,0.2-0.1c-0.1,0-0.1,0.1-0.2,0.1
			c0.4-1.2-0.4-1.3-1.2-1.3l-0.2-0.1v-0.2c0-0.4-0.2-0.7-0.6-0.8c-0.4-0.4-0.8-0.9-1.2-1.3c0.2-0.1,0.5-0.2,0.7-0.2
			c1-1.2,0.9-2.5,0.1-3.8c0-0.4,0.1-0.8,0.5-1.1c1.3-0.4,2.4-0.9,1.7-2.6c0.1-1.1,0.1-2.1,0.2-3.2c0.4-0.4,0.4-0.7-0.1-1l-0.2-1
			c1-1.2,0-1.4-0.8-1.6c-0.3-0.6-0.5-1.2-0.8-1.9c0-0.4-0.2-0.6-0.6-0.7c-0.5-0.3-0.9-0.7-1-1.4c-0.4-1-0.5-2.3-1.2-3.1
			c-0.6-0.8-0.3-2.7-2.2-2.3v0c0.3-0.9,0-1.2-0.9-1.2l0,0c0.2-1.7-0.6-2.3-2.2-2.2c-0.2-0.1-0.3-0.3-0.5-0.4
			c-0.1-0.6-0.6-0.7-1.1-0.6c0,0,0,0,0,0c-0.1-1.4-1.3-1.4-2.3-1.7c-0.1-0.2,0-0.3,0.1-0.4c1.6-1.3,1.6-1.8,0-2.6l0,0
			c0.1-1-0.5-1.2-1.3-1c-0.6,0-1.2-0.1-1.8-0.1c-0.6-1.4-0.3-3.6,0.4-3.7c3.2-0.7,4.4-2.7,5.1-5.6c0.5-2.1,2.5-3.5,4.5-3.8
			c0.1,0,0.2-0.1,0.2-0.1c-0.5-2.6,1.8-1,2.6-1.7c0.7-0.7,0.1-2,1.5-2.3c1.5-0.2,0.9-1,0.3-1.6c-0.7-0.6-1.6-1.1-2.1-2
			c-0.4-0.7-0.7-0.4-1.4,0.1c-2.6,2.1-4,5.2-7.1,6.9c-1.4,0.8-2.7,2.2-2.3,4.1c0.4,1.9-0.1,1.8-1.3,0.8c-0.2-0.2-0.8-0.4-0.9-0.2
			c-1.8,1.6-4.1,0.5-6.1,0.9l-0.1,0.1l-0.1-0.1c-0.1-0.3-0.3-0.9-0.4-0.9c-2.9,0.1-5.5-0.9-8.2-1.5c0,0-0.1-0.1-0.1-0.1
			c0-2.1-1.6-2-3-2.3l0,0c0-0.9-0.4-1.2-1.2-0.9l0.1-0.2l-0.1,0.2c0.4-1.5-0.6-1.3-1.5-1.2l0,0c0.1-1.3-0.7-1.3-1.6-1.2l0,0
			c0-1.2-0.8-1.2-1.6-1.1l0,0c-0.2-1.7-1.4-1.7-2.7-1.6l0,0c-2.6-3.3-6.6-3.3-10.1-4.3l0,0c-0.2-2-1.7-2.1-3.3-2.1l0.1,0
			c-0.1-0.6-0.6-0.7-1.1-0.6l0,0c-0.3-2.3-1.5-2.9-3.5-2.1l-0.2,0c-0.3-2-2.4-0.7-3.2-1.7c0-0.4,0-0.9,0-1.3
			c-0.1-1.7-0.2-3.3,2.4-2.4c0.6,0.2,1.3,0,1.1-1c-0.3-1.7,0.6-2.2,2.1-2.2c1.2,0,1.8-0.5,0.6-1.5c-0.4-0.4-1-0.6-0.7-1.2
			c0.4-0.8,1.1-0.4,1.6-0.1c2.2,1.1,3.2,0.1,3.2-2c0-1.2,0.8-0.8,1.4-1c1.9-0.6,4-2.2,3.9-3.8c-0.2-2.7,2.1-3.7,2.8-5.7
			c0.1-0.4,0.7-0.6,1.1-0.2c1.7,1.5,3.2-0.3,3.4-1.1c0.5-1.8,1.8-2.6,3-3.7c-1.2-0.9-2.8-0.6-3.3-2.2c-0.1-0.4-0.9-0.4-0.9-0.2
			c-0.3,1.4-1.8,1.3-2.4,2c-3.6,4.5-8.5,7.7-12.4,12c-1.1,1.2-1.7,3-3.1,3.8c-2.5,1.5-4.2,3.7-6.1,5.8c-1.8,1.9-2.7,3.4,0,5.1
			c-0.6,0.7-1.6,0.3-2,1c-1.9,0.5-3.9,1.1-5.8,1.6c-0.6-1.3-1.4-2.2-2.9-1.9 M21.2,148.1c0.1-0.1,0.1-0.1,0.1-0.2
			C21.3,147.9,21.2,148,21.2,148.1z"/>
		<path class="st1" d="M218.4,415.2L218.4,415.2c0.1-0.9-0.2-1.3-1.1-1l0.2-0.1l-0.2,0.1c0.4-1.4-0.6-1.3-1.4-1.2l0,0
			c-0.4-2.1-1.6-3-3.8-2.7l0,0c0-1.3-0.8-1.2-1.7-1v0c-0.8-2-2.5-2.5-4.4-2.2l-0.2,0c-0.4-1.8-1.7-1-2.8-1.1l0,0
			c-0.4-1.2-1.4-1.4-2.4-1.7c-1.7-0.5-3.6-0.9-5.3-1.4c-3.3-1.1-6.5-2.2-10.1-1.7l-0.1,0.1l-0.1-0.1c0-1.1-0.8-1.2-1.6-1.2
			c-1.3,0-2.6,0.1-3.9,0.1l-0.1,0.1l-0.1-0.1c-0.1-0.3-0.2-0.8-0.4-0.8c-0.6-0.1-0.6,0.5-0.6,0.9c-1.3,0.9-1.2,2.2-1.4,3.5
			c-0.4,2.8-1.6,3.6-4.1,3.2c-12.4-1.9-24.7-4.2-36.8-7.4c-3.4-0.9-6.6-2.8-9.9-4.2c-4.8-2.1-9.5-4.2-14.3-6.2c1-3.7-0.5-6-4.1-7.1
			c0.5-3.3-0.7-5.6-3.8-7c0.4-1.1,1.4-1.8,2.1-2.7c1.8-2.3,4-4.2,4.8-7.2c1.6-5.5,2.4-11.2,3.6-16.8c2.6-11.6,4.8-23.2,6-35
			c1-9.3,3.5-18.2,5.4-27.3c1.4-6.7,1.4-13.4-2-19.6c-0.6-1.1-0.9-2.1-0.4-3.3c1.2,0,2.1-0.2,2.1-1.7v0c0.8,0.1,1.7,0.1,1.5-1.2
			c0.3,0,0.8,0.1,0.9-0.1c0.3-0.3,0-0.6-0.3-0.8c0.2-0.4,0.3-0.7,0.5-1.1c0.7-0.1,1.5,0,0.6-1c0.1-0.9,0.3-1.7,0.4-2.6
			c1-0.5,1-1.1,0-1.7c-0.5-1.6-0.4-3.2-0.4-4.8c0.8-1.5,1.2-2.9-0.8-3.8c-0.3-1.1-0.3-2.1-0.1-3.2c0.1-0.3,0.1-0.5,0.2-0.8
			c0-0.3,0.1-0.5,0.1-0.8c0.3-0.1,0.8-0.3,0.8-0.4c0.1-0.6-0.5-0.6-0.9-0.6l-0.5-0.5c-0.1-0.7,0-1.5-1-0.6c-0.7,0-1.5,0-2.1-0.4
			c0.1-1.3,0.2-2.6,0.4-3.9c0.2-1.7-0.2-3.4-2.7-3v0c-0.6-2.6-2.6-0.8-3.9-1.2h-0.2c-1-1.8-2.7-2.1-4.6-2.2l-0.1,0l-0.1-0.1
			c-0.2-0.1-0.5-0.3-0.7-0.4v0c0.3-1.1-0.7-1.3-1.3-1.8l-7.7-5.7c-0.3-0.1-0.7-0.1-1-0.1c0-0.7-0.4-1.1-1.1-1l0,0
			c-0.1-1.5-0.6-2.5-2.3-2.4c0.1,0,0.1-0.1,0.2-0.1c-0.1,0-0.1,0.1-0.2,0.1c0.4-1.2-0.4-1.3-1.2-1.3l-0.2-0.1v-0.2
			c0-0.4-0.2-0.7-0.6-0.8c-0.4-0.4-0.8-0.9-1.2-1.3c0.2-0.1,0.5-0.2,0.7-0.2c1-1.2,0.9-2.5,0.1-3.8c0-0.4,0.1-0.8,0.5-1.1
			c1.3-0.4,2.4-0.9,1.7-2.6c0.1-1.1,0.1-2.1,0.2-3.2c0.4-0.4,0.4-0.7-0.1-1l-0.2-1c1-1.2,0-1.4-0.8-1.6c-0.3-0.6-0.5-1.2-0.8-1.9
			c0-0.4-0.2-0.6-0.6-0.7c-0.5-0.3-0.9-0.7-1-1.4c-0.4-1-0.5-2.3-1.2-3.1c-0.6-0.8-0.3-2.7-2.2-2.3v0c0.3-0.9,0-1.2-0.9-1.2l0,0
			c0.2-1.7-0.6-2.3-2.2-2.2c-0.2-0.1-0.3-0.3-0.5-0.4c-0.1-0.6-0.6-0.7-1.1-0.6c0,0,0,0,0,0c-0.1-1.4-1.3-1.4-2.3-1.7
			c-0.1-0.2,0-0.3,0.1-0.4c1.6-1.3,1.6-1.8,0-2.6l0,0c0.1-1-0.5-1.2-1.3-1c-0.6,0-1.2-0.1-1.8-0.1l-6.6-8l-0.1,0.1l-0.1-0.1
			c-0.1-0.3-0.3-0.9-0.4-0.9c-2.9,0.1-5.5-0.9-8.2-1.5c0,0-0.1-0.1-0.1-0.1c0-2.1-1.6-2-3-2.3l0,0c0-0.9-0.4-1.2-1.2-0.9l0.1-0.2
			l-0.1,0.2c0.4-1.5-0.6-1.3-1.5-1.2l0,0c0.1-1.3-0.7-1.3-1.6-1.2l0,0c0-1.2-0.8-1.2-1.6-1.1l0,0c-0.2-1.7-1.4-1.7-2.7-1.6l0,0
			c-2.6-3.3-6.6-3.3-10.1-4.3l0,0c-0.2-2-1.7-2.1-3.3-2.1l0.1,0c-0.1-0.6-0.6-0.7-1.1-0.6l0,0c-0.3-2.3-1.5-2.9-3.5-2.1l-0.2,0
			c-0.3-2-2.4-0.7-3.2-1.7l-2.3-1.1c-0.6,0.7-1.6,0.3-2,1c-1.9,0.5-3.9,1.1-5.8,1.6c-0.6-1.3-1.4-2.2-2.9-1.9
			c0.1-0.1,0.1-0.1,0.1-0.2c-0.1,0.1-0.1,0.1-0.1,0.2c0.4-1.4-0.6-1.3-1.5-1.2l0,0c0.1-1.5-0.9-1.8-2.1-1.7l0,0
			c-0.4-1.5-0.5-3.1-0.5-4.7c0-5.6,0-11.2,0-16.8c0.4-0.7,0.9-1.2,1.6-1.5c1.4,0.3,2.8,0.7,2.7-1.6c0.9,0,1.7-0.1,2.6-0.1
			c1.7,1.4,3.8,0.1,5.5,0.8c2,0.8,2-0.4,2-1.8c6.9-0.5,13.9-1.1,20.8-1.6c1.6-0.1,3.1-0.5,3.9-1.9c2.3-4.4,6.1-5.8,10.7-5.9
			c1.2,1.9,2.5,3.8,3.7,5.7c1.9,3.1,4.3,5.5,8.2,5.8c2.4,4,5,5.1,9.3,4.1c5.9-1.4,11.8-2.7,17.8-4c1.3-0.3,2.8-0.8,4.2,0
			c2.2,1.3,4.7,1.5,7,2.2c2.2,0.7,2.6-0.2,2.7-2.3c0.4-7.9-0.7-15.7-2.2-23.4c-1.3-6.9-3.1-13.6-5.2-20.2c-0.5-1.5-1.7-3.4-0.8-4.4
			c1-1.1,2.9,0.3,4.4,0.6c2.9,0.5,5.9,2.4,8.9,0.2c1.1,1,1.8,2.4,2.3,3.8c1.7,4.4,5.3,6.3,9.4,7.7c0.6,1.5,1.7,2.4,3.2,3
			c3.4,1.4,7,2.4,10.6,3.2c6.4,1.3,12.6,3.1,19.3,0.9c2.2-0.7,2.9-1.5,2.6-3.7c-0.3-2.4-0.6-4.9,0.6-7.1c3.1-6,8.1-9.9,14.3-12.4
			c5.1-2,10.5-3,15.8-4.3c10-2.6,15.5-9.2,16.7-19.5c0.7-5.9,0.8-11.8,1.1-17.7c0.3-5,1.2-9.9,6.7-12.2c0.9,0.1,1.7,0.3,1.8-1
			c0.5-0.3,1-0.5,1.6-0.4c0.9,0.6,1.7,0.8,2.1-0.6c0.8-0.5,1.7-0.6,2.7-0.5c0.2,1.4-1,1.8-1.8,2.4c-1.3,1.1-1.7,2.2-0.1,3.4
			c0.8,0.6,1.4,2.2,2.4,1.8c1.4-0.6-0.4-2,0.3-3.1c0.4-0.6-1.3-1.2-0.2-1.7c0.9-0.5,1.4,0.4,1.9,1c0.4,0.5,0.8,1.1,1.5,0.9
			c1-0.3,0.3-1,0.3-1.5c-0.1-0.9,0.4-1.4,1.2-1.5c1.8-0.1,4.2-1.3,4.5,2c0.1,0.7,0.4,1.2,1.2,1.1l0,0c-0.1,0.5,0,0.9,0.5,1.1l0,0
			c-0.2,1.3,0.5,1.8,1.7,1.6c1.6,0.9,3.3,1.4,5.1,1.5c1.3,2.6,3.1,4.5,6.3,4.1c1-0.1,2.1-0.3,3.1-0.4c2.5,3.3,6,5.4,9.5,7.5
			c2.5,1.5,4.9,3.2,7.3,4.7c0.3,0.8,0.9,0.7,1.6,0.7v0c-0.1,1.5,1.9,1,2.1,2.2l7.5,5.3c0,0.8,0,1.7,1.2,1.5c0,0,0,0,0,0
			c-0.1,0.9-0.2,1.7,1.1,1.6l0,0c0.3,1.4-1.2,3.4,1.1,4.3l-0.1,0c-0.3,4.5-0.2,4.5,2.7,4.8c1.8,0.4,3.6,0.8,5.4,1.2
			c0.2,1,0.1,2.1,1.1,2.8c2.6,1.9,8.4,1.8,11.2,0c0.1,0.2,0.2,0.4,0.3,0.6c0,0.8-0.3,2,1.3,1.5l0,0.1l-0.1-0.1
			c-0.1,0.7,0.4,0.8,0.9,0.8l0,0c0.1,0.3,0.3,0.5,0.6,0.5l-0.1,0c0.2,0.7,0.8,0.7,1.3,0.6c0.4-0.1,0.6,0.1,0.7,0.5
			c0.4,0.8,1,0.8,1.6,0.2c0.5-0.1,0.9,0,1.3,0.4c1.1,2.4,2.9,3.6,5.5,3.5c0.2,0.1,0.7,0.5,0.7,0.5l5.1,5c0.5,0.3,1.4-0.1,2.1-0.1
			c4.9,3.3,10.4,5.5,15.7,7.9c3.1,1.4,6.4,2.1,10,0.5c2.5-1.1,5.5-1.5,8.3-0.5c0.2,0.2,0.4,0.4,0.5,0.6v0.2l0-0.1l-0.1,0
			c0.5,0.8,1.2,1.5,1.6,2.4c1.6,3.8,4.4,5.8,8.3,6.3c1.2,3.1,3.8,4.3,6.9,4.4c4.5,0.2,9,0.4,13.5,0.2c7-0.4,13.3,2.1,19.6,4.3
			c-2,5.5-4.6,10.6-7,15.9c-1.8,0.2-1.2,1.5-1.1,2.5v0.2c-1.7,0.3-1.1,1.5-1.1,2.5l0,0.2c-1.8,0.3-1,1.7-1.1,2.7l0,0
			c-0.3,0.1-0.7,0.1-0.7,0.2c-1.6,5.1-4.6,9.9-4,15.6c0,0.2,0,0.5,0,0.7c-2,0.4-1.2,2-1.1,3c0.3,3.3-0.2,6.2-3.2,8.2
			c-0.9,0.5-1.6,1.2-2.1,2.1c-0.5,0.7-1.1,1.4-1.6,2.1c-0.8,0-1.3,0.4-1.6,1.1c-0.7,0.8-1.5,1.5-1.6,2.7c-0.9,0-1.7,0.1-2.1,1.1
			c-2.4,1.5-3.6,4.1-5.8,5.8c-0.9,0.7-2,2,0.1,3c0.5,0.2,0.4,1.1,0.2,1.7c-0.8,3-0.3,6.1-0.3,9.2h0c-1.2-0.1-1.2,0.7-1.1,1.6
			c-2.1,0.4-2.3,2.1-2.7,3.7l0,0c-1.2,0-1.2,0.8-1,1.7l0,0c-1.3-0.1-1.2,0.8-1.1,1.7c-0.1,0.1-0.2,0.3-0.3,0.4
			c-1.2-0.1-1.4,0.6-1.3,1.6l0,0c-0.5,0.2-0.6,0.6-0.5,1.1c-1.6,0-1.8,0.9-1.5,2.2h0c-1.6,0.3-2.5,1-2,2.8c0-0.1-0.1-0.1-0.1-0.2
			c0,0.1,0.1,0.1,0.1,0.2c-2,0.4-2.5,1.8-2.4,3.6c-0.2,0.2-0.3,0.3-0.5,0.5c-1.2,0.1-1.2,0.8-1,1.7l0,0c-1.2-0.1-1.2,0.7-1.2,1.5
			l0,0c-1.1,0-1.1,0.8-1.1,1.6l0,0c-1.2,0.1-1.1,0.8-1,1.7l0,0c-1.3-0.1-1.2,0.7-1.1,1.6c0,0,0,0,0,0c-1.3-0.1-1.2,0.8-1.1,1.6l0,0
			c-0.4,0.1-0.5,0.3-0.4,0.7v0.1c-1.2,0-0.8,0.8-0.7,1.4l0,0c-0.6,0.1-0.7,0.6-0.6,1.1l0-0.1c-2,2.3-2.9,4.9-2.8,8
			c0,0.4,0,0.7-0.1,1c-0.1,0.3-0.4,0.6-0.4,0.9c0.1,0.9,0.8,1.7,1.5,1.6c2.1-0.3,4.6,1.6,6.4-1.1c0.5-0.1,1-0.1,1.6-0.2
			c0.2,0.7,0.2,1.3-0.1,1.9c-0.1,0.2-0.2,0.4-0.3,0.7c-0.6,1.7,0.3,1.8,1.7,1.9c3.8,0.3,7.4-1,11.2-1.3c0.8,0.5,0.7,1.3,0.9,2.1
			c0.4,1.5,0.4,3.3,2.1,4.1l0,0c0,0.5,0.1,1,0.7,1l-0.1,0.1l0-0.1c-0.1,0.6-0.2,1,0.6,0.9l0,0.1c-0.6,1.3,0.2,1.7,1.3,1.8
			c0.1,0.8-0.5,2.2,1.3,2l0,0.1c0,0,0-0.1,0-0.1c-0.2,1.1-0.2,2-1.8,2.5c-2.4,0.7-3.8,3.5-3.6,6c-1.1-0.1-2.5-0.8-2.8,1.2l3.9,3.7
			c0.6,0.2,0.2,0.9,0.4,1.4c0.3,1.4,0.3,3.1,2.3,3.4c0.1,0.1,0.3,0.3,0.4,0.4c0.3,2,1.2,3.4,3.3,3.8l0,0c0,0.9-0.3,1.9,1.2,1.3
			l0.1,0.1c-0.7,1.4-0.1,1.9,1.3,1.8l0,0c-0.1,0.9-0.1,1.7,1.1,1.6l0,0c-0.1,0.9-0.2,1.7,1,1.7l0,0c0.1,0.9-0.5,2.2,1.2,2.1h0
			c-0.2,2.4-0.3,4.8,0.1,7.3l0,0c-1.7,0.2-3.1,0.9-3.8,2.6l0,0c-3.1-0.4-5.5,1.1-7.9,2.6c-0.8,0.5-2.4,0.5-2.1,2.2l-0.2,0l0.2,0
			c-1.4-0.4-1.3,0.8-1.5,1.5c-0.3,1,0.1,1.8,1.3,2.1l0,0c0,3.2,1.9,5.2,4.4,6.8c0.1,0.1,0.3,0.3,0.4,0.4c0.3,2.2,3.3,3.9,5.8,3.4
			c1.3,1.2,1.1,2.7,1.1,4.2l0,0.1c-1.9,1-0.7,2.7-0.9,4c-0.2,3-0.7,5.9-0.8,8.9c-0.3,4.8,1.7,7.9,6.1,9.5c0.7,0.3,1.4,0.7,2.1,1
			c0.8,1.5,2.2,2.2,3.6,2.9c4.8,2.5,10.1,3.3,15.2,4.7c-2,8.1-6.7,14.6-13,19.8c-5.3,4.4-10.3,9.2-16.1,13c-2.4,1.6-4.2,3.5-3.2,6.8
			c0.4,1.4-0.5,2.3-2,2.6c-5.7,0.9-11.1,3-16.3,5.5c-4.5,2.2-8.6,1.4-12.1-2.3c-1.5-1.6-3.4-2.4-5.5-2.1c-3,0.4-5.1-0.9-7.1-2.8
			c-3.1-2.9-6.3-5.6-11-4.3c-0.8,0.2-1.3-0.5-1.7-1.1c-1.5-1.9-3.6-2.5-5.7-1.8c-6.2,2.1-11.9,0.8-17.6-2c-4.3-2.1-9.1-2.7-14-2.1
			c-5.9,0.7-10.5,3.6-14.1,8.1c-1.1,1.3-2.3,2.1-3.8,2.6c-10.5,3.6-15.8,11.7-18.3,22c-0.6,2.2,0.3,4.4,1.1,6.4
			c1.4,3.3,3.1,6.6,3.6,10.3c0.1,0.9,0.5,2.1-0.3,2.7c-0.8,0.6-1.6-0.3-2.4-0.7c-3.4-1.5-4.4-1.4-7.2,1.4c-0.8,0.8-1.7,0.9-2.7,1
			c-6.4,0.6-12.8,1.5-19.3,1.6c-0.6-1.1-1.4-0.2-2.1-0.2c-4.1,0.4-6.6-2.3-6-6.3L218.4,415.2z"/>
		<path class="st3" d="M214.7,428.1c1.8-0.8,1.5-3.4,3.4-4.2c2.7-1.3,4.8-3.3,6.2-6c0.6-1.1,2.6-0.7,2.9-2.6
			c0.1-0.6,1.1-0.2,1.6,0.3c0.6,0.7,0.7,3.9,0.4,4.9c-0.3,1.1-0.5,1.7-2,1.5c-2-0.3,0,1.7-1,2.3c-1.3-1-2.7-2.1-3.3,0.8
			c-0.3,1.2-2.1,1.8-2.3,3.4c-0.7,4.3,2,7.1,6.4,6.7c0.7-0.1,1.6-0.9,2.3,0.2c6.9-0.2,13.7-1,20.5-1.7c1-0.1,2-0.2,2.9-1
			c3-2.9,4-3.1,7.6-1.4c0.8,0.4,1.7,1.3,2.6,0.7c0.9-0.7,0.5-1.9,0.4-2.9c-0.5-3.9-2.3-7.4-3.8-10.9c-0.9-2.2-1.8-4.5-1.2-6.8
			c2.7-10.9,8.3-19.6,19.5-23.4c1.7-0.6,2.9-1.4,4.1-2.8c3.8-4.9,8.8-7.9,15-8.6c5.2-0.6,10.3,0.1,14.9,2.3c6.1,3,12.1,4.3,18.7,2.1
			c2.3-0.8,4.5-0.1,6.1,1.9c0.5,0.6,1,1.4,1.8,1.1c5.1-1.4,8.4,1.5,11.7,4.6c2.1,2,4.4,3.4,7.6,2.9c2.2-0.3,4.3,0.6,5.9,2.2
			c3.7,4,8.1,4.8,12.8,2.5c5.5-2.7,11.2-4.9,17.3-5.8c1.6-0.2,2.6-1.2,2.1-2.7c-1.1-3.6,0.9-5.5,3.4-7.3c6.1-4.1,11.5-9.2,17.2-13.8
			c6.8-5.6,11.7-12.4,13.9-21.1c-5.5-1.5-11.1-2.4-16.2-5c-1.5-0.8-3-1.5-3.8-3.1c-0.7-0.4-1.4-0.8-2.2-1.1c-4.8-1.7-6.8-5-6.5-10.1
			c0.2-3.2,0.7-6.3,0.9-9.5c0.3-1.4-1.1-3.3,1-4.3l0-0.1c0.1-1.6,0.2-3.2-1.1-4.4c-2.6,0.6-5.8-1.3-6.1-3.6
			c-0.1-0.1-0.3-0.3-0.4-0.4c-2.7-1.7-4.7-3.8-4.7-7.3l0,0c-1.2-0.3-1.6-1.1-1.4-2.2c0.2-0.7,0.2-2,1.6-1.6l-0.2,0l0.2,0
			c-0.4-1.8,1.4-1.8,2.2-2.4c2.6-1.6,5.2-3.2,8.4-2.8c0,0,0,0,0,0c0.7-1.8,2.1-2.6,4-2.8l0,0c-0.4-2.6-0.3-5.2-0.1-7.7h0
			c-1.8,0.1-1.2-1.3-1.3-2.2c0,0,0,0,0,0c-1.3,0-1.3-0.8-1.1-1.8l0,0c-1.3,0.1-1.3-0.8-1.2-1.7l0,0c-1.5,0.1-2.1-0.4-1.4-1.9
			l-0.1-0.1c-1.6,0.6-1.4-0.5-1.3-1.4l0,0c-2.2-0.4-3.2-1.9-3.5-4c-0.1-0.2-0.3-0.3-0.4-0.5c-2.1-0.3-2.1-2.1-2.4-3.6
			c-0.1-0.5,0.2-1.3-0.4-1.5c-0.7-0.2-1.3,0.2-1.6,0.8c-1.1,2.1-2.6,2.6-4.6,1.3c-0.3-0.2-0.7-0.4-1,0c-0.4,0.4-0.2,0.9,0.1,1.3
			c1.1,1.6,1.3,2.8-1.2,2.8c-1.4,0-1.4,1-1.4,2c0,1.4-0.7,1.7-1.8,0.9c-2.1-1.4-2.2-0.1-2,1.5c0.1,0.7,0.7,1.5-0.2,2
			c-1,0.6-1.5-0.5-2.1-1c-2.7-2.5-2.7-2.5-0.1-5.1c1.4-1.4,2.8-2.8,4.2-4.2c0.7-0.7,1.4-1.2,2.4-1.2c1,0,2,0.1,1.4-1.5
			c-0.4-1,0.3-1.6,1-2.1c0.9-0.6,1.3,0.3,1.9,0.7c0.7,0.5,1,1.6,2.4,1.4c-0.1-1.4-1.8-2.1-1.5-3.7c0.4-2.1,1.8-1.4,3-1.3
			c-0.2-2.7,1.3-5.6,3.8-6.4c1.7-0.5,1.6-1.5,1.9-2.6l0,0.1l0-0.2c-1.8,0.2-1.2-1.2-1.3-2.1v0c-1.2-0.2-1.9-0.6-1.3-1.9
			c0,0,0-0.1,0-0.1c-0.9,0.1-0.8-0.4-0.7-1l0,0.2l0.1-0.1c-0.7,0-0.8-0.5-0.8-1l0,0c-1.8-0.9-1.9-2.7-2.3-4.3
			c-0.2-0.8-0.2-1.7-1-2.2c-4,0.4-7.8,1.8-11.9,1.4c-1.5-0.1-2.5-0.2-1.8-2.1c0.1-0.2,0.2-0.5,0.4-0.7c0.3-0.7,0.3-1.4,0.1-2.1
			c-0.6,0.1-1.1,0.1-1.7,0.2c-1.8,2.8-4.5,0.8-6.8,1.1c-0.8,0.1-1.5-0.8-1.6-1.7c0-0.3,0.3-0.6,0.4-1c0-0.4,0-0.7,0.1-1.1
			c-0.1-3.2,0.8-6,3-8.5l0,0.1c-0.1-0.6,0-1,0.6-1.1l0,0c-0.1-0.7-0.5-1.5,0.8-1.5v-0.1c-0.2-0.4,0-0.6,0.4-0.7l0,0
			c-0.2-0.9-0.2-1.8,1.1-1.7l0,0c-0.1-0.9-0.2-1.8,1.2-1.7l0,0c-0.2-0.9-0.2-1.7,1.1-1.8l0,0c0-0.9-0.1-1.7,1.2-1.7l0,0
			c0-0.9-0.1-1.8,1.3-1.6l0,0c-0.2-0.9-0.2-1.8,1.1-1.8c0.2-0.2,0.3-0.3,0.5-0.5c-0.1-1.9,0.4-3.4,2.5-3.8c0-0.1-0.1-0.1-0.1-0.2
			c0,0.1,0.1,0.1,0.1,0.2c-0.5-1.9,0.5-2.7,2.1-2.9h0c-0.3-1.3,0-2.3,1.6-2.3c-0.1-0.5,0-0.9,0.6-1.2l0,0c-0.1-1,0.1-1.8,1.4-1.7
			c0.1-0.2,0.2-0.3,0.3-0.4c-0.1-0.9-0.2-1.9,1.2-1.8l0,0c-0.1-0.9-0.2-1.7,1.1-1.8l0,0c0.5-1.7,0.6-3.6,2.9-4
			c-0.1-0.9-0.1-1.8,1.2-1.7h0c0-3.3-0.5-6.5,0.4-9.8c0.2-0.6,0.4-1.6-0.2-1.8c-2.3-1-1.1-2.4-0.1-3.2c2.3-1.9,3.6-4.7,6.1-6.2
			c0.4-1.1,1.3-1.2,2.3-1.1c0.1-1.2,0.9-2,1.7-2.8c0.3-0.8,0.9-1.1,1.7-1.1c0.6-0.8,1.1-1.5,1.7-2.3c0.5-1,1.3-1.7,2.3-2.3
			c3.2-2.1,3.7-5.2,3.5-8.7c-0.1-1.1-0.9-2.8,1.2-3.2c0-0.2,0-0.5,0-0.7c-0.7-6.1,2.5-11.1,4.2-16.6c0-0.1,0.5-0.1,0.8-0.2l0,0
			c0.1-1.1-0.8-2.6,1.2-2.9l0-0.2c0-1-0.7-2.4,1.1-2.6l0-0.2c0-1.1-0.6-2.4,1.2-2.6c2.5-5.6,5.3-11.2,7.5-17
			c-6.8-2.4-13.5-5-20.9-4.6c-4.8,0.3-9.6,0-14.3-0.2c-3.3-0.1-6-1.4-7.3-4.7c-4.2-0.6-7.2-2.7-8.9-6.8c-0.4-0.9-1.1-1.7-1.7-2.6
			l-0.1,0l0,0.1v-0.2c-0.2-0.2-0.4-0.4-0.6-0.7c-3-1.1-6.2-0.6-8.8,0.6c-3.8,1.6-7.3,0.9-10.6-0.6c-5.7-2.5-11.5-4.9-16.8-8.4
			c-0.7,0.1-1.6,0.4-2.2,0.1c-1.7-0.8-3-1.2-4,1c-0.6,1.3-2.1,1.9-1.8,4.1c0.2,1.5-2.3,2.7-3.4,4.3c-1.5,2-3.4,3.7-5.2,5.5
			c-0.4,0.4-0.9,1-1.3,1c-2,0.1-3.7,0-3,2.9c0.2,0.9-0.9,1.3-1.9,1c-1.6-0.6-2.1-0.1-1.6,1.5c0.3,0.9-0.4,1.5-1.2,1.4
			c-1.7-0.3-2.2-1.9-3.1-3.1c-0.9-1.2,0.1-1.8,0.8-2.3c2.8-2.1,4.1-6,8.2-6.5c0.2,0,0.4-0.2,0.4-0.3c-0.8-2.9,2.5-3.2,3.3-5
			c0.2-0.4,0.5-0.9,0.9-1c3.3-1,3.6-4.8,6.2-6.5c1.1-0.7,1.4-1.9,1.3-3.2l-0.2-0.1c-0.2-0.1-0.4-0.3-0.6-0.4
			c-2.8,0.1-4.8-1.2-5.9-3.8c-0.4-0.4-0.8-0.5-1.3-0.4c-0.6,0.6-1.2,0.7-1.7-0.2c-0.1-0.4-0.3-0.7-0.8-0.6c-0.6,0.1-1.2,0.1-1.4-0.6
			l0.1,0c-0.4,0-0.6-0.2-0.7-0.5l0,0c-0.6,0-1.1,0-1-0.8l0.1,0.1l0-0.2c-1.7,0.5-1.3-0.7-1.4-1.6c-0.1-0.2-0.2-0.5-0.3-0.7
			c-3,2-9.1,2-11.9,0c-1-0.7-1-1.9-1.2-3c-1.9-0.4-3.8-0.9-5.7-1.3c-3.2-0.3-3.2-0.4-2.9-5.1l0.1,0c-2.5-1-0.9-3-1.2-4.6l0.1,0
			c-1.4,0.1-1.3-0.8-1.2-1.7l0,0c-1.3,0.2-1.3-0.7-1.3-1.6c-1.4-0.1-2.8-0.8-4.1,0.8c-0.7,0.8-1.5,0-2.2-0.4
			c-0.5-0.3-0.9-0.2-1.2,0.2c-0.3,0.5-0.3,0.9,0.3,1.1c1.2,0.4,0.7,1,0.2,1.7c-0.5,0.7-0.9,1.5-2,0.9c-0.5-0.3-0.9-1-1.4-0.5
			c-0.7,0.6-0.1,1.2,0.3,1.7c0.9,1.4-0.5,1.2-1.1,1.6c-1.2,0.6-3.1,0.3-2.6,2.8c0.2,0.7-0.9,1-1.7,0.8c-1.8-0.4-2.9,0.1-1.9,2.2
			c0.2,0.4,0.5,0.9-0.1,1.2c-0.4,0.1-1.1,0.1-1.3-0.1c-0.8-0.9-1.8-1.6-2.7-2.4c-1.2-1.2-0.1-2.2,0.8-2.7c1.4-0.8,2.2-2.1,3.3-3.3
			c2.3-2.6,5-4.9,7.5-7.2c1.2-1.1,2-2.2,2-3.8c-0.2-1.3-2.3-0.7-2.2-2.3v0c-0.7,0.1-1.4,0.2-1.6-0.7c-2.6-1.7-5.1-3.5-7.8-5
			c-3.8-2.2-7.4-4.5-10.1-8c-1.1,0.2-2.2,0.3-3.3,0.5c-3.4,0.4-5.3-1.6-6.7-4.4c-1.9-0.2-3.7-0.7-5.4-1.7c-1.3,0.2-2-0.3-1.8-1.7
			l0,0C245,6.5,244.9,6,245,5.5l0,0c-0.8,0.1-1.2-0.4-1.3-1.1c-0.4-3.5-2.9-2.3-4.8-2.1c-0.9,0.1-1.3,0.7-1.2,1.6
			c0,0.6,0.8,1.3-0.3,1.6c-0.7,0.2-1.2-0.4-1.6-0.9c-0.5-0.7-1.1-1.6-2-1.1c-1.1,0.6,0.6,1.2,0.2,1.9c-0.7,1.1,1.2,2.7-0.3,3.3
			c-1.1,0.4-1.7-1.3-2.6-1.9c-1.7-1.2-1.3-2.4,0.1-3.6c0.8-0.7,2.1-1.1,1.9-2.6c-1-0.2-2,0-2.8,0.5c-0.4,1.5-1.2,1.3-2.2,0.6
			c-0.6-0.1-1.2,0.1-1.7,0.4c-0.1,1.4-1.1,1.2-2,1c-5.8,2.4-6.8,7.7-7.1,13c-0.4,6.3-0.5,12.6-1.2,18.9c-1.3,10.9-7.1,18-17.8,20.7
			c-5.6,1.5-11.4,2.5-16.8,4.6c-6.6,2.6-11.9,6.7-15.2,13.2c-1.2,2.4-0.9,5-0.6,7.5c0.3,2.3-0.5,3.2-2.8,3.9c-7,2.3-13.7,0.4-20.5-1
			c-3.9-0.8-7.6-1.9-11.3-3.4c-1.6-0.6-2.8-1.6-3.4-3.2c-4.4-1.5-8.2-3.5-10-8.2c-0.6-1.4-1.3-2.9-2.5-4c-3.2,2.4-6.3,0.3-9.4-0.2
			c-1.6-0.3-3.6-1.8-4.7-0.6c-1,1.1,0.4,3.1,0.9,4.7c2.2,7.1,4.1,14.2,5.5,21.5c1.6,8.2,2.8,16.5,2.4,24.9c-0.1,2.2-0.5,3.2-2.9,2.5
			c-2.5-0.7-5.1-1-7.5-2.3c-1.4-0.8-3-0.3-4.4,0c-6.3,1.4-12.6,2.8-18.9,4.2c-4.6,1.1-7.3-0.1-9.9-4.3c-4.2-0.3-6.7-2.9-8.7-6.2
			c-1.3-2.1-2.6-4.1-4-6.1c-4.9,0.1-8.9,1.7-11.4,6.3c-0.8,1.5-2.5,1.9-4.1,2c-7.4,0.6-14.8,1.1-22.1,1.7c0,1.5,0,2.7-2.1,1.9
			c-1.9-0.7-4.1,0.6-5.9-0.9c-0.9,0.1-1.9,0.1-2.8,0.1c0.1,2.4-1.4,2-2.9,1.7c-0.8,0.3-1.3,0.9-1.7,1.6c0,5.9,0.1,11.9,0,17.8
			c0,1.7,0.1,3.4,0.5,5l0,0c1.3-0.1,2.3,0.1,2.2,1.8l0,0c1-0.1,1.9-0.2,1.6,1.3 M214.7,428.1l0.2-0.1 M214.7,428.1
			c0.1-1-0.2-1.4-1.2-1l0.2-0.1l-0.2,0.1c0.4-1.5-0.6-1.4-1.5-1.3l0,0c-0.4-2.2-1.7-3.2-4-2.8l0,0c0-1.4-0.8-1.3-1.8-1.1v0
			c-0.9-2.2-2.6-2.6-4.7-2.4l-0.2,0c-0.4-2-1.9-1.1-2.9-1.1l0,0c-0.4-1.3-1.5-1.5-2.6-1.8c-1.9-0.5-3.8-0.9-5.6-1.5
			c-3.5-1.1-7-2.4-10.7-1.8l-0.1,0.1l-0.1-0.1c0-1.2-0.8-1.3-1.7-1.3c-1.4,0-2.8,0.1-4.2,0.1l-0.1,0.1l-0.1-0.1
			c-0.1-0.3-0.3-0.9-0.4-0.9c-0.7-0.1-0.6,0.5-0.7,0.9c-1.4,0.9-1.3,2.4-1.5,3.8c-0.5,2.9-1.7,3.8-4.4,3.4
			c-13.2-2-26.3-4.5-39.2-7.8c-3.7-0.9-7-3-10.6-4.5c-5.1-2.2-10.2-4.4-15.2-6.6c1.1-4-0.5-6.4-4.3-7.6c0.6-3.5-0.8-6-4-7.5
			c0.5-1.2,1.5-1.9,2.2-2.9c1.9-2.4,4.3-4.5,5.2-7.6c1.7-5.9,2.5-11.9,3.8-17.9c2.7-12.3,5.1-24.7,6.4-37.2c1-9.9,3.7-19.4,5.8-29
			c1.5-7.2,1.5-14.2-2.1-20.9c-0.6-1.1-1-2.2-0.4-3.5c1.3,0,2.3-0.2,2.2-1.8v0c0.9,0.1,1.8,0.1,1.6-1.3l0.1,0.2l-0.1-0.2
			c0.3,0,0.8,0.1,1-0.1c0.3-0.3,0-0.6-0.3-0.8c0.2-0.4,0.3-0.8,0.5-1.1c0.7-0.1,1.6,0,0.6-1.1c0.1-0.9,0.3-1.9,0.4-2.8
			c1-0.6,1-1.1,0-1.8c-0.5-1.7-0.4-3.4-0.4-5.1c0.8-1.6,1.3-3.1-0.9-4c-0.3-1.1-0.3-2.3-0.1-3.4c0.1-0.3,0.2-0.6,0.2-0.9
			c0-0.3,0.1-0.6,0.1-0.8c0.3-0.2,0.8-0.3,0.9-0.5c0.1-0.6-0.5-0.6-0.9-0.6l-0.5-0.5c-0.1-0.7,0-1.6-1.1-0.6c-0.8,0-1.6,0-2.3-0.5
			c0.1-1.4,0.2-2.7,0.4-4.1c0.2-1.8-0.2-3.7-2.8-3.2v0c-0.7-2.7-2.8-0.8-4.1-1.3h-0.2c-1.1-1.9-2.9-2.2-4.9-2.3l-0.1,0l-0.1-0.1
			c-0.2-0.1-0.5-0.3-0.7-0.4v0c0.3-1.1-0.8-1.4-1.3-1.9c-1.1-1.1-1-2.5-0.7-3.7c0.3-1.3,1.4-0.4,2.1-0.3c0.9,0.1,1.1-0.5,1.1-1.2
			c0-0.9,0.3-2,1.2-1.9c2.9,0.2,2.3-1.4,1.4-3.5c2.9,1.8,4.4,0.8,5.3-1.6c0.3-0.8,1.1-0.9,1.6-1.4c1.5-1.5,3.4-2.6,3.5-5.2
			c0.1-2.3,3-4.7,5.4-4.5c1.7,0.1,2.9-1.1,2.8-2.4c-0.1-1.5,0.1-2,1.6-2c0.6,0,1.2-0.3,1.1-1c-0.1-0.8-0.8-0.7-1.3-0.6
			c-1.4,0.1-1.8-0.6-1.8-1.9c0-0.5,0-1.3-0.8-1.2c-0.6,0.1-0.8,0.7-0.9,1.3c-0.1,0.6,0.1,1.6-0.7,1.7c-3.7,0.2-4.6,4-7.2,5.7
			c-2.6,1.8-4.3,4.7-6.7,6.9c-1.5,1.4-2.6,3.3-4.1,4.3c-2.1,1.4-3.7,3-5.2,5c-2,2.6-3.2,2.9-6.1,1.6c-0.3-0.1-0.7-0.1-1.1-0.1
			c0-0.8-0.4-1.1-1.2-1.1l0,0c-0.1-1.6-0.7-2.7-2.5-2.6c0.1,0,0.1-0.1,0.2-0.1c-0.1,0-0.1,0.1-0.2,0.1c0.5-1.3-0.4-1.4-1.3-1.4
			l-0.2-0.1v-0.2c-0.1-0.4-0.3-0.7-0.7-0.8c-0.4-0.5-0.9-0.9-1.3-1.4c0.3-0.1,0.5-0.2,0.8-0.3c1.1-1.3,1-2.7,0.1-4
			c0-0.5,0.1-0.9,0.5-1.2c1.3-0.4,2.5-1,1.8-2.8c0.1-1.1,0.1-2.3,0.2-3.4c0.4-0.4,0.4-0.8-0.1-1.1l-0.2-1.1c1-1.2,0-1.5-0.9-1.7
			c-0.3-0.7-0.6-1.3-0.8-2c0-0.4-0.2-0.7-0.6-0.8c-0.6-0.3-1-0.7-1.1-1.4c-0.4-1.1-0.5-2.4-1.2-3.3c-0.7-0.9-0.3-2.8-2.3-2.5
			c0,0,0,0,0,0c0.3-0.9,0-1.3-1-1.3l0,0c0.2-1.8-0.6-2.5-2.3-2.3c-0.2-0.1-0.4-0.3-0.5-0.4c-0.1-0.6-0.6-0.7-1.1-0.7l0,0
			c-0.1-1.5-1.4-1.5-2.4-1.8c-0.1-0.2,0-0.3,0.1-0.5c1.7-1.4,1.7-2,0-2.7l0,0c0.1-1.1-0.5-1.3-1.4-1c-0.6,0-1.3-0.1-1.9-0.1
			c-0.6-1.4-0.3-3.8,0.4-4c3.4-0.8,4.6-2.9,5.4-5.9c0.6-2.2,2.6-3.7,4.8-4.1c0.1,0,0.2-0.1,0.2-0.1c-0.6-2.8,1.9-1.1,2.7-1.8
			c0.7-0.7,0.1-2.2,1.6-2.4c1.6-0.2,1-1.1,0.3-1.7c-0.8-0.7-1.7-1.2-2.2-2.1c-0.4-0.7-0.8-0.4-1.4,0.1c-2.7,2.2-4.3,5.6-7.5,7.3
			c-1.5,0.8-2.8,2.4-2.4,4.4c0.4,2-0.1,1.9-1.4,0.9c-0.3-0.2-0.8-0.4-1-0.2c-2,1.7-4.4,0.5-6.5,1l-0.2,0.1l-0.1-0.1
			c-0.2-0.3-0.3-0.9-0.5-0.9c-3.1,0.1-5.9-0.9-8.8-1.7l-0.1-0.1c0-2.2-1.8-2.1-3.2-2.4l0,0c0-0.9-0.4-1.3-1.3-0.9l0.1-0.2
			c0,0-0.1,0.2-0.1,0.2c0.4-1.6-0.6-1.4-1.6-1.3c0,0,0,0,0,0c0.2-1.4-0.7-1.3-1.7-1.2l0,0c0-1.3-0.8-1.3-1.7-1.2l0,0
			c-0.2-1.8-1.5-1.8-2.9-1.7l0,0c-2.7-3.5-7-3.5-10.8-4.6l0,0c-0.3-2.1-1.8-2.3-3.5-2.2l0.1,0c-0.1-0.6-0.6-0.7-1.1-0.7l0,0
			c-0.3-2.4-1.6-3.1-3.7-2.2l-0.2,0c-0.3-2.1-2.5-0.8-3.4-1.8c0-0.5,0-0.9,0-1.4c-0.1-1.8-0.2-3.5,2.5-2.6c0.6,0.2,1.3,0,1.2-1
			c-0.3-1.8,0.6-2.3,2.2-2.3c1.2,0,1.9-0.5,0.7-1.6c-0.4-0.4-1.1-0.6-0.7-1.3c0.4-0.8,1.1-0.4,1.7-0.1c2.3,1.1,3.4,0.1,3.4-2.2
			c0-1.3,0.9-0.9,1.5-1.1c2.1-0.7,4.2-2.3,4.1-4.1c-0.2-2.9,2.3-3.9,3-6c0.1-0.4,0.7-0.6,1.2-0.2c1.8,1.6,3.4-0.4,3.6-1.1
			c0.5-1.9,1.9-2.8,3.2-3.9c-1.2-1-3-0.7-3.5-2.4c-0.1-0.4-0.9-0.4-0.9-0.2c-0.3,1.5-1.9,1.4-2.5,2.1c-3.9,4.8-9.1,8.2-13.2,12.8
			c-1.2,1.3-1.8,3.2-3.3,4c-2.7,1.6-4.4,4-6.5,6.1c-2,2.1-2.9,3.6,0,5.4c-0.7,0.8-1.7,0.3-2.1,1.1c-2.1,0.6-4.1,1.1-6.2,1.7
			c-0.6-1.3-1.5-2.3-3.1-2 M4.8,143.6c0.1-0.1,0.1-0.1,0.2-0.2"/>
	</g>
</g>
	<ellipse class="st4" cx="303" cy="342.9" rx="10" ry="10" idd="ales_pole_mecanique" id="piste_9"/>
	<ellipse class="st4" cx="350.1" cy="200.2" rx="10" ry="10" idd="circuit_de_lenclos" id="piste_3"/>
	<ellipse class="st4" cx="210.1" cy="320.2" rx="10" ry="10" idd="karthors" id="piste_6"/>
	<ellipse class="st4" cx="283.6" cy="82.2" rx="10" ry="10" idd="jpr" id="piste_5"/>
	<ellipse class="st4" cx="340.1" cy="273.2" rx="10" ry="10" idd="onlykart" id="piste_8"/>
	<ellipse class="st4" cx="222.2" cy="86.6" rx="10" ry="10" idd="europe" id="piste_4"/>
	<ellipse class="st4" cx="246.1" cy="123.6" rx="10" ry="10" idd="rkc" id="piste_10"/>
	<ellipse class="st4" cx="366.1" cy="363.6" rx="10" ry="10" idd="brignoles" id="piste_1"/>
	<ellipse class="st4" cx="100" cy="165.5" rx="10" ry="10" idd="solo_kart" id="piste_11"/>
	<ellipse class="st4" cx="370" cy="310.5" rx="10" ry="10" idd="crolles" id="piste_2"/>
	<ellipse class="st4" cx="125" cy="355.5" rx="10" ry="10" idd="magesq" id="piste_7"/>
</svg>
