<?xml version="1.0" encoding="UTF-8"?>
<svg xmlns="http://www.w3.org/2000/svg" version="1.1" viewBox="0 0 555 495" style="enable-background:new 0 0 431 436;width:73vw;max-width:400px">
  <defs>
    <style>
      .cls-1 {
      fill: #3f5be4;
      transition: fill 0.3s;
      cursor:pointer;
      border: 1px solid #6c8da9;
      }
      .cls-1:hover {
      fill: #6c8da9;
      }

      .cls-2 {
      display: none;
      stroke: #000;
      }

      .cls-2, .cls-3 {
      stroke-miterlimit: 10;
      }

      .cls-3 {
      fill: none;
      stroke: #fff;
      stroke-width: .5px;
      }

      .cls-4 {
      fill: #fff;
      }

      .cls-5 {
      fill: #e45;
      }
    </style>
  </defs>
  <!-- Generator: Adobe Illustrator 28.7.1, SVG Export Plug-In . SVG Version: 1.2.0 Build 142)  -->
  <g>
    <g id="Calque_1">
      <path id="bg" class="cls-2" d="M-99-92v625h629V-92H-99Z"/>
      <path id="suisse-line" class="cls-3" d="M456.4,120.2c1.2-.2,2.2,0,2.5,1.5,0,.5.6.9,1,1.3.2-.5.5-.9.7-1.4,0-.2,0-.4.1-.6.2,0,.3,0,.5-.1.3.8.7,1.7,1,2.7.6-.2,1.3-.5,1.7-.7.4,1.7.3,3.5,1.2,4.6.7.9,2.5,1.4,3.8,1.4,1,0,.6-1.9-.9-2.9q.4-.5,3.5.5c.1.5.1,1.2.4,1.7,1.4,2.7,2.6,3.2,5.3,1.5,2.6-1.6,5.2-2.4,8.2-1.5,1.7.5,3.5.6,5.3.9.2,0,.4,0,.5,0,4.5-1.1,7.9,2,11.7,3.3,1.3.4,2.5,1.4,3.7,2.1,1.8,1,3.4,2.1,4.3,4.3.6,1.5,1.8,3.3,4,3.4,1.2,0,1.7.7,1.7,2.1,0,1.3.5,2.6.8,4.1-2.3.3-2.7,2.4-3.3,4.5-.4,1.3-1.5,2.4-2,3.7-.9,2.3-1.8,4.6-2.2,6.9-.2,1.3.4,2.8.8,4.2.3,1.2,1,2.3,1.1,3.5,0,.7-.7,1.4-1.1,2.1-.3.6-.5,1.2-.8,1.8.7,0,1.3,0,2,0,.7,0,1.4,0,2.1,0,1.6-.1,3.1-.4,4.7-.5.9,0,1.8,0,2.7,0,1.1.1,2.1.3,3.2.5,1.3.3,2.7.5,3.8,1.1,1.1.6,2,1,3-.1,1,1.1,1.3,2.1.7,3.5-.5,1.4.4,3.1,1.9,3.7,2,.8,4.1,1.4,6.2,2.1.4.1,1,.2,1.2.5.9,1.6,2.7,2.1,4.2,2.6,1.1.4,2.6-.3,3.9-.6,0,0,.2-.2.3-.2,1.9-1.1,4.2-1.8,3.6-4.9-.1-.7.5-1.2,1.5-1,1.3.2,1.7-.5,2.3-1.7.7-1.4.3-3.5,2.3-4.4,1.4-.7,2.1,0,2.8,1,.4.5.9,1,1.5,1.3.6.4,1.4.5,2,.9.3.2.4,1,.4,1.4-.2,1.1-.9,2.3-.7,3.2.6,2.7-.1,5.1-1.3,7.5-.2.3,0,1,.2,1.2,1.1,1.2.6,2-.4,2.8-.3.3-.6.7-.9,1,.3.5.5.9.9,1.5-1.8,1.5-1.9,3.4-.6,5.2.4.5,1.2,1.1,1.8,1,3.6-.3,4.2,1.8,3.6,4.2-.2.8-.5,1.6-.6,2.2-2.4.2-4.7.5-7,.7-.5,0-1.1,0-1.4-.4-.8-.9-1.4-1.9-2.8-1.6-.1,0-.4-.5-.5-.9-.3-1.1-.5-2.2-.8-3.3-2.6,1.1-4.7,2-6.9,2.9-.4.2-.9.5-1.1.9-.7,1.5-1.3,3-1.9,4.5-.1.3-.4.6-.4.9,0,2.2.2,4.5.4,6.7.1,1.5,1.3,2.5,3,2.3.6,0,1.2-.5,1.7-.3.7.2,1.3.7,1.8,1.2.1.1-.3,1-.7,1.3-1.9,1.8-2.1,4.2-.4,6.2.6.7,1.3,1.4,1.9,2.2.4.6.9,1.5.8,2.1-.3,1.2-1.1,2-2.6,1.9-.8,0-1.7.3-2.7.5,0,0,0,0,0,0,.4-2.2-.9-3.3-2.6-4.2-1.3-.7-1.7-2.3-1.5-3.6.2-1.5-1.1-1.7-1.6-2.5-.7-1.2-1.3-1.3-2.6-.6-1.5.8-3.2.9-4.9,1.4-.6.2-1.1.7-1.6,1.1-.8.8-1.5,1.2-2.7.7-1.4-.6-2.1-.1-2.2,1.4,0,.5,0,1,0,1.5,0,.4-.3.9-.5,1-2.8.6-5.6,1.4-8.4,0-.6-.3-1.1-1-1.6-1.5-.9-.9-1.7-1.9-2.5-2.8-.1-.1-.4-.2-.4-.3-.2-2.4-2.3-4.4-1.5-7,.1-.4.3-.9.1-1.3-.2-.7-.6-1.4-.9-2.1-.6.5-1.3,1-1.8,1.6-.3.4-.4,1-.8,1.9-.7-.8-1.6-1.4-1.8-2.1-.3-1.2-1-1.3-1.9-1.1-2.6.6-3.7,0-3.9,3.9,0,.3,0,.8-.3.9-1.7,1.3-.8,2.2.3,3.3.3.3.6.8.7,1.3.4,1.3.9,2.7,1,4,0,1.2-.1,2.6-.6,3.7-1.1,3-2.4,6-3.6,9-.2.4-.4.8-.7,1.1-1.5,1.5-3.2,2.8-4.6,4.4-.4.4-.5,1.4-.4,2,.3,1.5.4,2.5-1.4,3.3-2,.8-2.3,2-1.5,4.2.2.4,0,1.2-.3,1.6-.8.9-.8,1.6,0,2.5.4.5.6,1.1.8,1.7.3.9.7,1.5,1.9,1.6,1.7,0,2.1,1.3,1.2,2.8-.6,1.1-.9,2.4-1.3,3.7-.3,1.1-.6,1.1-1.6.5-1.2-.6-2.8-.6-4.3-.9,2-2.2-.4-3.8-1-5.7-.3-.8-.7-1.6-1.1-2.4-.2-.3-.4-.7-.7-.8-1.7-1-3.4-2-4.9-2.9.9-1.7,2.3-3.5,2.6-5.4.1-.9-1.8-2.1-2.8-3.2,0,.2-.1.4-.2.5-1,0-1.9-.1-2.9-.2-.4,0-1-.2-1.3,0-1.7.9-3-.2-4.4-.5-3.4-.7-4.1-4.1-6.3-6-.8-.7-1.5-1.3-2.4-1.8-1.4-.8-2.4-1.7-3.3-3.3-1.1-1.9-.4-3.1-.1-4.9.4-2.8,0-5.8-.4-8.7-.3-1.8-2.1-2.2-4-1.2-1.4.7-2.8,1.5-4.2,2.3-2.2,1.3-2.2,2.3.1,3.8-1.3,1.1-2.5,2.1-3.6,3.2-.6.6-1.2,1.2-1.5,2-.7,1.5-1.7,2.3-3.5,2-1.2-.2-3.9,2.7-3.6,3.8.1.4.6.7.9,1,1.2,1.6,2.6,3,3.3,4.8.4,1,.3,2.6-.9,3.7-1.1,1-2,2-3.6,2.5-1.8.5-2.4,2.5-2,4.3.4,1.8-1.6,4.7-3.4,4.9-3.3.3-4.5,0-5.1,5.9-1.6,0-3.3,1.1-4.9-.3-.3-.3-1.3,0-1.8.3-.8.3-1.2.4-1.5-.5-.6-1.5-3.3-2.9-4.8-2.4-1.2.4-2,.3-3-.5-1.1-.9-1.7-.6-2.2.7-.1.4-.6.8-1.1,1-1.1.5-2.3.7-2.9,2.2-.4,1-1.6,1.8-2.7,2.4-.9.6-2,.6-3.2.4-1.5-.3-3.6-1-4.8,1.1-.3.5-1,.9-1.5.9-1.5.2-2.3.8-2.2,2.6-.9-.5-1.7-1.3-2.4-1.2-.8,0-1.5.8-2.3,1.3-1-1.3-2.2-2.8-3.3-4.2-.3-.5-.5-1.1-.7-1.6-.2-.5-.6-.9-1.1-1.3.3-.9.4-1.7-.8-2.3-2.4-1.2-3.1-4-5.3-5.7-.7.6-1.4,1.2-2.1,1.8.1-1.6.2-3.2.3-4.7.1-1,0-1.6-1.3-1.6-.9,0-1.8-.1-2.7-.2-1.5-.1-2-1.1-1.4-2.4.2-.5.5-1.1.4-1.6-.3-2,.7-3.5,1.8-4.9,1.3-1.7,1.1-2.7-.5-4-1.6-1.3-3-2.6-4.7-4.1.8-.6,1.1-.7,1.2-1,.4-.7.9-1.4,1-2.2,0-.2-1.1-.7-1.7-.9-4-1.4-7.8-.3-11.7.4-.8.1-1.8-.2-2.6,0-.9.2-2.2.6-2.4,1.2-.4,1.3-1.3,1.6-2.2,2.1-1,.6-2,1.1-3.3,1.9-.2-.2-.7-.6-1-1.2-.6-1.1-1.4-1.2-2.4-.8-2.6,1.1-3.2,3.6-3.8,5.9-.3,1.2-.7,2.4.4,3.5.7.6,1.2,1.3,2.2.7.2-.1.6,0,.9,0,0,.4,0,1-.2,1.2-.9.7-1.9,1.4-3,1.9-1.5.7-2.9,1.5-3.3,3.4-.2,1.1-3,2.3-4,1.9-1.4-.5-2.7-1.1-3.9.5-.1.2-.7,0-1.1,0-.8,0-1.5.2-2.6.4.4-1.1.9-2.3,1.3-3.3-.4-.7-1-1.6-.9-1.7.8-.8,1.8-1.6,2.8-2,1.2-.5,2.6-.5,3.9-.8,1-.3,1.6-1,1.2-2.1-.2-.5-.5-1-.7-1.2.2-1.1.2-2.1.6-2.9.6-1.3,1.4-2.4,2-3.7.2-.5,0-1.6-.3-1.8-1.5-1.1-3.1-1.9-4.7-2.8,0-2.7,1-5.2,2.1-7.6.2-.4.6-.8,1-1.1,1.2-1,1.3-1.7.1-2.7-1.8-1.6-1.6-1.7,0-3.3,2.2-2.1,4.2-4.4,6.3-6.6.5-.5,1-.9,1.6-1.2,1.9-1.1,3.8-2.1,5.1-4.1.6-.9,1.8-1.3,2.7-2.1.9-.8,1.1-1.6,0-2.7-.5-.5-.5-1.9-.2-2.6,1.1-2.7,1.6-5.2-1-7.3.8-1.1,1.4-2.1,2.1-3.1.1-.2.4-.4.7-.5,1.1-.3,2.3-.5,3.4-.9,1.2-.4,2.3-.8,3.4-1.3.2,0,.4-.2.5-.4,1.6-1.7,3.2-3.4,4.9-5.2-.2-.2-.6-.5-1.3-1.1.6-.5,1.2-1,1.8-1.5.2-.2.7-.5.7-.7-.2-1.5,1-1.5,1.9-2.1,1.7-1.1,3.6-1.9,4-4.5.2-1.3,1.6-2.5,2.7-3.5,2.3-2,2.6-2.9,1.5-5.8,1.4-.7,3.8-.4,3.6-2.5.9-.9,2.1-1.7,2-2.3-.2-1-1.1-1.8-1.8-2.6-.2-.2-.9-.2-1.3-.1-2.1.6-4.1,1.3-6.4,2,0-.7-.1-1,0-1.1,1.4-1.2,2.5-2.5,3-4.4.2-.7,1.2-1.4,2-1.6,1.8-.4.9-1.4.8-2.3-.1-.7-.6-1.5-.4-1.9.5-.8,1.3-.6,2.2-.2,1.1.5,2.4,1,3.6,0,1.4-1.1,2.6.2,4,.5-.1,1-.3,2.1-.5,3.5.9.1,1.8.2,2.7.3.3,0,.7,0,.8.2.9,1.6,1.8.8,3,.2.9-.5,2.2-.6,3.2-.5,2.5.3,5.2-.9,6.1-3.2.2-.4-.6-1.2-1-1.9,1.2.5,3,1.6,3.6-.4.4-1.2,2.6-2.3.7-4,1.4-1.4,2.1-3.3,4.3-3.7.7-.1,1.2-1.4,1.9-2.1l.6.4c-.2.6-.2,1.3-.6,1.8-1,1.6-.3,3.5,1.6,3.2,2.9-.4,5.8-1,8-3.6.6-.8,2.2-.9,3.3-1,.4,0,1,.9,1.3,1.5.5,1.2,1.6,1.7,2.7,1.1.8-.4,1.7-.5,2.6-.6,1-.2,2-.5,3.1-.6,1.8,0,2.5-1.4,3.6-2.4,1.2-1.2,2.9-1.9,4.4-2.9,1,0,2.2.1,3.4.3.4,0,.9.4,1.1.7,1.2,2,3.7,2.8,5.8,1.8.4-.2.9-.2,1.3-.2.9-.2,1.9-.2,2.8-.5,1.5-.5,1.5-1.1.2-2.1.8-.8,1.7-1.5,2.9-2.5.6.7,1.2,1.4,1.9,2,.3.3.9.5,1.3.4.3,0,.8-.5.9-.8.1-.8,0-1.6.3-2.2.2-.6.8-1.5.6-1.8-.6-.7-.9-2-2.5-1.5-1.3.4-2.7.4-3.4,1.9,0,.2-.5.3-.7.3-1.3-.1-2.5-.3-3.8-.5-.8-.2-1.1-2.5-.6-3.5.6-1.1,1.1-2.4,2-3.2,1.2-1.2,2.7-2,4.1-3,.5-.4,1-.7,1.5-1.1,0-.2,0-.4-.1-.5ZM370.3,230.6c-2,0-3.1,1.1-3.1,3,0,1.9,1.1,2.9,3,2.9,1.9,0,3.1-1.2,3.1-3,0-1.8-1.2-2.9-3-2.9Z"/>
      <path id="lines" class="cls-3" d="M214.7,428.1c1.8-.8,1.5-3.4,3.4-4.2,2.7-1.3,4.8-3.3,6.2-6,.6-1.1,2.6-.7,2.9-2.6.1-.6,1.1-.2,1.6.3.6.7.7,3.9.4,4.9-.3,1.1-.5,1.7-2,1.5-2-.3,0,1.7-1,2.3-1.3-1-2.7-2.1-3.3.8-.3,1.2-2.1,1.8-2.3,3.4-.7,4.3,2,7.1,6.4,6.7.7-.1,1.6-.9,2.3.2,6.9-.2,13.7-1,20.5-1.7,1-.1,2-.2,2.9-1,3-2.9,4-3.1,7.6-1.4.8.4,1.7,1.3,2.6.7.9-.7.5-1.9.4-2.9-.5-3.9-2.3-7.4-3.8-10.9-.9-2.2-1.8-4.5-1.2-6.8,2.7-10.9,8.3-19.6,19.5-23.4,1.7-.6,2.9-1.4,4.1-2.8,3.8-4.9,8.8-7.9,15-8.6,5.2-.6,10.3.1,14.9,2.3,6.1,3,12.1,4.3,18.7,2.1,2.3-.8,4.5-.1,6.1,1.9.5.6,1,1.4,1.8,1.1,5.1-1.4,8.4,1.5,11.7,4.6,2.1,2,4.4,3.4,7.6,2.9,2.2-.3,4.3.6,5.9,2.2,3.7,4,8.1,4.8,12.8,2.5,5.5-2.7,11.2-4.9,17.3-5.8,1.6-.2,2.6-1.2,2.1-2.7-1.1-3.6.9-5.5,3.4-7.3,6.1-4.1,11.5-9.2,17.2-13.8,6.8-5.6,11.7-12.4,13.9-21.1-5.5-1.5-11.1-2.4-16.2-5-1.5-.8-3-1.5-3.8-3.1-.7-.4-1.4-.8-2.2-1.1-4.8-1.7-6.8-5-6.5-10.1.2-3.2.7-6.3.9-9.5.3-1.4-1.1-3.3,1-4.3h0c.1-1.7.2-3.3-1.1-4.5-2.6.6-5.8-1.3-6.1-3.6l-.4-.4c-2.7-1.7-4.7-3.8-4.7-7.3h0c-1.2-.3-1.6-1.1-1.4-2.2.2-.7.2-2,1.6-1.6h-.2.2c-.4-1.8,1.4-1.8,2.2-2.4,2.6-1.6,5.2-3.2,8.4-2.8h0c.7-1.8,2.1-2.6,4-2.8h0c-.4-2.6-.3-5.2-.1-7.7h0c-1.8.1-1.2-1.3-1.3-2.2h0c-1.3,0-1.3-.8-1.1-1.8h0c-1.3.1-1.3-.8-1.2-1.7h0c-1.5.1-2.1-.4-1.4-1.9h-.1c-1.6.5-1.4-.6-1.3-1.5h0c-2.2-.4-3.2-1.9-3.5-4-.1-.2-.3-.3-.4-.5-2.1-.3-2.1-2.1-2.4-3.6-.1-.5.2-1.3-.4-1.5-.7-.2-1.3.2-1.6.8-1.1,2.1-2.6,2.6-4.6,1.3-.3-.2-.7-.4-1,0-.4.4-.2.9.1,1.3,1.1,1.6,1.3,2.8-1.2,2.8s-1.4,1-1.4,2-.7,1.7-1.8.9c-2.1-1.4-2.2-.1-2,1.5.1.7.7,1.5-.2,2-1,.6-1.5-.5-2.1-1q-2.7-2.5-.1-5.1l4.2-4.2c.7-.7,1.4-1.2,2.4-1.2s2,.1,1.4-1.5c-.4-1,.3-1.6,1-2.1.9-.6,1.3.3,1.9.7.7.5,1,1.6,2.4,1.4-.1-1.4-1.8-2.1-1.5-3.7.4-2.1,1.8-1.4,3-1.3-.2-2.7,1.3-5.6,3.8-6.4,1.7-.5,1.6-1.5,1.9-2.6h0c0,.1,0,0,0,0-1.8.2-1.2-1.2-1.3-2.1h0c-1.2-.2-1.9-.6-1.3-1.9h0c-.9,0-.8-.5-.7-1.1v.2h.1c-.7-.1-.8-.6-.8-1.1h0c-1.8-.9-1.9-2.7-2.3-4.3-.2-.8-.2-1.7-1-2.2-4,.4-7.8,1.8-11.9,1.4-1.5-.1-2.5-.2-1.8-2.1.1-.2.2-.5.4-.7.3-.7.3-1.4.1-2.1-.6.1-1.1.1-1.7.2-1.8,2.8-4.5.8-6.8,1.1-.8.1-1.5-.8-1.6-1.7,0-.3.3-.6.4-1,0-.4,0-.7.1-1.1-.1-3.2.8-6,3-8.5h0c-.1-.5,0-.9.6-1h0c-.1-.7-.5-1.5.8-1.5h0c-.2-.5,0-.7.4-.8h0c-.2-.9-.2-1.8,1.1-1.7h0c-.1-.9-.2-1.8,1.2-1.7h0c-.2-.9-.2-1.7,1.1-1.8h0c0-.9-.1-1.7,1.2-1.7h0c0-.9-.1-1.8,1.3-1.6h0c-.2-.9-.2-1.8,1.1-1.8.2-.2.3-.3.5-.5-.1-1.9.4-3.4,2.5-3.8,0-.1-.1-.1-.1-.2,0,.1.1.1.1.2-.5-1.9.5-2.7,2.1-2.9h0c-.3-1.3,0-2.3,1.6-2.3-.1-.5,0-.9.6-1.2h0c-.1-1,.1-1.8,1.4-1.7.1-.2.2-.3.3-.4-.1-.9-.2-1.9,1.2-1.8h0c-.1-.9-.2-1.7,1.1-1.8h0c.5-1.7.6-3.6,2.9-4-.1-.9-.1-1.8,1.2-1.7h0c0-3.3-.5-6.5.4-9.8.2-.6.4-1.6-.2-1.8-2.3-1-1.1-2.4-.1-3.2,2.3-1.9,3.6-4.7,6.1-6.2.4-1.1,1.3-1.2,2.3-1.1.1-1.2.9-2,1.7-2.8.3-.8.9-1.1,1.7-1.1.6-.8,1.1-1.5,1.7-2.3.5-1,1.3-1.7,2.3-2.3,3.2-2.1,3.7-5.2,3.5-8.7-.1-1.1-.9-2.8,1.2-3.2v-.7c-.7-6.1,2.5-11.1,4.2-16.6,0,0,.5,0,.8-.2h0c.1-1.1-.8-2.6,1.2-2.9v-.2c0-1-.7-2.4,1.1-2.6v-.2c0-1.1-.6-2.4,1.2-2.6,2.5-5.6,5.3-11.2,7.5-17-6.8-2.4-13.5-5-20.9-4.6-4.8.3-9.6,0-14.3-.2-3.3,0-6-1.4-7.3-4.7-4.2-.6-7.2-2.7-8.9-6.8-.4-.9-1.1-1.7-1.7-2.6h-.1c0,0,0,0,0,0-.2-.2-.4-.4-.6-.7-3-1.1-6.2-.6-8.8.6-3.8,1.6-7.3.9-10.6-.6-5.7-2.5-11.5-4.9-16.8-8.4-.7,0-1.6.4-2.2,0-1.7-.8-3-1.2-4,1-.6,1.3-2.1,1.9-1.8,4.1.2,1.5-2.3,2.7-3.4,4.3-1.5,2-3.4,3.7-5.2,5.5-.4.4-.9,1-1.3,1-2,0-3.7,0-3,2.9.2.9-.9,1.3-1.9,1-1.6-.6-2.1,0-1.6,1.5.3.9-.4,1.5-1.2,1.4-1.7-.3-2.2-1.9-3.1-3.1s.1-1.8.8-2.3c2.8-2.1,4.1-6,8.2-6.5.2,0,.4-.2.4-.3-.8-2.9,2.5-3.2,3.3-5,.2-.4.5-.9.9-1,3.3-1,3.6-4.8,6.2-6.5,1.1-.7,1.4-1.9,1.3-3.2h-.2c-.2-.2-.4-.4-.6-.5-2.8,0-4.8-1.2-5.9-3.8-.4-.4-.8-.5-1.3-.4-.6.6-1.2.7-1.7-.2-.1-.4-.3-.7-.8-.6-.6,0-1.2,0-1.4-.6h.1c-.4,0-.6-.2-.7-.5h0c-.6,0-1.1,0-1-.8h.1c0,0,0-.1,0-.1-1.7.5-1.3-.7-1.4-1.6-.1-.2-.2-.5-.3-.7-3,2-9.1,2-11.9,0-1-.7-1-1.9-1.2-3-1.9-.4-3.8-.9-5.7-1.3-3.2-.3-3.2-.4-2.9-5.1h.1c-2.5-1-.9-3-1.2-4.6h.1c-1.4,0-1.3-.8-1.2-1.7h0c-1.3.2-1.3-.7-1.3-1.6-1.4,0-2.8-.8-4.1.8-.7.8-1.5,0-2.2-.4-.5-.3-.9-.2-1.2.2-.3.5-.3.9.3,1.1,1.2.4.7,1,.2,1.7s-.9,1.5-2,.9c-.5-.3-.9-1-1.4-.5-.7.6-.1,1.2.3,1.7.9,1.4-.5,1.2-1.1,1.6-1.2.6-3.1.3-2.6,2.8.2.7-.9,1-1.7.8-1.8-.4-2.9,0-1.9,2.2.2.4.5.9-.1,1.2-.4,0-1.1,0-1.3,0-.8-.9-1.8-1.6-2.7-2.4-1.2-1.2-.1-2.2.8-2.7,1.4-.8,2.2-2.1,3.3-3.3,2.3-2.6,5-4.9,7.5-7.2,1.2-1.1,2-2.2,2-3.8-.2-1.3-2.3-.7-2.2-2.3h0c-.7.1-1.4.2-1.6-.7-2.6-1.7-5.1-3.5-7.8-5-3.8-2.2-7.4-4.5-10.1-8-1.1.2-2.2.3-3.3.5-3.4.4-5.3-1.6-6.7-4.4-1.9-.2-3.7-.7-5.4-1.7-1.3.2-2-.3-1.8-1.7h0c-1.4-.2-1.5-.7-1.4-1.2h0c-.8,0-1.2-.4-1.3-1.1-.4-3.5-2.9-2.3-4.8-2.1-.9,0-1.3.7-1.2,1.6,0,.6.8,1.3-.3,1.6-.7.2-1.2-.4-1.6-.9-.5-.7-1.1-1.6-2-1.1-1.1.6.6,1.2.2,1.9-.7,1.1,1.2,2.7-.3,3.3-1.1.4-1.7-1.3-2.6-1.9-1.7-1.2-1.3-2.4.1-3.6.8-.7,2.1-1.1,1.9-2.6-1-.2-2,0-2.8.5-.4,1.5-1.2,1.3-2.2.6-.6-.1-1.2.1-1.7.4-.1,1.4-1.1,1.2-2,1-5.8,2.4-6.8,7.7-7.1,13-.4,6.3-.5,12.6-1.2,18.9-1.3,10.9-7.1,18-17.8,20.7-5.6,1.5-11.4,2.5-16.8,4.6-6.6,2.6-11.9,6.7-15.2,13.2-1.2,2.4-.9,5-.6,7.5.3,2.3-.5,3.2-2.8,3.9-7,2.3-13.7.4-20.5-1-3.9-.8-7.6-1.9-11.3-3.4-1.6-.6-2.8-1.6-3.4-3.2-4.4-1.5-8.2-3.5-10-8.2-.6-1.4-1.3-2.9-2.5-4-3.2,2.4-6.3.3-9.4-.2-1.6-.3-3.6-1.8-4.7-.6-1,1.1.4,3.1.9,4.7,2.2,7.1,4.1,14.2,5.5,21.5,1.6,8.2,2.8,16.5,2.4,24.9,0,2.2-.5,3.2-2.9,2.5-2.5-.7-5.1-1-7.5-2.3-1.4-.8-3-.3-4.4,0-6.3,1.4-12.6,2.8-18.9,4.2-4.6,1.1-7.3,0-9.9-4.3-4.2-.3-6.7-2.9-8.7-6.2-1.3-2.1-2.6-4.1-4-6.1-4.9,0-8.9,1.7-11.4,6.3-.8,1.5-2.5,1.9-4.1,2-7.4.6-14.8,1.1-22.1,1.7,0,1.5,0,2.7-2.1,1.9-1.9-.7-4.1.6-5.9-.9-.9,0-1.9,0-2.8,0,0,2.4-1.4,2-2.9,1.7-.8.3-1.3.9-1.7,1.6,0,5.9.1,11.9,0,17.8,0,1.7.1,3.4.5,5h0c1.3-.1,2.3.1,2.2,1.8h0c1-.1,1.9-.2,1.6,1.3M214.7,428.1h.2M214.7,428.1c.1-1-.2-1.4-1.2-1h.2c0-.1-.2,0-.2,0,.4-1.5-.6-1.4-1.5-1.3h0c-.4-2.2-1.7-3.2-4-2.8h0c0-1.4-.8-1.3-1.8-1.1h0c-.9-2.2-2.6-2.6-4.7-2.4h-.2c-.4-2-1.9-1.1-2.9-1.1h0c-.4-1.3-1.5-1.5-2.6-1.8-1.9-.5-3.8-.9-5.6-1.5-3.5-1.1-7-2.4-10.7-1.8h-.1c0,.1-.1,0-.1,0,0-1.2-.8-1.3-1.7-1.3-1.4,0-2.8.1-4.2.1h-.1c0,.1-.1,0-.1,0-.1-.3-.3-.9-.4-.9-.7-.1-.6.5-.7.9-1.4.9-1.3,2.4-1.5,3.8-.5,2.9-1.7,3.8-4.4,3.4-13.2-2-26.3-4.5-39.2-7.8-3.7-.9-7-3-10.6-4.5-5.1-2.2-10.2-4.4-15.2-6.6,1.1-4-.5-6.4-4.3-7.6.6-3.5-.8-6-4-7.5.5-1.2,1.5-1.9,2.2-2.9,1.9-2.4,4.3-4.5,5.2-7.6,1.7-5.9,2.5-11.9,3.8-17.9,2.7-12.3,5.1-24.7,6.4-37.2,1-9.9,3.7-19.4,5.8-29,1.5-7.2,1.5-14.2-2.1-20.9-.6-1.1-1-2.2-.4-3.5,1.3,0,2.3-.2,2.2-1.8h0c.9.1,1.8.1,1.6-1.3v.2c0,0,0-.2,0-.2.3,0,.8.1,1-.1.3-.3,0-.6-.3-.8.2-.4.3-.8.5-1.1.7-.1,1.6,0,.6-1.1,0-.9.3-1.9.4-2.8,1-.6,1-1.1,0-1.8-.5-1.7-.4-3.4-.4-5.1.8-1.6,1.3-3.1-.9-4-.3-1.1-.3-2.3,0-3.4,0-.3.2-.6.2-.9s0-.6,0-.8c.3-.2.8-.3.9-.5,0-.6-.5-.6-.9-.6l-.5-.5c0-.7,0-1.6-1.1-.6-.8,0-1.6,0-2.3-.5,0-1.4.2-2.7.4-4.1.2-1.8-.2-3.7-2.8-3.2h0c-.7-2.7-2.8-.8-4.1-1.3h-.2c-1.1-1.9-2.9-2.2-4.9-2.3h-.2c-.2-.2-.5-.4-.7-.5h0c.3-1.1-.8-1.4-1.3-1.9-1.1-1.1-1-2.5-.7-3.7.3-1.3,1.4-.4,2.1-.3.9.1,1.1-.5,1.1-1.2s.3-2,1.2-1.9c2.9.2,2.3-1.4,1.4-3.5,2.9,1.8,4.4.8,5.3-1.6.3-.8,1.1-.9,1.6-1.4,1.5-1.5,3.4-2.6,3.5-5.2,0-2.3,3-4.7,5.4-4.5,1.7.1,2.9-1.1,2.8-2.4,0-1.5,0-2,1.6-2s1.2-.3,1.1-1c0-.8-.8-.7-1.3-.6-1.4.1-1.8-.6-1.8-1.9s0-1.3-.8-1.2c-.6.1-.8.7-.9,1.3s0,1.6-.7,1.7c-3.7.2-4.6,4-7.2,5.7-2.6,1.8-4.3,4.7-6.7,6.9-1.5,1.4-2.6,3.3-4.1,4.3-2.1,1.4-3.7,3-5.2,5-2,2.6-3.2,2.9-6.1,1.6-.3-.1-.7-.1-1.1-.1,0-.8-.4-1.1-1.2-1.1h0c0-1.6-.7-2.7-2.5-2.6,0,0,0-.1.2-.1,0,0,0,.1-.2.1.5-1.3-.4-1.4-1.3-1.4h-.2v-.3c0-.4-.3-.7-.7-.8-.4-.5-.9-.9-1.3-1.4.3-.1.5-.2.8-.3,1.1-1.3,1-2.7,0-4,0-.5,0-.9.5-1.2,1.3-.4,2.5-1,1.8-2.8,0-1.1,0-2.3.2-3.4.4-.4.4-.8,0-1.1l-.2-1.1c1-1.2,0-1.5-.9-1.7-.3-.7-.6-1.3-.8-2,0-.4-.2-.7-.6-.8-.6-.3-1-.7-1.1-1.4-.4-1.1-.5-2.4-1.2-3.3-.7-.9-.3-2.8-2.3-2.5h0c.3-.9,0-1.3-1-1.3h0c.2-1.8-.6-2.5-2.3-2.3-.2-.1-.4-.3-.5-.4,0-.6-.6-.7-1.1-.7h0c0-1.5-1.4-1.5-2.4-1.8,0-.2,0-.3,0-.5,1.7-1.4,1.7-2,0-2.7h0c0-1.1-.5-1.3-1.4-1-.6,0-1.3-.1-1.9-.1-.6-1.4-.3-3.8.4-4,3.4-.8,4.6-2.9,5.4-5.9.6-2.2,2.6-3.7,4.8-4.1,0,0,.2-.1.2-.1-.6-2.8,1.9-1.1,2.7-1.8.7-.7,0-2.2,1.6-2.4,1.6-.2,1-1.1.3-1.7-.8-.7-1.7-1.2-2.2-2.1-.4-.7-.8-.4-1.4.1-2.7,2.2-4.3,5.6-7.5,7.3-1.5.8-2.8,2.4-2.4,4.4s0,1.9-1.4.9c-.3-.2-.8-.4-1-.2-2,1.7-4.4.5-6.5,1h-.2c0,.1,0,0,0,0-.2-.3-.3-.9-.5-.9-3.1.1-5.9-.9-8.8-1.7h0c0-2.3-1.8-2.2-3.2-2.5h0c0-.9-.4-1.3-1.3-.9v-.2c0,0,0,.2,0,.2.4-1.6-.6-1.4-1.6-1.3h0c.2-1.4-.7-1.3-1.7-1.2h0c0-1.3-.8-1.3-1.7-1.2h0c-.2-1.8-1.5-1.8-2.9-1.7h0c-2.7-3.5-7-3.5-10.8-4.6h0c-.3-2.1-1.8-2.3-3.5-2.2h.1c-.1-.6-.6-.7-1.1-.7h0c-.3-2.4-1.6-3.1-3.7-2.2h-.2c-.3-2.1-2.5-.8-3.4-1.8v-1.4c-.1-1.8-.2-3.5,2.5-2.6.6.2,1.3,0,1.2-1-.3-1.8.6-2.3,2.2-2.3s1.9-.5.7-1.6c-.4-.4-1.1-.6-.7-1.3.4-.8,1.1-.4,1.7-.1,2.3,1.1,3.4.1,3.4-2.2s.9-.9,1.5-1.1c2.1-.7,4.2-2.3,4.1-4.1-.2-2.9,2.3-3.9,3-6,0-.4.7-.6,1.2-.2,1.8,1.6,3.4-.4,3.6-1.1.5-1.9,1.9-2.8,3.2-3.9-1.2-1-3-.7-3.5-2.4,0-.4-.9-.4-.9-.2-.3,1.5-1.9,1.4-2.5,2.1-3.9,4.8-9.1,8.2-13.2,12.8-1.2,1.3-1.8,3.2-3.3,4-2.7,1.6-4.4,4-6.5,6.1-2,2.1-2.9,3.6,0,5.4-.7.8-1.7.3-2.1,1.1-2.1.6-4.1,1.1-6.2,1.7-.6-1.3-1.5-2.3-3.1-2M4.8,143.6q0-.1.2-.2"/>
      <g id="regions">
        <g>
          <path id="suisse-region" class="cls-4" d="M457.6,134.5c1.1-.2,1.9,0,2.2,1.3,0,.4.6.8.9,1.2.2-.4.4-.8.6-1.3,0-.2,0-.4.1-.5.1,0,.3,0,.4-.1.3.7.6,1.5.9,2.4.5-.2,1.1-.4,1.5-.6.3,1.5.3,3.1,1.1,4,.7.8,2.2,1.3,3.4,1.2.9,0,.5-1.7-.8-2.6q.3-.5,3.1.4c.1.5.1,1,.3,1.5,1.2,2.4,2.3,2.8,4.7,1.3,2.3-1.5,4.6-2.1,7.3-1.3,1.5.5,3.1.6,4.7.8.1,0,.3,0,.5,0,4-1,7,1.8,10.4,2.9,1.2.4,2.2,1.2,3.3,1.9,1.6.9,3,1.9,3.8,3.8.5,1.3,1.6,2.9,3.6,3,1,0,1.5.7,1.5,1.8,0,1.1.4,2.3.7,3.6-2.1.2-2.4,2.1-2.9,4-.4,1.2-1.3,2.1-1.8,3.3-.8,2-1.6,4-2,6.1-.2,1.2.4,2.5.7,3.7.3,1.1.9,2.1,1,3.1,0,.6-.6,1.2-.9,1.9-.3.5-.5,1.1-.7,1.6.6,0,1.2,0,1.8,0,.6,0,1.2,0,1.8,0,1.4-.1,2.8-.3,4.2-.4.8,0,1.6,0,2.4,0,.9.1,1.9.2,2.8.5,1.1.3,2.4.5,3.4,1,1,.6,1.8.8,2.7,0,.9.9,1.2,1.8.7,3.1-.5,1.2.4,2.8,1.7,3.2,1.8.7,3.7,1.2,5.5,1.8.4.1.9.2,1,.5.8,1.4,2.4,1.9,3.7,2.3,1,.3,2.3-.3,3.4-.5,0,0,.1-.1.2-.2,1.7-1,3.7-1.6,3.2-4.3-.1-.6.5-1.1,1.4-.9,1.1.2,1.5-.4,2-1.5.6-1.3.3-3.1,2-3.9,1.3-.6,1.8,0,2.5.9.3.5.8.9,1.3,1.2.6.3,1.3.4,1.8.8.3.2.4.8.3,1.3-.1,1-.8,2-.6,2.9.6,2.4,0,4.5-1.2,6.6-.1.3,0,.9.1,1.1,1,1,.6,1.8-.4,2.5-.3.2-.5.6-.8.9.2.4.5.8.8,1.3-1.6,1.3-1.7,3-.5,4.6.3.5,1.1,1,1.6.9,3.2-.3,3.7,1.6,3.2,3.7-.2.7-.4,1.5-.6,1.9-2.2.2-4.2.4-6.2.6-.4,0-1,0-1.2-.4-.7-.8-1.2-1.6-2.5-1.4-.1,0-.4-.5-.5-.8-.3-1-.5-2-.7-2.9-2.3,1-4.2,1.7-6.1,2.6-.4.2-.8.4-.9.8-.6,1.3-1.1,2.6-1.7,4-.1.3-.3.6-.3.8,0,2,.2,3.9.3,5.9,0,1.4,1.2,2.2,2.6,2,.5,0,1-.4,1.5-.3.6.2,1.2.6,1.6,1,.1.1-.3.9-.6,1.2-1.7,1.6-1.8,3.7-.4,5.5.6.7,1.2,1.3,1.6,2,.4.6.8,1.3.7,1.9-.2,1.1-.9,1.8-2.3,1.7-.7,0-1.5.3-2.4.4,0,0,0,0,0,0,.3-1.9-.8-2.9-2.3-3.7-1.2-.7-1.5-2-1.4-3.2.1-1.3-.9-1.5-1.4-2.3-.6-1-1.1-1.2-2.3-.5-1.3.7-2.9.8-4.3,1.3-.5.2-1,.6-1.4,1-.7.7-1.3,1.1-2.4.6-1.3-.6-1.9-.1-1.9,1.3,0,.5,0,.9,0,1.4,0,.3-.2.8-.4.9-2.5.6-5,1.2-7.5,0-.6-.3-1-.9-1.4-1.3-.8-.8-1.5-1.7-2.2-2.5,0-.1-.3-.2-.3-.3-.2-2.1-2-3.9-1.3-6.2.1-.4.2-.8.1-1.2-.2-.7-.5-1.3-.8-1.9-.5.5-1.1.9-1.6,1.4-.3.4-.4.9-.7,1.7-.7-.7-1.4-1.2-1.6-1.9-.3-1.1-.9-1.2-1.7-1-2.3.5-3.3,0-3.5,3.5,0,.3,0,.7-.3.8-1.5,1.1-.8,2,.3,2.9.3.3.5.7.6,1.1.3,1.2.8,2.4.9,3.6,0,1.1-.1,2.3-.5,3.3-1,2.7-2.1,5.3-3.2,8-.1.4-.4.7-.7,1-1.4,1.3-2.8,2.5-4.1,3.9-.4.4-.4,1.2-.3,1.8.3,1.3.3,2.2-1.2,2.9-1.8.7-2,1.8-1.3,3.7.1.4,0,1.1-.3,1.4-.7.8-.8,1.4,0,2.3.3.4.5,1,.7,1.5.3.8.6,1.4,1.7,1.4,1.5,0,1.8,1.2,1.1,2.5-.6,1-.8,2.1-1.1,3.2-.3,1-.5,1-1.4.5-1.1-.6-2.5-.6-3.8-.8,1.8-1.9-.3-3.4-.9-5.1-.2-.7-.6-1.4-1-2.1-.2-.3-.4-.6-.6-.7-1.5-.9-3-1.8-4.4-2.5.8-1.6,2-3.1,2.3-4.8.1-.8-1.6-1.9-2.5-2.8,0,.2-.1.3-.2.5-.9,0-1.7-.1-2.6-.2-.4,0-.9-.2-1.2,0-1.5.8-2.6-.2-3.9-.5-3-.7-3.6-3.6-5.6-5.3-.7-.6-1.4-1.2-2.1-1.6-1.3-.7-2.1-1.5-2.9-2.9-1-1.7-.3-2.8-.1-4.3.4-2.5,0-5.2-.4-7.7-.3-1.6-1.9-2-3.6-1.1-1.3.7-2.5,1.4-3.7,2.1-1.9,1.1-2,2,.1,3.3-1.1,1-2.2,1.9-3.2,2.9-.5.5-1,1.1-1.3,1.8-.6,1.4-1.5,2.1-3.1,1.8-1-.2-3.4,2.4-3.2,3.4,0,.3.5.6.8.9,1,1.4,2.3,2.7,3,4.2.3.8.3,2.3-.8,3.3-1,.9-1.8,1.8-3.2,2.2-1.6.5-2.2,2.2-1.8,3.8.4,1.6-1.4,4.2-3,4.3-3,.3-4,0-4.5,5.3-1.4,0-2.9,1-4.4-.3-.3-.2-1.1,0-1.6.2-.7.3-1,.4-1.4-.5-.5-1.4-2.9-2.6-4.3-2.1-1,.3-1.8.2-2.6-.5-1-.8-1.5-.5-1.9.7-.1.4-.6.7-.9.9-1,.5-2,.6-2.6,1.9-.4.9-1.5,1.6-2.4,2.2-.8.5-1.7.5-2.9.3-1.3-.3-3.2-.9-4.3,1-.2.4-.9.8-1.4.8-1.3.2-2.1.7-1.9,2.3-.8-.5-1.5-1.1-2.1-1.1-.7,0-1.4.7-2.1,1.1-.9-1.2-1.9-2.5-2.9-3.8-.3-.4-.4-1-.6-1.4-.2-.4-.5-.8-1-1.1.3-.8.4-1.5-.7-2.1-2.1-1.1-2.7-3.6-4.7-5.1-.6.5-1.3,1.1-1.9,1.6,0-1.4.1-2.8.3-4.2.1-.9,0-1.5-1.2-1.4-.8,0-1.6-.1-2.4-.2-1.3-.1-1.8-.9-1.3-2.2.2-.5.5-1,.4-1.4-.3-1.8.6-3.1,1.6-4.4,1.1-1.5,1-2.4-.4-3.6-1.4-1.1-2.7-2.3-4.2-3.6.7-.5,1-.7,1.1-.9.4-.6.8-1.3.9-2,0-.2-.9-.6-1.5-.8-3.5-1.2-7-.3-10.4.3-.7.1-1.6-.2-2.3,0-.8.2-2,.5-2.1,1-.3,1.1-1.1,1.4-1.9,1.9-.9.5-1.8,1-2.9,1.7-.2-.2-.7-.6-.9-1.1-.5-1-1.2-1-2.1-.7-2.3,1-2.8,3.2-3.4,5.2-.3,1-.7,2.2.4,3.1.6.5,1,1.1,1.9.6.2-.1.5,0,.8,0,0,.4,0,.9-.2,1.1-.8.6-1.7,1.2-2.7,1.7-1.4.6-2.6,1.4-2.9,3-.2.9-2.7,2-3.6,1.7-1.2-.5-2.4-.9-3.4.5-.1.1-.6,0-1,0-.7,0-1.3.2-2.3.4.4-1,.8-2,1.1-2.9-.3-.6-.9-1.4-.8-1.5.7-.7,1.6-1.4,2.5-1.8,1.1-.4,2.3-.4,3.4-.7.9-.2,1.4-.9,1.1-1.8-.2-.5-.5-.9-.6-1.1.2-1,.2-1.8.5-2.5.5-1.1,1.3-2.2,1.7-3.3.2-.5,0-1.4-.3-1.6-1.3-.9-2.7-1.7-4.2-2.5,0-2.4.9-4.6,1.9-6.8.2-.4.6-.7.9-1,1.1-.9,1.1-1.5.1-2.4-1.6-1.4-1.4-1.5,0-2.9,2-1.9,3.7-3.9,5.6-5.9.4-.4.9-.8,1.4-1.1,1.7-1,3.3-1.9,4.5-3.6.5-.8,1.6-1.2,2.4-1.9.8-.7,1-1.5,0-2.4-.4-.4-.4-1.6-.1-2.3.9-2.4,1.5-4.6-.9-6.5.7-1,1.2-1.9,1.9-2.7.1-.2.4-.3.6-.4,1-.3,2-.4,3-.8,1-.3,2-.7,3-1.1.2,0,.3-.2.5-.4,1.4-1.5,2.9-3,4.4-4.6-.2-.1-.5-.4-1.1-1,.6-.5,1.1-.9,1.6-1.4.2-.2.6-.4.6-.6-.2-1.4.9-1.4,1.7-1.9,1.5-1,3.2-1.7,3.6-4,.2-1.1,1.4-2.2,2.4-3.1,2-1.8,2.3-2.6,1.4-5.1,1.3-.6,3.4-.3,3.2-2.2.8-.8,1.8-1.5,1.8-2-.1-.8-1-1.6-1.6-2.3-.2-.2-.8-.2-1.1,0-1.8.5-3.7,1.1-5.7,1.7,0-.6-.1-.9,0-1,1.3-1.1,2.2-2.3,2.7-3.9.2-.6,1.1-1.2,1.7-1.4,1.6-.3.8-1.2.7-2-.1-.6-.6-1.4-.3-1.7.4-.7,1.2-.5,2-.2,1,.4,2.1.9,3.2,0,1.2-1,2.3.2,3.6.4-.1.9-.3,1.8-.4,3.1.8,0,1.6.2,2.4.3.2,0,.6,0,.7.1.8,1.4,1.6.7,2.6.2.8-.4,1.9-.6,2.8-.4,2.3.3,4.6-.8,5.4-2.8.1-.4-.5-1-.9-1.7,1.1.4,2.7,1.4,3.2-.3.3-1.1,2.3-2.1.6-3.5,1.3-1.2,1.8-3,3.8-3.3.6-.1,1.1-1.2,1.7-1.9l.6.3c-.2.5-.2,1.2-.5,1.6-.9,1.4-.2,3.1,1.5,2.9,2.6-.3,5.2-.9,7.1-3.2.6-.7,1.9-.8,2.9-.9.3,0,.9.8,1.1,1.3.5,1.1,1.4,1.5,2.4,1,.7-.3,1.5-.4,2.3-.6.9-.2,1.8-.5,2.7-.5,1.6,0,2.2-1.2,3.2-2.2,1.1-1,2.6-1.7,3.9-2.6.9,0,1.9.1,3,.3.4,0,.8.3,1,.6,1,1.8,3.2,2.5,5.1,1.6.3-.2.8-.2,1.1-.2.8-.1,1.7-.2,2.5-.4,1.3-.5,1.4-.9.2-1.9.8-.7,1.5-1.3,2.5-2.2.5.6,1,1.2,1.7,1.8.3.3.8.4,1.2.4.3,0,.7-.4.8-.7.1-.7,0-1.4.3-2,.2-.6.7-1.4.5-1.6-.5-.6-.8-1.7-2.2-1.3-1.1.4-2.4.3-3,1.6,0,.2-.4.3-.7.2-1.1-.1-2.2-.2-3.3-.5-.7-.1-1-2.2-.5-3.1.6-1,1-2.1,1.7-2.8,1.1-1,2.4-1.8,3.6-2.7.5-.3.9-.6,1.4-1,0-.2,0-.3,0-.5ZM381.3,232.5c-1.8,0-2.8.9-2.7,2.7,0,1.6,1,2.6,2.7,2.6,1.7,0,2.8-1,2.8-2.7,0-1.6-1-2.6-2.7-2.6Z"/>
        </g>
        <g>
          <path class="cls-4" d="M142,232c4-10-12-24-4-32,7-6,25,0,27-10,4-13,9-20,19-29,6.4-5.1,6.2-12.2,4.5-19.6-.2.2-.3.4-.5.6-2,1-7,1-8-1-5-9-9-11-18-9,0-2-3-3-4-3-12.3-1.8-23.8,1.1-35.9.5,1.3.5,2.6,1,3.9,1.5,8,4,5,20,2,22-14,8.3-28.1,18.6-42.1,25.8,1,.6.8,1.2-.6,2.3,0,0-.2.2,0,.4,1,.3,2.2.3,2.3,1.7.5,0,1,0,1.1.6.2,0,.3.3.5.4,1.6,0,2.4.5,2.2,2.2.9,0,1.2.3.9,1.2,1.9-.4,1.6,1.5,2.2,2.3.7.8.8,2.1,1.2,3.1,0,.7.5,1.1,1,1.4.4,0,.6.3.6.7.3.7.5,1.3.8,1.9.8.2,1.8.4.8,1.6l.2,1c.5.3.5.6,0,1,0,1.1,0,2.1-.2,3.2.7,1.7-.4,2.2-1.7,2.6-.4.3-.5.7-.5,1.1.8,1.3.9,2.6-.1,3.8-.2,0-.5,0-.7.2.4.4.8.9,1.2,1.3.4,0,.6.4.6.8v.2h.2c.8,0,1.6.2,1.2,1.4,0,0,0,0,.2,0-.1,0-.1,0-.2,0,1.7,0,2.2.9,2.3,2.4.7-.1,1.1.3,1.1,1,.3,0,.7,0,1,0l7.7,5.7c.6.5,1.6.7,1.3,1.8.2.1.5.3.7.4h.1c0,0,0,0,0,0,1.9.1,3.6.4,4.6,2.2h.2c1.3.4,3.3-1.4,3.9,1.2,2.5-.4,2.9,1.3,2.7,3-.2,1.1-.3,2.1-.3,3.2,1.2-.8,2.3-1.5,3.5-2.3,3-3,12,2,14-2Z"/>
          <path d="M124.5,236.8c0,0-.2,0-.3,0-.2,0-.3-.3-.2-.5,0-1,.2-2.1.3-3.2,0-.7,0-1.7-.4-2.1-.3-.3-.9-.4-1.7-.3-.3,0-.5-.1-.6-.4-.3-1.3-.8-1.1-1.9-.9-.5.1-1.1.2-1.6.1h-.1c-.2,0-.3,0-.4-.3-.8-1.5-2.2-1.8-4.2-1.9h0c-.1,0-.3,0-.4-.1h0c0,0-.2-.2-.3-.2-.1,0-.2-.1-.3-.2-.2-.1-.3-.3-.3-.6.1-.4,0-.6-.6-.9-.2-.1-.4-.2-.5-.4l-7.6-5.6c-.2,0-.5,0-.8,0s-.5-.2-.5-.5,0-.4-.1-.4c0,0-.3,0-.4,0-.1,0-.3,0-.4-.1-.1,0-.2-.2-.2-.4,0-1.5-.5-2-1.7-1.9,0,0,0,0,0,0h0c-.1,0-.2,0-.3-.1,0,0,0,0,0,0,0,0-.1-.2-.1-.3,0,0,0-.1,0-.2.1-.3,0-.5,0-.5,0,0-.2-.1-.8-.1s-.2,0-.2,0h-.2c-.2-.2-.3-.4-.3-.5v-.2c0-.2-.1-.3-.2-.3,0,0-.2,0-.2-.1-.2-.2-.4-.4-.6-.7-.2-.2-.4-.4-.6-.6s-.2-.3-.1-.4.1-.3.3-.4.4-.2.7-.2c.7-.9.6-1.9,0-3.1,0,0,0-.2,0-.3,0-.6.2-1.2.7-1.5,0,0,0,0,.2,0,.8-.2,1.3-.5,1.5-.8.1-.3,0-.6-.1-1.1,0,0,0-.2,0-.2,0-.5,0-1.1,0-1.6,0-.5,0-1.1.1-1.6,0-.1,0-.2.1-.3,0,0,.1-.1.1-.1,0,0,0,0-.1,0-.1,0-.2-.2-.2-.3l-.2-1c0-.1,0-.3.1-.4.3-.4.3-.5.3-.5,0,0-.5-.2-.8-.3-.1,0-.3-.1-.4-.3-.2-.4-.3-.8-.5-1.2,0-.2-.2-.5-.3-.7,0,0,0-.1,0-.2,0-.1,0-.2-.2-.2,0,0,0,0-.1,0-.5-.3-1.1-.7-1.2-1.7-.1-.4-.2-.7-.3-1.1-.2-.7-.4-1.4-.8-1.8-.3-.3-.4-.7-.5-1.1-.3-.9-.4-1.2-1.2-1-.2,0-.4,0-.5-.2-.1-.1-.2-.3-.1-.5.1-.4,0-.5,0-.5,0,0,0,0-.5,0s-.3,0-.4-.2c0-.1-.1-.2-.1-.4,0-.6,0-1.1-.2-1.3-.2-.3-.7-.4-1.4-.3,0,0-.2,0-.3,0-.2,0-.3-.2-.4-.3s0,0-.1-.1c-.1,0-.2-.2-.3-.4,0,0,0-.1,0-.2,0,0-.2,0-.4,0-.1,0-.3,0-.4,0-.1,0-.2-.2-.2-.4,0-.8-.5-.9-1.4-1.1-.2,0-.4,0-.6-.1-.1,0-.2-.1-.3-.3-.3-.5,0-.9.2-1,1-.8,1.1-1.1,1-1.1,0,0,0-.1-.4-.4-.1,0-.2-.3-.2-.4s.1-.3.3-.4c8.4-4.3,16.9-9.8,25.1-15.2,5.6-3.6,11.3-7.3,17-10.7,1.4-.9,3.2-6.3,2.8-11.8-.2-2.7-1-7.4-4.8-9.3-.8-.3-1.8-.7-2.7-1.1l-1.1-.4c-.2,0-.4-.3-.3-.6,0-.2.3-.4.5-.4,5.2.3,10.3-.1,15.3-.5,6.7-.5,13.6-1,20.6,0,.9,0,3.9.9,4.4,2.9,8.9-1.9,13,.3,18,9.4.8,1.6,5.3,1.7,7.3.8,0,0,.2-.2.3-.3l.2-.2c.1-.1.3-.2.5-.1.2,0,.3.2.4.4,1.5,6.4,2.3,14.5-4.7,20.1-10.5,9.4-15,16.4-18.8,28.8-1.2,6.1-8,6.6-14.6,7-4.8.4-9.7.7-12.6,3.2-4,4-1.5,9.9,1.2,16,2.4,5.4,4.8,11,2.9,15.8,0,0,0,0,0,0-1.2,2.4-4.5,2-7.6,1.6-2.6-.3-5.2-.7-6.5.5,0,0,0,0,0,0-1.2.7-2.4,1.5-3.5,2.3,0,0-.2,0-.3,0ZM122.8,229.5c.8,0,1.4.2,1.8.6.6.6.9,1.6.7,3-.1.7-.2,1.4-.3,2.1.9-.6,1.8-1.1,2.6-1.7,1.6-1.5,4.5-1.2,7.3-.8,2.9.4,5.7.8,6.6-1,1.7-4.4-.6-9.8-2.9-15-2.7-6.2-5.6-12.6-1-17.2,3.1-2.7,8.3-3.1,13.2-3.4,6.5-.5,12.6-.9,13.7-6.3,3.9-12.6,8.5-19.7,19.2-29.3,6.3-5,5.9-11.9,4.6-18.2,0,0,0,0,0,0-2.1,1.1-7.5,1.2-8.7-1.2-4.9-8.8-8.6-10.7-17.4-8.7-.1,0-.3,0-.4,0-.1,0-.2-.2-.2-.4,0-1.6-2.7-2.5-3.5-2.5-7-1-13.9-.5-20.5,0-4.1.3-8.3.6-12.5.6.4.2.8.3,1.2.5,3.2,1.6,5.1,5.2,5.4,10.1.3,5.2-1.3,11.4-3.3,12.7-5.7,3.3-11.4,7.1-17,10.7-8,5.2-16.3,10.6-24.5,14.9.1.2.2.4.2.6,0,.6-.4,1-1,1.6.7.2,1.7.5,1.9,1.5.3,0,.5,0,.7.2.2.1.3.3.4.6,0,0,.1.1.2.2s0,0,0,0c.9,0,1.6.2,2,.6.4.4.5.9.5,1.6.3,0,.6.2.8.4.1.2.2.4.2.7,1.2,0,1.5,1.1,1.7,1.8,0,.3.2.6.3.8.5.6.7,1.4.9,2.2.1.4.2.7.3,1,0,0,0,0,0,.1,0,.4.3.7.7,1,.7.2.9.7.9,1.1,0,.2.2.5.3.7.1.3.2.6.4.9.6.1,1.1.3,1.3.9.2.5-.1,1-.3,1.3v.6c.3.1.5.4.5.7,0,.4-.1.7-.3.8,0,.5,0,.9,0,1.4,0,.5,0,1,0,1.5.3.7.3,1.3,0,1.8-.4.8-1.2,1.1-2,1.3-.1.1-.2.3-.2.5.9,1.5.8,3-.2,4.2,0,0-.1.1-.2.1,0,0,0,0,0,0,.2.2.3.4.5.5.5.2.8.6.8,1,.4,0,1,.1,1.3.5.2.2.2.5.2.8,1.7.2,2,1.5,2.2,2.4.3,0,.5.2.7.3.2.1.3.4.4.7.2,0,.5,0,.7.1,0,0,0,0,.1,0l7.7,5.7c.2.1.3.2.4.3.5.3,1.2.7,1.1,1.6,0,0,0,0,0,0,.1,0,.2.1.3.2,0,0,0,0,0,0,1.7,0,3.6.4,4.8,2.2,0,0,0,0,0,0,.3,0,.7,0,1.2-.1.9-.2,2.3-.5,2.9,1.2.1,0,.2,0,.3,0Z"/>
        </g>
        <g>
          <path class="cls-4" d="M247,141c0,4,3,6,6,7,3,0,6,1,8-1,2-3,4-9,5-9,4.7-.2,8.9-1.3,12.4-3.1-.4-.6-.9-1.3-1.4-1.9.5,0,.7,0,.8,0-1.4-7.3.3-15.2.4-22.7-.8,0-1.5-.1-2.2-.4-3-3-5-7-8-9-14-7-30,1-42-8-1.8-1.1-3.7-2.1-5.5-3-2.2,6.7-6.1,12.9-11,17.8.5.7,1.1,1.5,1.6,2.2,10,14,15,35,36,31Z"/>
          <path d="M257.3,148.7c-.7,0-1.4,0-2.1-.1-.7,0-1.5-.1-2.2-.1s-.1,0-.2,0c-3.9-1.3-6.1-3.7-6.3-6.9-16.1,2.8-23-9.3-29.6-21-2-3.5-4-7.1-6.3-10.3-.5-.7-1-1.5-1.6-2.2-.1-.2-.1-.5,0-.6,5-5,8.7-11.1,10.9-17.6,0-.1.1-.2.3-.3.1,0,.3,0,.4,0,1.9.9,3.7,1.9,5.6,3,6.3,4.7,13.6,4.7,21.4,4.7,6.9,0,13.9,0,20.6,3.3,1.9,1.3,3.3,3.1,4.8,5.1,1,1.3,2,2.7,3.2,3.9.6.2,1.2.3,2,.3.3,0,.5.2.5.5,0,2.6-.2,5.4-.4,8-.4,4.9-.8,9.9,0,14.6,0,.2,0,.4-.2.5,0,0,0,0,0,0,.3.4.5.7.8,1.1,0,.1.1.3,0,.4,0,.1-.1.3-.3.3-3.8,1.9-8,3-12.6,3.1-.3.2-1.3,2.3-2,3.8-.8,1.7-1.7,3.6-2.6,5-1.2,1.2-2.6,1.5-4.1,1.5ZM253.1,147.5c.8,0,1.5,0,2.2.1,2.1.2,4,.3,5.3-1,.8-1.2,1.7-3.1,2.4-4.8,1.4-3,2.1-4.4,2.9-4.4,4.2-.2,8.2-1.1,11.7-2.8-.3-.5-.7-.9-1.1-1.4-.1-.2-.1-.4,0-.5.1-.2.4-.3.7-.3-.7-4.6-.3-9.5,0-14.2.2-2.5.4-5,.4-7.5-.7,0-1.3-.2-1.9-.4,0,0-.1,0-.2-.1-1.3-1.3-2.3-2.7-3.4-4.1-1.5-1.9-2.8-3.8-4.5-4.9-6.4-3.2-13.4-3.2-20.1-3.2-7.9,0-15.4,0-21.9-4.8-1.6-1-3.3-1.9-5-2.7-2.2,6.4-5.9,12.3-10.7,17.2.4.6.9,1.2,1.3,1.9,2.3,3.2,4.4,6.9,6.4,10.4,6.8,12,13.3,23.4,29.1,20.4.1,0,.3,0,.4.1.1,0,.2.2.2.4,0,3.1,1.9,5.2,5.6,6.5Z"/>
        </g>
        <g>
          <path class="cls-4" d="M269,150c-3,5-3,13-10,14,4,3,0,7,0,10,0,13,4,25,8,38,1,3,7,6,12,5,0-1,2-3,2-3,12,1,14,14,15,24,1,7,12,1,18-3,3-3,7,5,10,4,7-3,0-21,10-14,11,7,27,16,34,4,.6-.6,1.1-1.3,1.5-2-.4,0-.8,0-1.2.1-1.8,2.7-4.3.8-6.4,1.1-.7,0-1.4-.7-1.5-1.6,0-.3.3-.6.4-.9,0-.3,0-.6,0-1,0-3.1.8-5.7,2.8-8,0-.5,0-.9.6-1,0-.6-.5-1.4.7-1.4h0c-.1-.5,0-.7.4-.8,0-.8-.2-1.7,1.1-1.6-.1-.9-.2-1.7,1.1-1.6,0-.9-.2-1.6,1-1.7,0-.8,0-1.6,1.1-1.6,0-.8,0-1.6,1.2-1.5-.2-.9-.2-1.6,1-1.7l.5-.5c-.1-1.8.4-3.2,2.4-3.6,0-.1,0-.1,0-.2,0,0,0,0,0,.2-.5-1.8.4-2.5,2-2.8-.3-1.3,0-2.2,1.5-2.2,0-.5,0-.9.5-1.1,0-1,0-1.7,1.3-1.6,0-.1.2-.3.3-.4,0-.9-.2-1.8,1.1-1.7-.2-.9-.2-1.7,1-1.7.4-1.6.6-3.3,2.7-3.7-.1-.9-.1-1.7,1.1-1.6,0-3.1-.5-6.2.3-9.2.2-.6.3-1.5-.2-1.7-2.1-1-1-2.3,0-3,2.2-1.7,3.4-4.3,5.8-5.8.2-.5.5-.7.8-.9-2.4-1.9-4.7-4-6.9-6.3-5-4-16-4-24-2-6,1-6,10-11,13-13,9-21-7-32-11-11-5-29,8-33-2-2.8-7.4-2.1-11.4-7.6-19.1-3.6,1.8-7.7,2.9-12.4,3.1-1,0-3,6-5,9,0,0,0,0,0,0,1.5,2.4,4.1,4.5,8,3Z"/>
          <path d="M299.8,241.7c-.8,0-1.5-.1-2.1-.4-1.2-.5-2-1.6-2.2-3.3-2-19.6-8-23-14.3-23.6-.8.9-1.7,2-1.7,2.5s-.2.4-.4.5c-5.2,1-11.5-2.1-12.6-5.3l-.8-2.6c-3.7-12-7.2-23.3-7.2-35.5s.4-2.2.9-3.3c.9-2.3,1.7-4.5-.7-6.3-.2-.1-.2-.3-.2-.5s.2-.3.4-.4c4.6-.7,6-4.5,7.4-8.6.5-1.4,1-2.7,1.6-4-4.1,1-6.6-2.1-7.4-3.6-.1-.2,0-.5,0-.6.8-1.2,1.7-3.1,2.5-4.8,1.4-3,2.1-4.4,2.9-4.4,4.4-.2,8.5-1.2,12.2-3,.2-.1.5,0,.6.2,3.7,5.2,4.6,8.7,5.7,12.8.5,2,1.1,4,2,6.4,2,5.1,8.1,3.7,15.1,2.2,5.8-1.3,12.5-2.8,17.6-.4,3.7,1.3,7.1,4,10.4,6.7,6.6,5.2,12.8,10.2,21.2,4.4,2.1-1.3,3.3-3.7,4.5-6.1,1.5-3.1,3.1-6.3,6.7-6.9,8.2-2.1,19.3-2,24.4,2.1,2.2,2.3,4.5,4.4,6.9,6.3.1.1.2.3.2.4,0,.2-.1.3-.3.4-.2.1-.4.3-.5.6,0,0-.1.2-.2.2-1.2.8-2.1,1.9-3.1,3-.8,1-1.6,1.9-2.7,2.8-.6.5-.9,1-.9,1.3,0,.4.5.7.9.9.8.3.7,1.4.5,2.3-.5,2.1-.5,4.2-.4,6.4,0,.9,0,1.7,0,2.6s0,.3-.2.4c-.1,0-.2.1-.4.1-.2,0-.4,0-.5,0-.1.2,0,.7,0,1,0,.3-.1.5-.4.5-1.5.3-1.8,1.3-2.2,2.9v.5c-.2.2-.4.4-.6.4s-.5,0-.5.1c0,0-.1.3,0,1,0,.2,0,.3-.1.4-.1.1-.3.2-.4.2-.3,0-.5,0-.5,0-.1.1,0,.7,0,1.1,0,.2,0,.3-.1.4,0,0,0,0,0,.1,0,.1-.1.2-.2.3-.1.1-.2.2-.4.1-.2,0-.5,0-.6.1,0,0-.2.3-.1.9,0,.2-.1.4-.3.5-.1,0-.3.1-.2.5,0,.1,0,.3-.1.4,0,.1-.2.2-.4.2-.3,0-.8,0-1,.3-.2.2-.2.7,0,1.3,0,.1,0,.3,0,.4,0,.1-.2.2-.3.2-.8.2-1.3.4-1.6.8-.2.3-.2.7,0,1.3,0,0,0,.1,0,.2h0s0,0,0,0h0c0,.1,0,.2,0,.3h0s0,0,0,0h0s0,0,0,0c0,0,0,0,0,0s0,0,0,0,0,0,0,0h0s0,0,0,0c0,0,0,0,0,0,0,0,0,0,0,0h0s0,0,0,0h0s0,0,0,0c0,0,0,0,0,0,0,0,0,0,0,0h0c0,0-.1,0-.2,0-1.5.3-2.1,1.2-2,3.1,0,.1,0,.3-.1.4l-.5.5c0,0-.2.1-.3.1-.3,0-.5,0-.6.2-.1.2,0,.7,0,.9,0,.2,0,.3-.1.4s-.3.2-.4.2c-.3,0-.4,0-.5,0-.1.1-.1.6-.1.9s-.2.5-.5.5c-.5,0-.6.1-.6,1.1s-.2.5-.5.5c-.3,0-.5,0-.5.2-.1.1,0,.5,0,.9,0,.1,0,.3-.1.4-.1.1-.2.2-.4.2-.4,0-.5,0-.5,0-.1.1,0,.6,0,.9,0,.1,0,.3-.1.4s-.2.2-.4.2c-.3,0-.5,0-.5,0-.1.1,0,.6,0,1,0,.3-.1.5-.4.5,0,0,0,0,0,0,0,0,0,0,0,0,0,0,0,0,0,.1h0c0,.4-.2.6-.5.6s-.4,0-.4,0c0,0,0,.3,0,.4,0,.1,0,.2,0,.3,0,.3-.1.5-.4.6-.1,0-.3,0-.2.4,0,.1,0,.3-.1.4-1.9,2.2-2.8,4.7-2.7,7.6,0,.4,0,.8-.1,1.2,0,.2-.1.3-.2.5,0,0-.1.2-.1.3,0,.3.3.7.5,1,0,0,.2.2.4.1.8-.1,1.5,0,2.3.2,1.5.3,2.7.5,3.8-1.1,0-.1.2-.2.3-.2.3,0,.6,0,.9-.1h.3c.2,0,.4,0,.5.2.1.2.1.4,0,.5-.5.9-1,1.6-1.5,2.1-1.8,3-4.3,4.9-7.4,5.7-7.8,1.9-18.2-3.8-27.3-9.6-1.9-1.3-3.2-1.8-3.9-1.4-1.1.5-1.3,3-1.5,5.7-.3,3.9-.7,8.3-4.1,9.8-1.6.6-3.3-.9-5-2.3-2.2-1.9-3.6-3-4.9-1.8-3.9,2.6-10.3,6.4-14.6,6.4ZM281,213.5s0,0,0,0c13.1,1.1,14.6,16.3,15.5,24.4.2,1.2.7,2.1,1.6,2.5,2.6,1.1,8.4-1,15.6-5.8,1.9-1.9,4.2,0,6.2,1.8,1.4,1.2,2.9,2.5,3.9,2.2,2.8-1.2,3.1-5.3,3.4-8.9.2-3.1.5-5.7,2.1-6.5,1.1-.5,2.7,0,4.9,1.5,8.9,5.7,19.1,11.2,26.5,9.4,2.8-.7,5.1-2.5,6.8-5.3,0,0,0,0,0-.1.2-.2.3-.4.5-.6-1.3,1.3-2.9,1-4.2.8-.7-.1-1.4-.2-2-.2-.4,0-.8,0-1.2-.3-.5-.4-.8-1-.9-1.7,0-.4.2-.6.3-.9,0,0,.1-.2.1-.3,0-.2,0-.5,0-.8-.1-3.1.8-5.8,2.8-8.2,0-.5.2-.9.5-1.2,0-.4-.1-.8.1-1.2.1-.2.3-.3.6-.4,0-.3.2-.5.4-.7,0-.5,0-1,.3-1.4.2-.2.4-.3.7-.4,0-.5,0-.9.3-1.2.2-.2.4-.3.8-.4,0-.4,0-.9.3-1.2.2-.2.4-.4.8-.5,0-.6.2-1.4,1.1-1.6,0-.4.1-.9.5-1.2.2-.2.4-.3.6-.3,0-.4,0-.8.2-1.1.2-.3.6-.5,1.1-.6l.2-.2c0-2,.7-3.3,2.3-3.8-.1-.7,0-1.2.3-1.7.3-.5.9-.9,1.7-1.1,0-.5,0-1.2.3-1.7.3-.3.7-.6,1.2-.6,0-.5.3-.7.5-.9,0-.5,0-1,.4-1.4.3-.3.7-.4,1.2-.4,0,0,0,0,0,0,0-.6,0-1.2.3-1.7.2-.2.4-.3.7-.4,0-.4,0-.9.3-1.2.2-.3.5-.4.9-.5h0c.3-1.5.7-3.1,2.5-3.6,0-.5,0-1,.4-1.3.2-.2.4-.3.8-.4,0-.7,0-1.4,0-2.1,0-2.2-.2-4.5.4-6.8.2-.6.2-1,0-1.1-.9-.4-1.4-1-1.5-1.7,0-.7.4-1.5,1.3-2.2,1-.7,1.7-1.6,2.5-2.6.9-1.1,1.9-2.3,3.2-3.1,0-.2.2-.4.4-.5-2.3-1.8-4.4-3.8-6.4-6-4.8-3.8-15.7-3.8-23.5-1.9-3.1.5-4.5,3.4-6,6.4-1.2,2.5-2.5,5.1-4.9,6.5-9,6.2-15.8.8-22.3-4.4-3.2-2.6-6.5-5.2-10.1-6.5-4.9-2.2-11-.8-17,.5-7.2,1.6-13.9,3.1-16.3-2.8-.9-2.5-1.5-4.5-2-6.5-1-3.9-1.9-7.2-5.3-12.1-3.7,1.8-7.8,2.8-12.2,2.9-.3.2-1.3,2.3-2,3.8-.7,1.6-1.6,3.4-2.4,4.8,1.1,1.7,3.4,4,7.3,2.5.2,0,.4,0,.6.1.1.2.2.4,0,.6-.9,1.5-1.5,3.2-2.1,5-1.4,3.9-2.8,8-7.2,9.1,2,2.1,1,4.7.2,6.7-.4,1.1-.8,2.1-.8,3,0,12.1,3.5,23.3,7.2,35.3l.8,2.6c.9,2.7,6.5,5.5,11.1,4.7.3-1.1,1.8-2.6,2.1-2.9,0,0,.2-.1.4-.1Z"/>
        </g>
        <g>
          <path class="cls-4" d="M245,268c-10,13-18,33-7,44,6,5,7-5,13-9,4-3,7,4,11,5v-4c7-7,18-6,23,0,7,8,18,13,19,25,8-3,17,5,26,1,6-3,13,13,19,8,3-3-5-10-6-16,2,0,3-2,5-1,2-12,12-14,23-16-2-4-2-8-2-12,4.3,2.6,9.4,0,13.3-2.1-.4-.4-.5-.9-.3-1.6.2-.7.1-1.9,1.5-1.5-.3-1.7,1.3-1.7,2.1-2.2,2.4-1.5,4.8-3,7.9-2.6.7-1.7,2.1-2.4,3.8-2.6-.4-2.5-.3-4.9,0-7.3-1.7,0-1.1-1.2-1.2-2.1-1.2,0-1.1-.8-1-1.7-1.2.1-1.2-.7-1.1-1.6-1.4,0-2-.4-1.3-1.8h0c-1.5.5-1.2-.5-1.2-1.4-2.1-.4-3-1.8-3.3-3.8-.1,0-.3-.3-.4-.4-2-.3-2-2-2.3-3.4-.2-.5.2-1.2-.4-1.4l-3.9-3.7c.3-2,1.7-1.3,2.8-1.2-.2-2.5,1.2-5.3,3.6-6,1.6-.5,1.6-1.4,1.8-2.5-1.8.2-1.2-1.2-1.3-2-1.1,0-1.9-.5-1.3-1.8h0c-.8,0-.7-.4-.6-1h0c0,.1.1,0,.1,0-.6,0-.7-.5-.7-1-1.7-.8-1.7-2.6-2.1-4.1-.2-.8,0-1.6-.9-2.1-3.8.3-7.4,1.6-11.2,1.3-1.4,0-2.3-.2-1.7-1.9,0-.3.2-.5.3-.7.3-.6.3-1.2,0-1.9-.2,0-.3,0-.4,0-.4.8-.9,1.5-1.5,2-7,12-23,3-34-4-10-7-3,11-10,14-3,1-7-7-10-4-6,4-17,10-18,3-1-10-3-23-15-24,0,0-2,2-2,3-5,1-11-2-12-5-.3-.9-.5-1.7-.8-2.6-10.2,4.7-19.8,10.8-28.2,18.6,6,14,14,31,7,40Z"/>
          <path d="M346.5,339.5c-2.6,0-5.3-2.4-7.8-4.8-3-2.8-5.9-5.5-8.4-4.2-4.9,2.2-9.8.9-14.4-.3-4.1-1.1-8-2.1-11.6-.7-.1,0-.3,0-.4,0-.1,0-.2-.2-.2-.4-.7-8.3-6.2-13.1-12-18.2-2.4-2.1-4.8-4.2-6.9-6.5-2.3-2.8-6-4.5-10.1-4.7-4.5-.2-8.8,1.4-12,4.6v3.8c0,.2,0,.3-.2.4-.1,0-.3.1-.4,0-1.7-.4-3.1-1.8-4.5-3.1-2.4-2.3-4.1-3.5-6-2-2.2,1.5-3.7,3.8-5.1,5.8-1.5,2.3-2.9,4.3-4.8,4.6-1.2.2-2.4-.3-3.8-1.5-5.1-5.1-6.7-12.6-4.5-21.7,1.7-7.3,5.9-15.7,11.5-22.9,0,0,0,0,0,0,6.4-8.2-.2-23.5-6-37l-1.1-2.4c0-.2,0-.4.1-.6,8.2-7.6,17.8-13.8,28.3-18.7.1,0,.3,0,.4,0,.1,0,.2.2.3.3l.8,2.6c.9,2.7,6.5,5.5,11.1,4.7.3-1.1,1.8-2.6,2.1-2.9.1-.1.2-.2.4-.1,13.1,1.1,14.6,16.3,15.5,24.4.2,1.2.7,2.1,1.6,2.5,2.6,1.1,8.4-1,15.6-5.8,1.9-1.9,4.2,0,6.2,1.8,1.4,1.2,2.9,2.5,3.9,2.2,2.8-1.2,3.1-5.3,3.4-8.9.2-3.1.5-5.7,2.1-6.5,1.1-.5,2.7,0,4.9,1.5,8.9,5.7,19.1,11.2,26.5,9.4,2.8-.7,5.1-2.5,6.8-5.3,0,0,0,0,0-.1.5-.5.9-1.1,1.4-1.9,0-.1.2-.2.4-.3h.1c0,0,.2,0,.3,0,.2,0,.5.1.6.4.2.9.2,1.6-.1,2.3,0,.2-.2.4-.3.6-.2.7-.2.9-.1.9.1.2.9.3,1.4.3,2.3.2,4.4-.2,6.7-.6,1.4-.3,2.9-.5,4.4-.7.1,0,.2,0,.3,0,.8.5.9,1.2,1,1.9,0,.2,0,.4.1.5,0,.3.1.6.2.9.3,1.2.5,2.3,1.6,2.8.2,0,.3.3.3.5,0,.5,0,.5.2.5.2,0,.4.1.5.3,0,.2,0,.4-.1.5h0s0,0,0,0c0,0,0,0,0,0,.1,0,.3,0,.4.1s.2.2.2.4,0,.2,0,.3c-.2.3-.2.6-.1.7,0,0,.2.3,1,.4.2,0,.4.2.5.4,0,.2,0,.4,0,.7,0,.3,0,.7,0,.8,0,0,.2.1.7,0,.2,0,.3,0,.4.2.1.1.2.3.1.4v.3c-.2,1-.4,2.1-2.1,2.6-2.3.7-3.4,3.3-3.3,5.5,0,.1,0,.3-.1.4-.1.1-.3.2-.4.1-.2,0-.4,0-.7,0-.5,0-1-.2-1.2,0-.1.1-.3.3-.3.6l3.6,3.4c.6.3.6.9.6,1.2,0,.2,0,.3,0,.4,0,.3.1.5.1.7.2,1.4.5,2.2,1.8,2.4.1,0,.2,0,.3.1l.4.4c0,0,.1.2.1.3.3,2,1.2,3.1,2.9,3.4.2,0,.4.3.4.5s0,.3,0,.4c0,.2,0,.5,0,.6,0,0,.2,0,.5-.2.2,0,.4,0,.5.1h0c.2.3.2.5,0,.7-.3.5-.3.8-.2.9,0,.1.4.2,1,.2.1,0,.3,0,.4.2.1.1.2.3.1.4,0,.2,0,.8,0,1,0,0,.3,0,.5,0,.1,0,.3,0,.4.1.1.1.2.3.1.4,0,.4,0,.9,0,1,0,0,.2.1.5.1s.5.2.5.4c0,.2,0,.5,0,.8,0,.3,0,.7,0,.8s.2.1.6,0c.1,0,.3,0,.4.1.1.1.2.2.1.4-.2,2.2-.3,4.7,0,7.2,0,.1,0,.3,0,.4s-.2.2-.3.2c-1.8.2-2.8.9-3.4,2.3,0,.2-.3.3-.5.3-2.9-.4-5.2,1-7.6,2.5-.2.2-.5.3-.8.4-.8.3-1.2.5-1.1,1.3,0,.2,0,.3-.2.5-.1.1-.3.2-.5.1-.4-.1-.5,0-.5,0-.1,0-.2.4-.3.7,0,.2,0,.3-.1.5-.1.5,0,.8.2,1.1.1.1.2.3.1.4,0,.2-.1.3-.3.4-3.7,1.9-8.6,4.6-13,2.5,0,3.7.1,7.3,1.9,10.9s0,.3,0,.4-.2.2-.4.3c-10.6,1.9-20.6,3.7-22.6,15.6,0,.2-.1.3-.3.4-.1,0-.3,0-.5,0-.9-.5-1.6-.1-2.4.3-.5.3-1.1.6-1.8.7.5,2.3,2.1,4.8,3.5,7.2,2.2,3.5,4.2,6.8,2.2,8.8-1,.8-1.9,1.1-2.9,1.1ZM331.6,329.1c2.6,0,5.2,2.4,7.7,4.8,3.4,3.1,6.5,6.1,9.4,3.7,1.4-1.4-.4-4.2-2.4-7.5-1.6-2.5-3.3-5.4-3.8-8,0-.1,0-.3.1-.4,0-.1.2-.2.4-.2.7,0,1.3-.3,1.9-.6.8-.4,1.6-.9,2.7-.6,2.3-11.7,12.5-13.8,22.7-15.7-1.8-3.9-1.8-7.8-1.8-11.6s0-.3.3-.4c.2,0,.3,0,.5,0,3.9,2.4,8.7,0,12.3-1.9-.2-.4-.2-1,0-1.5,0-.1,0-.2,0-.4,0-.5.2-1.1.7-1.4.2-.1.4-.2.7-.2,0-1.2,1.1-1.5,1.7-1.8.2,0,.5-.2.6-.3,2.3-1.5,4.8-3,7.9-2.7.7-1.4,1.8-2.2,3.5-2.5-.3-2.2-.2-4.4,0-6.4-.3,0-.6-.2-.8-.4-.4-.4-.4-1-.4-1.6,0,0,0-.1,0-.2-.3,0-.5-.2-.7-.4-.3-.3-.4-.8-.3-1.3-.3,0-.5-.2-.7-.4-.3-.3-.4-.8-.4-1.2-.7,0-1.1-.2-1.4-.6-.2-.3-.3-.7-.2-1.1-.2,0-.5,0-.7-.2-.4-.3-.4-.9-.4-1.4-1.8-.5-2.9-1.8-3.3-4l-.2-.2c-1.9-.4-2.2-1.9-2.4-3.2,0-.2,0-.4-.1-.6,0-.2,0-.5,0-.7,0-.1,0-.3,0-.3,0,0-.1,0-.2,0l-3.9-3.7c-.1-.1-.2-.3-.2-.4.1-.7.4-1.2.8-1.5.6-.4,1.3-.3,2-.2,0,0,0,0,0,0,0-2.4,1.5-5.2,4-5.9,1-.3,1.2-.8,1.3-1.5-.3,0-.6-.2-.8-.4-.5-.4-.4-1.1-.4-1.6,0,0,0,0,0-.1-.7-.1-1.1-.4-1.3-.8-.2-.3-.2-.7-.1-1.1-.1,0-.2-.1-.3-.2-.2-.2-.2-.5-.2-.8-.3-.2-.5-.5-.5-1-1.4-.8-1.6-2.2-1.9-3.4,0-.3-.1-.6-.2-.9,0-.2,0-.4-.1-.6,0-.5-.1-.9-.4-1.1-1.4.1-2.8.4-4.1.6-2.3.4-4.6.9-7,.7-.9,0-1.7-.1-2.1-.7-.4-.6-.2-1.3,0-1.8.1-.3.2-.5.3-.7s.2-.5.2-.8c-.4.6-.7,1.1-1.1,1.5-1.8,3-4.3,4.9-7.4,5.7-7.8,1.9-18.2-3.8-27.3-9.6-1.9-1.3-3.2-1.8-3.9-1.4-1.1.5-1.3,3-1.5,5.7-.3,3.9-.7,8.3-4.1,9.8-1.6.6-3.3-.9-5-2.3-2.2-1.9-3.6-3-4.9-1.8-4.5,3-12.6,7.8-16.7,6-1.2-.5-2-1.6-2.2-3.3-1.2-11.6-3.7-22.5-14.3-23.6-.8.9-1.7,2-1.7,2.5s-.2.4-.4.5c-5.2,1-11.5-2.1-12.6-5.3l-.6-2c-10.2,4.7-19.3,10.7-27.3,18l.9,2.1c5.9,13.8,12.7,29.3,5.9,38.1-15.1,19.7-14.4,35.9-7,43.3,1.1.9,2.1,1.3,2.9,1.2,1.5-.2,2.7-2.1,4.1-4.2,1.4-2.1,3-4.5,5.3-6.1,2.8-2.1,5.2.2,7.3,2.1,1.1,1,2.3,2.1,3.5,2.6v-3.3c0-.1,0-.3.1-.4,3.5-3.5,8-5.2,12.9-5,4.4.2,8.3,2,10.8,5,2,2.3,4.4,4.4,6.8,6.4,5.6,4.9,11.3,9.9,12.3,18.2,3.7-1.2,7.6-.2,11.6.9,4.5,1.2,9.2,2.4,13.8.3.6-.3,1.2-.4,1.8-.4Z"/>
        </g>
        <g>
          <path class="cls-4" d="M188,206c5.7,27.6,29.9,28.8,51.1,24.6-.4-.9-.7-1.7-1.1-2.6,8.4-7.7,18-13.9,28.2-18.6-3.7-12-7.2-23.3-7.2-35.4s4-7,0-10c7-1,7-9,10-14-3.9,1.6-6.6-.5-8-3-2,1.9-5,1-8,1-3-1-6-3-6-7-21,4-26-17-36-31-.5-.7-1-1.5-1.6-2.2-5.6,5.6-12.7,9.7-20.4,11.2,5.8,7.8,6,15.6-.5,22.4,1.7,7.3,1.8,14.5-4.5,19.6-10,9-15,16-19,29-.4,1.8-1.3,3.1-2.5,4,3.3,3.4,7.2,6.4,11.5,9,4,2,12-4,14,3Z"/>
          <path d="M222.3,232.9c-19.4,0-31.1-9-34.7-26.8-1.1-3.9-4.2-3.3-7.7-2.7-2.2.4-4.4.8-6,0-4.2-2.5-8.2-5.5-11.6-9.1-.1-.1-.2-.2-.1-.4,0-.1,0-.3.2-.4,1.2-.9,2-2.1,2.3-3.7,3.9-12.6,8.5-19.7,19.2-29.3,6.6-5.2,5.9-12.6,4.4-19.1,0-.2,0-.3.1-.5,6.1-6.5,6.2-14,.4-21.8-.1-.1-.1-.3,0-.5,0-.2.2-.3.4-.3,7.4-1.4,14.3-5.2,20.2-11.1.1-.1.2-.2.4-.1.1,0,.3,0,.4.2.5.7,1.1,1.5,1.6,2.2,2.3,3.2,4.4,6.9,6.4,10.4,6.8,12,13.3,23.4,29.1,20.4.1,0,.3,0,.4.1.1,0,.2.2.2.4,0,3.1,1.9,5.2,5.6,6.5.8,0,1.5,0,2.2.1,2.1.2,4,.3,5.3-.9.1-.1.3-.2.4-.1.2,0,.3.1.4.2,1,1.7,3.4,4.4,7.4,2.8.2,0,.4,0,.6.1.1.2.2.4,0,.6-.9,1.5-1.5,3.2-2.1,5-1.4,3.9-2.8,8-7.2,9.1,2,2.1,1,4.7.2,6.7-.4,1.1-.8,2.1-.8,3,0,12.1,3.5,23.3,7.2,35.2,0,.2,0,.5-.3.6-10.4,4.7-19.7,10.9-27.8,18.2l1,2.2c0,.1,0,.3,0,.4,0,.1-.2.2-.3.3-6.2,1.2-11.8,1.9-16.9,1.9ZM183.4,202c2.2,0,4.2.8,5,3.9,0,0,0,0,0,0,4.5,21.7,21.3,29.9,49.9,24.3l-.9-2c0-.2,0-.4.1-.6,8.1-7.5,17.5-13.7,27.9-18.5-3.7-11.9-7.1-23.1-7.1-35.2s.4-2.2.9-3.3c.9-2.3,1.7-4.5-.7-6.3-.2-.1-.2-.3-.2-.5s.2-.3.4-.4c4.6-.7,6-4.5,7.4-8.6.5-1.4,1-2.7,1.6-4-3.7.9-6.1-1.5-7.1-3.1-1.6,1.2-3.6,1-5.6.8-.7,0-1.5-.1-2.2-.1s-.1,0-.2,0c-3.9-1.3-6.1-3.7-6.3-6.9-16.1,2.8-23-9.3-29.6-21-2-3.5-4-7.1-6.3-10.3-.4-.6-.8-1.2-1.2-1.7-5.7,5.5-12.4,9.2-19.5,10.8,5.6,7.9,5.3,15.6-.8,22.2,1.4,6.4,2.1,14.3-4.8,19.8-10.5,9.4-15,16.4-18.8,28.8-.3,1.6-1.1,2.9-2.2,3.9,3.3,3.3,7,6.2,11,8.5,1.3.7,3.3.3,5.4,0,1.3-.2,2.6-.5,3.8-.5Z"/>
        </g>
        <g>
          <path class="cls-4" d="M156,382c1-3,8-5,6-7-10-11-13-22-2-29,8-5,23,3,28-3,8-9,5-23,15-34,2-1,3-6,5-9,1-1,2-4,4-5,7.5-.7,14.1,3.8,20.7,3.8-.2-10.2,5.6-22.1,12.3-30.8,6.6-8.5,0-24-5.9-37.4-21.2,4.3-45.4,3.1-51.1-24.6-2-7-10-1-14-3-4.3-2.5-8.2-5.6-11.5-9-5.7,4.2-18.8,1.1-24.5,6-8,8,8,22,4,32-2,4-11-1-14,2-1.2.7-2.4,1.5-3.5,2.3,0,.2,0,.5,0,.7.6.4,1.4.4,2.1.4,1-.9.9,0,1,.6l.5.5c.4,0,1,0,.9.6,0,0-.5.3-.8.4,0,.3-.1.5-.1.8,0,.3,0,.5-.2.8-.2,1.1-.2,2.1,0,3.2,2,.9,1.6,2.3.8,3.8,0,1.6,0,3.2.4,4.8,1,.6,1,1.2,0,1.7,0,.9-.3,1.7-.4,2.6.9,1,.1.9-.6,1-.2.4-.3.7-.5,1.1.3.2.6.5.3.8,0,.2-.6,0-.9,0,.2,1.3-.7,1.3-1.5,1.2,0,1.5-.9,1.7-2.1,1.7-.5,1.2-.2,2.2.4,3.3,3.4,6.2,3.4,12.9,2,19.6-1.9,9.1-4.4,18-5.4,27.3-1.2,11.8-3.4,23.4-6,35-1.2,5.6-2,11.3-3.6,16.8-.8,3-3,4.9-4.8,7.2-.7.9-1.7,1.6-2.1,2.7,3.1,1.4,4.3,3.7,3.8,7,3.6,1.1,5.1,3.4,4.1,7.1,4.8,2,9.5,4.1,14.3,6.2,3.3,1.4,6.5,3.3,9.9,4.2,4,1.1,8.1,2,12.2,2.9.3-.1.5-.3.8-.4,6-3,4-13,7-20Z"/>
          <path d="M148.2,402.9s0,0-.1,0c-4.4-.9-8.4-1.9-12.2-2.9-2.3-.6-4.5-1.7-6.7-2.7-1.1-.5-2.2-1-3.3-1.5l-3.4-1.5c-3.6-1.6-7.2-3.2-10.9-4.7-.2,0-.4-.4-.3-.6.9-3.3-.3-5.4-3.8-6.5-.2,0-.4-.3-.3-.6.5-3.1-.6-5.2-3.5-6.5-.2-.1-.4-.4-.3-.6.3-.8.9-1.4,1.4-2,.3-.3.5-.5.7-.8.4-.6.9-1.1,1.4-1.6,1.4-1.7,2.8-3.2,3.4-5.4,1.1-3.7,1.8-7.5,2.5-11.1.3-1.8.7-3.8,1.1-5.6,3-13.6,4.9-24.7,6-34.9.7-6.6,2.2-13.2,3.7-19.5.6-2.6,1.2-5.2,1.7-7.8,1.6-7.8,1-13.9-1.9-19.3-.6-1.1-1-2.3-.4-3.7,0-.2.3-.3.5-.3,1.3,0,1.6-.2,1.6-1.2s0-.3.2-.4.2-.1.4-.1c.5,0,.8,0,.9,0,0,0,0-.3,0-.6,0-.1,0-.3.1-.4.1-.2.4-.2.7-.2,0,0,0,0,0,0h0c-.2-.1-.3-.4-.2-.6s.2-.4.2-.5c0-.2.2-.4.3-.6,0-.1.2-.2.4-.3.1,0,.2,0,.3,0,0,0,0,0,0,0,0,0,0,0-.1-.1,0-.1-.1-.2-.1-.4,0-.5.1-.9.2-1.3,0-.4.1-.8.2-1.3,0-.2.1-.3.3-.4.4-.2.5-.3.5-.4,0,0,0-.2-.5-.5-.1,0-.2-.2-.2-.3-.5-1.4-.4-2.9-.4-4.3v-.7c0,0,0-.2,0-.2.4-.7.7-1.5.5-2.1-.1-.4-.5-.7-1.1-1-.1,0-.2-.2-.3-.3-.3-1.1-.3-2.2-.1-3.4,0-.2,0-.3.1-.4,0-.1,0-.2,0-.4,0-.2,0-.3,0-.4,0,0,0-.2,0-.3,0-.2.1-.4.3-.5,0,0,0,0,0,0-.2,0-.3,0-.4-.1l-.5-.5c0,0-.1-.2-.1-.3,0-.1,0-.2,0-.3,0,0,0,0,0,0,0,0,0,0-.1.1,0,0-.2.1-.3.1-.7,0-1.7,0-2.4-.5-.2-.1-.2-.3-.2-.5v-.7c0-.2.2-.3.3-.4,1.2-.8,2.3-1.5,3.5-2.3,1.6-1.5,4.5-1.2,7.3-.8,2.9.4,5.7.8,6.6-1,1.7-4.4-.6-9.8-2.9-15-2.7-6.2-5.6-12.6-1-17.2,3.1-2.7,8.3-3.1,13.2-3.5,4.5-.3,8.8-.7,11.3-2.6.2-.1.5-.1.7,0,3.4,3.5,7.3,6.5,11.4,8.9,1.3.7,3.3.3,5.4,0,3.5-.7,7.5-1.4,8.8,3.4,4.5,21.9,21.5,30.1,50.5,24.2.2,0,.5,0,.6.3,5.9,13.7,12.6,29.2,5.8,37.9-7.8,10.2-12.4,21.6-12.2,30.5,0,.1,0,.3-.1.4,0,0-.2.2-.4.2h0c-3.1,0-6-.9-9.2-1.9-3.6-1.1-7.4-2.3-11.4-1.9-1.1.6-1.9,2-2.6,3.1-.4.7-.8,1.3-1.2,1.7-.7,1.1-1.4,2.6-2,4.1-.9,2.3-1.8,4.2-3.1,5-5.2,5.7-6.8,12.2-8.3,18.5-1.4,5.7-2.8,11.1-6.6,15.4-2.7,3.3-8.1,2.7-13.7,2-5.2-.6-10.6-1.2-14.4,1.1-3.9,2.5-6.2,5.6-6.6,9.3-.7,5.3,2.3,11.9,8.8,19,.4.4.5.8.5,1.2,0,1.1-1.4,2-2.9,3-1.4,1-3.1,2.1-3.5,3.3,0,0,0,0,0,0-1.1,2.6-1.5,5.6-1.9,8.5-.7,5-1.3,9.7-5.3,11.7l-.8.4c0,0-.2,0-.2,0ZM112.4,388.8c3.5,1.5,7.1,3,10.5,4.5l3.4,1.5c1.1.5,2.2,1,3.3,1.5,2.1,1,4.3,2.1,6.5,2.7,3.8,1,7.7,1.9,12,2.9l.6-.3c3.5-1.8,4.1-6.2,4.8-11,.4-3,.8-6.1,2-8.8.5-1.5,2.3-2.7,3.8-3.8,1.1-.8,2.4-1.7,2.5-2.3,0,0,0-.2-.2-.4-6.7-7.3-9.8-14.2-9-19.8.5-4,2.9-7.3,7.1-10,4-2.5,9.6-1.9,15-1.2,5.4.6,10.5,1.2,12.9-1.6,3.7-4.2,5-9.4,6.4-15,1.6-6.4,3.2-13.1,8.6-19,0,0,0,0,.1-.1,1-.5,1.8-2.4,2.7-4.5.6-1.5,1.3-3.1,2.1-4.3.4-.4.7-1,1.1-1.6.7-1.3,1.7-2.9,3.1-3.6,0,0,.1,0,.2,0,4.2-.4,8.1.8,11.9,2,2.9.9,5.6,1.7,8.4,1.8,0-9,4.6-20.4,12.4-30.6,6.4-8.2,0-23.2-5.8-36.6-29.4,5.8-46.7-2.6-51.3-25-1.1-3.9-4.2-3.3-7.7-2.6-2.2.4-4.4.8-6,0-4.1-2.4-7.9-5.4-11.3-8.8-2.8,1.9-7.1,2.2-11.5,2.5-4.8.4-9.7.7-12.6,3.2-4,4-1.5,9.9,1.2,16,2.4,5.4,4.8,11,2.9,15.8-1.2,2.5-4.5,2-7.6,1.6-2.6-.3-5.2-.7-6.5.5,0,0,0,0,0,0-1.1.7-2.2,1.4-3.3,2.1h0c.4.3.9.3,1.4.3.3-.3.7-.5,1.1-.4.5.2.5.7.5,1.1,0,0,0,0,0,.1l.2.2c.3,0,.7,0,1,.4.1.1.3.4.2.8,0,.2-.2.5-.8.7,0,0,0,0,0,.1,0,0,0,.2,0,.3s0,.1,0,.2c0,.1,0,.2,0,.3,0,.1,0,.3-.1.5-.2,1-.2,1.8,0,2.7.7.4,1.2.9,1.4,1.5.3.9,0,1.9-.5,2.8v.6c0,1.3,0,2.5.3,3.8.6.4.8.8.8,1.2,0,.4-.3.8-.8,1.1,0,.4-.1.7-.2,1.1,0,.3-.1.7-.2,1.1.3.3.5.7.3,1.1-.2.5-.7.5-1.1.5,0,0,0,0,0,0,0,0,0,.2-.1.3,0,0,0,.1,0,.2.2.2.3.4.3.6,0,.2,0,.5-.2.6-.2.3-.5.3-.8.3,0,.3-.1.6-.3.8-.3.3-.8.4-1.2.4-.2,1.4-1.4,1.6-2.2,1.7-.3.9,0,1.7.5,2.6,3.1,5.6,3.7,11.9,2.1,19.9-.5,2.6-1.2,5.3-1.7,7.9-1.4,6.3-2.9,12.8-3.6,19.4-1,10.3-3,21.4-6,35.1-.4,1.9-.8,3.8-1.1,5.6-.7,3.7-1.4,7.5-2.5,11.2-.6,2.4-2.1,4.1-3.6,5.8-.4.5-.9,1-1.3,1.6-.2.3-.5.6-.8.9-.4.4-.8.8-1,1.3,2.8,1.4,4,3.7,3.7,6.9,3.5,1.2,4.9,3.7,4.1,7.2ZM128.4,239s0,0,0,.1l.5-.2h-.5Z"/>
        </g>
        <g>
          <path class="cls-4" d="M318.9,330.4c-5.2-1.2-10.2-3.2-14.9-1.4-1-12-12-17-19-25-5-6-16-7-23,0v4c-4-1-7-8-11-5-6,4-7,14-13,9-3.6-3.6-5.2-8.2-5.3-13.2-6.6,0-13.2-4.5-20.7-3.8-2,1-3,4-4,5-2,3-3,8-5,9-10,11-7,25-15,34-5,6-20-2-28,3-11,7-8,18,2,29,2,2-5,4-6,7-3,7-1,17-7,20-.3.1-.5.3-.8.4,8.1,1.8,16.3,3.2,24.6,4.5,2.5.4,3.7-.4,4.1-3.2.2-1.3.1-2.6,1.4-3.5,0-.4,0-1,.6-.9.2,0,.3.5.4.8h0c0,.1.1,0,.1,0,1.3,0,2.6,0,3.9,0s1.6,0,1.6,1.2h0c0,0,.1,0,.1,0,3.6-.5,6.8.6,10.1,1.7,1.7.5,3.6.9,5.3,1.4,1,.3,2,.5,2.4,1.7,1.1.1,2.4-.7,2.8,1.1h.2c1.9-.3,3.6.2,4.4,2.2.9-.2,1.7-.3,1.7,1,2.2-.3,3.4.6,3.8,2.7.8,0,1.8-.2,1.4,1.2h.2c0-.1-.2,0-.2,0,.9-.3,1.2,0,1.1,1l5.1.2c-.6,4,1.9,6.7,6,6.3.7,0,1.5-.9,2.1.2,6.5,0,12.9-1,19.3-1.6,1-.1,1.9-.2,2.7-1,2.8-2.8,3.8-2.9,7.2-1.4.8.4,1.6,1.3,2.4.7.8-.6.4-1.8.3-2.7-.5-3.7-2.2-7-3.6-10.3-.8-2-1.7-4.2-1.1-6.4,2.5-10.3,7.8-18.4,18.3-22,1.5-.5,2.7-1.3,3.8-2.6,3.6-4.5,8.2-7.4,14.1-8.1,2.2-.3,4.4-.3,6.5,0,4.1-4.5,10.7-4.6,15.5-8.5,2-2-1-7,3-12,3.2-3.8-.2-9.7-1.1-15.6Z"/>
          <path d="M231.6,422.4c-.2,0-.4,0-.4-.3-.2-.4-.3-.3-.8-.1-.3,0-.5.2-.8.2-2.1.2-3.9-.4-5.1-1.6-1.1-1.2-1.6-2.8-1.4-4.7l-4.6-.2c-.1,0-.3,0-.4-.2s-.1-.2-.1-.4c0-.4,0-.5,0-.5,0,0,0,0,0,0,0,0-.2,0-.4,0,0,0,0,0,0,0h0s0,0,0,0h0s0,0,0,0h0c-.1,0-.2,0-.3,0t0,0h0s0,0,0,0h0s0,0,0,0h0c0,0-.2-.1-.2-.2,0-.1,0-.2,0-.3h0s0,0,0,0c.1-.4,0-.6,0-.6,0,0-.4,0-.9,0-.3,0-.5-.1-.6-.4-.4-1.9-1.3-2.6-3.2-2.3-.1,0-.3,0-.4-.1-.1,0-.2-.2-.2-.4,0-.4-.1-.5-.1-.6-.2-.1-.7,0-1,0-.2,0-.5,0-.6-.3-.6-1.6-1.9-2.2-3.9-1.9h-.3c-.2,0-.4-.2-.5-.4-.2-.9-.5-.9-1.4-.8-.3,0-.6,0-1,0-.2,0-.4-.2-.4-.3-.3-.8-.8-1-1.8-1.3h-.2c-.8-.3-1.7-.5-2.6-.8-.9-.2-1.8-.5-2.7-.7h-.2c-3.2-1.1-6.2-2.1-9.5-1.7-.2.2-.5.2-.7,0h-.1c0-.2-.1-.3-.1-.5,0-.5-.2-.7-1.1-.7s-1.3,0-1.9,0c-.6,0-1.2,0-1.8,0-.2.1-.5.1-.7,0h-.1c0-.2,0-.2-.1-.3h0c0,0,0,0,0,0,0,.2,0,.3-.2.4-.9.6-1,1.4-1.1,2.5,0,.2,0,.5,0,.7-.2,1.6-.7,2.6-1.5,3.1-.8.6-1.8.7-3.2.5-9.1-1.4-17.1-2.9-24.6-4.5-.2,0-.4-.2-.4-.4,0-.2,0-.4.3-.5l.8-.4c3.5-1.8,4.1-6.2,4.8-11,.4-3,.8-6.1,2-8.8.5-1.5,2.3-2.7,3.8-3.8,1.1-.8,2.4-1.7,2.5-2.3,0,0,0-.2-.2-.4-6.7-7.3-9.8-14.2-9-19.8.5-4,2.9-7.3,7.1-10,4-2.5,9.6-1.9,15-1.2,5.4.6,10.5,1.2,12.9-1.6,3.7-4.2,5-9.4,6.4-15,1.6-6.4,3.2-13.1,8.6-19,0,0,0,0,.1-.1,1-.5,1.8-2.4,2.7-4.5.6-1.5,1.3-3.1,2.1-4.3.4-.4.7-1,1.1-1.6.7-1.3,1.7-2.9,3.1-3.6,0,0,.1,0,.2,0,4.2-.4,8.1.8,11.9,2,3.1.9,6,1.8,8.9,1.8.3,0,.5.2.5.5.1,5.2,1.8,9.6,5.1,12.9,1.1.9,2.1,1.3,2.9,1.2,1.5-.2,2.7-2.1,4.1-4.2,1.4-2.1,3-4.5,5.3-6.1,2.8-2.1,5.2.2,7.3,2.1,1.1,1,2.3,2.1,3.5,2.6v-3.3c0-.1,0-.3.1-.4,3.5-3.5,8-5.2,12.9-5,4.4.2,8.3,2,10.8,5,2,2.3,4.4,4.4,6.8,6.4,5.6,4.9,11.3,9.9,12.3,18.2,3.7-1.2,7.6-.2,11.6.9,1,.3,2,.5,2.9.7.2,0,.3.2.4.4.3,1.6.7,3.3,1.2,4.9,1.2,4.2,2.3,8.2-.2,11.1-2.2,2.8-2.2,5.6-2.1,7.9,0,1.7,0,3.2-.9,4.2-2.3,1.8-4.9,2.8-7.4,3.8-3,1.2-5.9,2.3-8.1,4.6-.1.1-.3.2-.4.2-2.1-.2-4.2-.2-6.4,0-5.5.7-10,3.2-13.8,7.9-1.1,1.4-2.4,2.2-4,2.8-9.3,3.2-15.2,10.3-18,21.6-.6,2,.3,4.1,1,6,.3.7.5,1.2.8,1.8,1.2,2.7,2.4,5.6,2.9,8.7,0,.2,0,.3,0,.5.1.8.3,2-.6,2.7-.9.7-1.7,0-2.4-.3-.2-.1-.4-.2-.5-.3-3.1-1.4-3.9-1.4-6.6,1.3s-2,1-3,1.1c-1.7.2-3.5.3-5.2.5-4.6.5-9.4,1-14.2,1.1h0ZM230.9,420.9c.3,0,.7.1,1,.5,4.6,0,9.3-.6,13.8-1.1,1.7-.2,3.5-.4,5.2-.5.9,0,1.7-.2,2.4-.9,2.9-2.9,4.1-3.1,7.8-1.5.2.1.5.3.7.4.7.4.9.6,1.2.4.4-.3.3-.9.2-1.7,0-.2,0-.4,0-.6-.4-3-1.6-5.7-2.8-8.4-.3-.6-.5-1.2-.8-1.8-.8-2.1-1.8-4.4-1.1-6.7,2.8-11.7,8.9-19,18.6-22.3,1.5-.5,2.6-1.2,3.6-2.5,3.8-4.8,8.7-7.6,14.4-8.3,2.1-.3,4.3-.3,6.3,0,2.3-2.4,5.3-3.6,8.3-4.7,2.5-.9,5-1.9,7.1-3.6.6-.6.6-1.9.6-3.4,0-2.3-.1-5.4,2.3-8.5,2.1-2.6,1.1-6.3,0-10.2-.4-1.5-.9-3.1-1.2-4.6-.9-.2-1.8-.4-2.6-.7-4.1-1.1-8-2.1-11.6-.7-.1,0-.3,0-.4,0-.1,0-.2-.2-.2-.4-.7-8.3-6.2-13.1-12-18.2-2.4-2.1-4.8-4.2-6.9-6.5-2.3-2.8-6-4.5-10.1-4.7-4.5-.2-8.8,1.4-12,4.6v3.8c0,.2,0,.3-.2.4-.1,0-.3.1-.4,0-1.7-.4-3.1-1.8-4.5-3.1-2.4-2.3-4.1-3.5-6-2-2.2,1.5-3.7,3.8-5.1,5.8-1.5,2.3-2.9,4.3-4.8,4.6-1.2.2-2.4-.3-3.8-1.5-3.4-3.4-5.2-7.8-5.4-13.1-2.9,0-5.7-1-8.7-1.9-3.6-1.1-7.4-2.3-11.4-1.9-1.1.6-1.9,2-2.6,3.1-.4.7-.8,1.3-1.2,1.7-.7,1.1-1.4,2.6-2,4.1-.9,2.3-1.8,4.2-3.1,5-5.2,5.7-6.8,12.2-8.3,18.5-1.4,5.7-2.8,11.1-6.6,15.4-2.7,3.3-8.1,2.7-13.7,2-5.2-.6-10.6-1.2-14.4,1.1-3.9,2.5-6.2,5.6-6.6,9.3-.7,5.3,2.3,11.9,8.8,19,.4.4.5.8.5,1.2,0,1.1-1.4,2-2.9,3-1.4,1-3.1,2.1-3.5,3.3-1.1,2.6-1.5,5.6-1.9,8.6-.7,4.8-1.3,9.4-4.9,11.5,7.1,1.5,14.7,2.9,23.2,4.2,1.1.2,1.9,0,2.4-.3.6-.4.9-1.2,1.1-2.5,0-.2,0-.4,0-.7.1-1,.2-2.2,1.3-3,0-.3,0-.7.4-.9.1-.1.4-.3.8-.2h0c.4,0,.6.4.7.8.6,0,1.2,0,1.8,0,.7,0,1.3,0,2,0s1.8,0,2,1.2c3.5-.4,6.7.7,9.8,1.7h.2c.8.3,1.7.5,2.6.7.9.2,1.8.5,2.7.7h.2c.9.3,1.9.6,2.4,1.7.2,0,.3,0,.5,0,.8,0,1.9-.2,2.3,1.1,2.1-.3,3.7.5,4.5,2.2.5,0,1,0,1.4.2.2.2.4.4.5.8,2-.1,3.2.8,3.7,2.7.5,0,1,0,1.3.4.2.2.3.4.3.7.2,0,.4,0,.6.2.3.2.4.6.4.9l4.6.2c.1,0,.3,0,.4.2,0,.1.1.3.1.4-.3,1.8.1,3.4,1.1,4.4,1,1,2.5,1.5,4.3,1.3.2,0,.4,0,.5-.1.2,0,.5-.2.9-.2ZM178.8,399.8s0,0,0,0c0,0,0,0,0,0Z"/>
        </g>
        <g>
          <path class="cls-4" d="M326.6,370.6c2.1-.7,4.2,0,5.7,1.8.4.6.9,1.3,1.7,1.1,4.7-1.3,7.9,1.4,11,4.3,2,1.9,4.1,3.2,7.1,2.8,2.1-.3,4,.5,5.5,2.1,3.5,3.7,7.6,4.5,12.1,2.3,5.2-2.5,10.6-4.6,16.3-5.5,1.5-.3,2.4-1.2,2-2.6-1-3.3.8-5.2,3.2-6.8,5.8-3.8,10.8-8.6,16.1-13,6.3-5.2,11-11.7,13-19.8-5.1-1.4-10.4-2.2-15.2-4.7-1.4-.7-2.8-1.4-3.6-2.9-.7-.3-1.4-.7-2.1-1-4.4-1.6-6.4-4.7-6.1-9.5,0-3,.6-5.9.8-8.9.2-1.3-1-3,.9-4h0c0-1.6.2-3.1-1.1-4.3-2.5.5-5.5-1.2-5.8-3.4,0-.1-.3-.3-.4-.4-2.5-1.6-4.4-3.6-4.4-6.8-.4-.1-.8-.3-1-.5-3.9,2.1-9,4.7-13.3,2.1,0,4,0,8,2,12-11,2-21,4-23,16-2-1-3,1-5,1,1,6,9,13,6,16-6,5-13-11-19-8-3.7,1.7-7.5,1.3-11.1.4,1,5.8,4.3,11.7,1.1,15.6-4,5-1,10-3,12-4.8,3.8-11.5,4-15.5,8.5,2.6.3,5.1,1,7.5,2.1,5.7,2.8,11.4,4.1,17.6,2Z"/>
          <path d="M364.9,386.7c-2.8,0-5.4-1.2-7.7-3.7-1.4-1.5-3.2-2.2-5.1-1.9-3.4.5-5.7-1.2-7.5-2.9-3.2-3-6.2-5.4-10.5-4.2-1.2.3-1.9-.7-2.2-1.3-1.3-1.7-3.2-2.2-5.1-1.6-5.6,1.9-11.3,1.2-18-2-2.2-1.1-4.7-1.8-7.4-2.1-.2,0-.3-.1-.4-.3,0-.2,0-.4,0-.5,2.3-2.5,5.4-3.7,8.4-4.9,2.5-.9,5-1.9,7.1-3.6.6-.6.6-1.9.6-3.4,0-2.3-.1-5.4,2.3-8.5,2.1-2.6,1.1-6.3,0-10.2-.5-1.6-.9-3.3-1.2-5,0-.2,0-.3.1-.4.1-.1.3-.2.5-.1,3.4.8,7.1,1.3,10.8-.4,3.1-1.6,6.4,1.5,9.5,4.4,3.4,3.1,6.5,6.1,9.4,3.7,1.4-1.4-.4-4.2-2.4-7.5-1.6-2.5-3.3-5.4-3.8-8,0-.1,0-.3.1-.4,0-.1.2-.2.4-.2.7,0,1.3-.3,1.9-.6.8-.4,1.6-.9,2.7-.6,2.3-11.7,12.5-13.8,22.7-15.7-1.8-3.9-1.8-7.8-1.8-11.6s0-.3.3-.4c.2,0,.3,0,.5,0,4.1,2.5,9.1-.2,12.8-2.1.2-.1.4,0,.6,0,.2.2.4.3.8.4.2,0,.4.3.4.5,0,2.6,1.3,4.5,4.2,6.4,0,0,0,0,0,0l.4.4c0,0,.1.2.1.3.1.8.6,1.5,1.4,2.1,1.1.8,2.5,1.1,3.8.9.2,0,.3,0,.4.1,1.3,1.2,1.3,2.7,1.3,4v.5c0,.2-.1.5-.3.5-.9.5-.9,1.1-.7,2.2,0,.5.2,1,0,1.4,0,1.3-.2,2.6-.4,3.8-.2,1.6-.4,3.3-.4,5-.3,4.6,1.5,7.5,5.8,9,.4.2.7.3,1.1.5.3.2.7.3,1,.5.1,0,.2.1.2.2.7,1.4,2,2,3.4,2.7,3.5,1.8,7.3,2.7,11.1,3.6,1.4.3,2.7.7,4.1,1,.3,0,.4.3.4.6-1.9,7.7-6.3,14.4-13.2,20.1-1.5,1.2-2.9,2.5-4.4,3.8-3.7,3.2-7.5,6.5-11.7,9.3-2.4,1.6-3.9,3.3-3,6.2.2.7.1,1.4-.2,1.9-.4.7-1.2,1.1-2.2,1.3-4.9.8-10,2.5-16.2,5.5-1.7.8-3.4,1.3-5,1.3ZM353,380c1.8,0,3.6.8,5,2.3,3.4,3.5,7.2,4.3,11.5,2.2,6.2-3,11.5-4.8,16.4-5.5.7-.1,1.3-.4,1.5-.9.2-.3.2-.7,0-1.1-1.1-3.7,1.1-5.8,3.4-7.4,4.1-2.7,8-6,11.6-9.2,1.5-1.3,2.9-2.5,4.4-3.8,6.5-5.4,10.8-11.8,12.7-19.1-1.2-.3-2.4-.6-3.6-.9-3.8-.9-7.7-1.9-11.3-3.7-1.4-.7-2.8-1.4-3.7-3-.3-.1-.6-.3-.9-.4-.3-.2-.7-.3-1-.5-4.6-1.7-6.7-4.9-6.4-10,0-1.7.2-3.4.4-5.1.1-1.2.3-2.5.4-3.8,0-.4,0-.8,0-1.2-.2-.9-.4-2.2,1-3.1v-.3c0-1.2,0-2.3-.8-3.1-1.4.2-3-.2-4.3-1.1-1-.7-1.6-1.6-1.8-2.6l-.2-.2c-2.1-1.3-4.4-3.3-4.6-6.8-.2,0-.4-.2-.6-.3-3.6,1.9-8.4,4.4-12.7,2.4,0,3.7.1,7.3,1.9,10.9s0,.3,0,.4-.2.2-.4.3c-10.6,1.9-20.6,3.7-22.6,15.6,0,.2-.1.3-.3.4-.1,0-.3,0-.5,0-.9-.5-1.6-.1-2.4.3-.5.3-1.1.6-1.8.7.5,2.3,2.1,4.8,3.5,7.2,2.2,3.5,4.2,6.8,2.2,8.8-3.5,2.9-7.2-.4-10.7-3.7-3-2.8-5.9-5.5-8.4-4.2-3.7,1.7-7.5,1.3-10.7.6.3,1.4.7,2.8,1.1,4.1,1.2,4.2,2.3,8.2-.2,11.1-2.2,2.8-2.2,5.6-2.1,7.9,0,1.7,0,3.2-.9,4.2-2.3,1.8-4.9,2.8-7.4,3.8-2.7,1-5.3,2-7.4,3.9,2.4.4,4.6,1.1,6.7,2.1,6.5,3.2,11.8,3.8,17.2,2,0,0,0,0,0,0,2.4-.8,4.6,0,6.3,2,.5.7.8,1,1.2.9,4.8-1.3,8,1.2,11.5,4.4,1.7,1.6,3.7,3.1,6.7,2.7.3,0,.6,0,.9,0Z"/>
        </g>
        <g>
          <path class="cls-4" d="M395.8,159.4c.3-.7.8-1.1,1.6-1.1.5-.7,1.1-1.4,1.6-2.1.5-.9,1.2-1.6,2.1-2.1,3-2,3.5-4.9,3.2-8.2,0-1-.9-2.6,1.1-3v-.7c-.6-5.7,2.4-10.5,4-15.6,0,0,.4,0,.7-.2,0-1-.7-2.4,1.1-2.7v-.2c0-1-.6-2.2,1.1-2.5v-.2c-.1-1-.7-2.3,1.1-2.5,2.4-5.3,5-10.4,7-15.9-6.3-2.2-12.6-4.7-19.6-4.3-4.5.2-9,0-13.5-.2-3.1,0-5.7-1.3-6.9-4.4-3.9-.5-6.7-2.5-8.3-6.3-.4-.9-1.1-1.6-1.6-2.4h0c0-.3-.3-.5-.5-.7-2.8-1-5.8-.6-8.3.5-3.6,1.6-6.9.9-10-.5-5.3-2.4-10.8-4.6-15.7-7.9-.7,0-1.6.4-2.1,0l-5.1-5s-.5-.4-.7-.5c-2.6,0-4.4-1.1-5.5-3.5-.4-.4-.8-.5-1.3-.4-.6.6-1.2.6-1.6-.2-.1-.4-.3-.6-.7-.5-.5,0-1.1,0-1.3-.6h0c-.3,0-.5-.2-.6-.5-.5,0-1-.1-.9-.8-1.5.4-1.2-.7-1.2-1.5,0-.2-.2-.4-.3-.6-2,1.3-5.5,1.7-8.2,1.2-1.9,8.5-6.5,16.8-11.7,19.6-11,6-4,16-10,25-1.5,1.5-4.3,2.5-6.8,2.4,0,7.5-1.7,15.4-.4,22.7.2.1.2.4.2.9,0-.3-.1-.6-.2-.9-.1,0-.4,0-.8,0,7,9,6,13,9,21,4,10,22-3,33,2,11,4,19,20,32,11,5-3,5-12,11-13,8-2,19-2,24,2,2.2,2.4,4.5,4.4,6.9,6.3.4-.2.8-.2,1.3-.2.1-1.2.9-1.9,1.6-2.7Z"/>
          <path d="M343.3,170.2c-5.3,0-9.9-3.7-14.4-7.2-3.2-2.6-6.5-5.2-10.1-6.5-4.9-2.2-11-.8-17,.5-7.2,1.6-13.9,3.1-16.3-2.8-.9-2.5-1.5-4.5-2-6.5-1.1-4.4-2.1-8.2-6.9-14.3-.1-.2-.1-.4,0-.5.1-.2.4-.3.7-.3-.7-4.6-.3-9.5,0-14.2.2-2.6.4-5.3.4-7.9,0-.1,0-.3.2-.4,0,0,.2-.1.4-.1,2.4,0,5-.8,6.4-2.2,2.4-3.6,2.6-7.4,2.8-11.1.3-5.3.6-10.4,7.3-14,4.8-2.7,9.4-10.4,11.4-19.3,0-.3.3-.4.6-.4,2.8.5,6.1,0,7.9-1.1.1,0,.3,0,.4,0s.3.1.3.3l.3.6c0,0,0,.1,0,.2s0,.2,0,.3c0,.2,0,.7,0,.7,0,0,.1,0,.5,0,.2,0,.3,0,.5.1.1.1.2.3.2.4,0,.1,0,.2,0,.2h0s0,0,.4,0,.4.1.5.3c0,.2.1.2.1.2.3,0,.5.2.5.5s0,0,0,0c0,0,.3.1.6,0,.4-.1.7,0,.9.2.2.1.3.4.4.7,0,.2.2.3.3.3,0,0,.3,0,.5-.3,0,0,.2-.1.3-.1.7-.1,1.2,0,1.8.5,0,0,0,0,.1.1,1,2.3,2.7,3.3,5,3.2,0,0,.2,0,.2,0,.2.1.7.5.8.6l5.1,5c.2,0,.6,0,.9,0,.3,0,.6-.1.9-.1s.2,0,.3,0c4,2.7,8.5,4.7,12.8,6.6.9.4,1.9.8,2.8,1.2,3.7,1.7,6.6,1.8,9.6.5,2.9-1.3,6-1.5,8.7-.5,0,0,.1,0,.2.1.2.2.5.5.6.7,0,0,0,.1,0,.2h0c.1.3.3.5.4.7.4.5.8,1,1,1.6,1.5,3.6,4.1,5.5,7.9,6,.2,0,.3.1.4.3,1,2.6,3.2,4,6.4,4.1,4.4.2,9,.4,13.5.2,6.5-.4,12.4,1.7,18.1,3.7l1.6.6c.1,0,.2.1.3.3,0,.1,0,.3,0,.4-1.5,4-3.3,7.9-5,11.6-.7,1.4-1.3,2.8-2,4.3,0,.2-.2.3-.4.3-.3,0-.6.1-.7.3-.2.2,0,.7,0,1.1,0,.2,0,.4,0,.6v.2c0,.2-.2.5-.4.5-.9.2-.8.5-.7,1.3,0,.2,0,.5,0,.7v.2c0,.2-.2.5-.4.5-.8.1-.8.4-.7,1.3,0,.3,0,.6,0,.9,0,.2-.2.4-.3.4-.1,0-.3,0-.5.1-.4,1.4-1,2.7-1.5,4-1.4,3.5-2.8,7.2-2.4,11.2v.8c0,.2-.2.4-.4.5-.4,0-.7.2-.8.4-.2.3-.1.9,0,1.4,0,.2,0,.5.1.7.3,2.8,0,6.3-3.4,8.7-.8.5-1.5,1.1-1.9,1.9-.3.4-.6.8-.8,1.1-.3.3-.5.7-.8,1,0,.1-.2.2-.4.2-.6,0-.9.2-1.1.8,0,0,0,0,0,.1l-.3.3c-.6.6-1.1,1.2-1.2,2.1,0,.3-.2.5-.5.5-.4,0-.8,0-1.1.2-.2,0-.4,0-.5,0-2.4-1.9-4.8-4.1-6.9-6.4-4.8-3.8-15.7-3.8-23.5-1.9-3.1.5-4.5,3.4-6,6.4-1.2,2.5-2.5,5.1-4.9,6.5-2.9,2-5.5,2.8-8,2.8ZM312.8,154.3c2.3,0,4.5.3,6.4,1.2,3.7,1.3,7.1,4,10.4,6.7,6.6,5.2,12.8,10.2,21.2,4.4,2.1-1.3,3.3-3.7,4.5-6.1,1.5-3.1,3.1-6.3,6.7-6.9,8.2-2.1,19.3-2,24.4,2.1,2.1,2.2,4.3,4.3,6.6,6.1.3,0,.5-.1.8-.1.2-1,.8-1.6,1.4-2.2l.2-.3c.4-.8,1-1.2,1.8-1.3.2-.3.4-.6.7-.9.3-.3.5-.7.8-1,.5-.9,1.3-1.7,2.3-2.2,2.4-1.6,3.3-3.9,2.9-7.7,0-.2,0-.4,0-.5-.1-.7-.3-1.5.1-2.1.2-.3.6-.6,1.1-.7v-.3c-.4-4.2,1-7.9,2.5-11.6.5-1.3,1.1-2.7,1.5-4.1,0-.4.5-.5.7-.5,0-.1,0-.2,0-.4,0-.7-.2-1.9,1.1-2.3,0-.1,0-.3,0-.4,0-.7-.2-1.9,1.1-2.3,0,0,0-.2,0-.3-.1-.6-.2-1.3.2-1.9.2-.3.6-.5,1.1-.6.6-1.4,1.2-2.7,1.9-4.1,1.7-3.6,3.4-7.3,4.8-11.1l-1.2-.4c-5.6-2-11.5-4.1-17.8-3.7-4.5.2-9.1,0-13.5-.2-3.6-.1-6-1.6-7.2-4.4-4-.6-6.8-2.8-8.4-6.6-.2-.5-.6-.9-.9-1.4-.2-.3-.5-.6-.7-.9,0-.1,0-.2,0-.3,0,0-.1-.1-.2-.2-2.4-.8-5.2-.6-7.8.5-4.2,1.9-8,.6-10.4-.5-.9-.4-1.9-.8-2.8-1.2-4.3-1.9-8.8-3.9-12.9-6.6-.2,0-.4,0-.6,0-.6.1-1.1.2-1.6,0,0,0,0,0,0,0l-5.1-5c-.1-.1-.4-.3-.5-.4-2.6,0-4.6-1.2-5.8-3.7-.2-.2-.4-.3-.7-.2-.5.4-.9.5-1.2.4-.3,0-.7-.2-1-.9,0,0,0,0,0-.1,0-.1,0-.2,0-.2-1.1.3-1.6-.2-1.8-.7-.2,0-.3-.2-.4-.4-.3,0-.6-.1-.8-.4,0,0-.1-.2-.2-.3-.3,0-.6,0-.8-.2-.5-.4-.5-1-.4-1.6,0,0,0-.1,0-.2h0c-2,1-5,1.4-7.7,1-2.1,9-6.8,16.8-11.8,19.5-6.2,3.4-6.4,7.9-6.8,13.2-.2,3.8-.5,7.8-3.1,11.7-1.6,1.6-4.2,2.6-6.7,2.6,0,2.5-.2,5-.4,7.5-.4,4.8-.8,9.8,0,14.5.2.3.2.7.2,1.1s0,0,0,.1c4,5.5,4.9,9.1,6,13.3.5,2,1,4,2,6.4,2,5.1,8.1,3.7,15.1,2.2,3.6-.8,7.5-1.7,11.2-1.7ZM409.9,126.6h0s0,0,0,0Z"/>
        </g>
        <g>
          <path class="cls-4" d="M268,101c3,2,5,6,8,9,3,1,7,0,9-2,6-9-1-19,10-25,5.2-2.9,9.7-11.1,11.7-19.6-1.2-.2-2.2-.6-3-1.2-1-.7-.9-1.8-1.1-2.8-1.8-.4-3.6-.8-5.4-1.2-2.9-.3-3-.3-2.7-4.8h0c-2.3-.9-.8-2.9-1.1-4.3-1.3.1-1.2-.7-1.1-1.6-1.2.2-1.2-.7-1.2-1.5l-7.5-5.3c-.2-1.2-2.2-.7-2.1-2.2-.7,0-1.3,0-1.6-.7-2.4-1.5-4.8-3.2-7.3-4.7-3.5-2.1-7-4.2-9.5-7.5-1,.1-2.1.3-3.1.4-3.2.4-5-1.5-6.3-4.1-1.8,0-3.5-.6-5.1-1.5-1.2.2-1.9-.3-1.7-1.6-.5-.2-.6-.6-.5-1.1-.8,0-1.1-.4-1.2-1.1-.3-3.3-2.7-2.1-4.5-2-.8.1-1.3.6-1.2,1.5,0,.5.7,1.2-.3,1.5-.7.2-1.1-.4-1.5-.9-.5-.6-1-1.5-1.9-1-1.1.5.6,1.1.2,1.7-.7,1.1,1.1,2.5-.3,3.1-1,.4-1.6-1.2-2.4-1.8-1.6-1.2-1.2-2.3,0-3.4.8-.6,2-1,1.8-2.4-1-.1-1.9,0-2.7.5-.4,1.4-1.2,1.2-2.1.6-.6,0-1.1,0-1.6.4-.1,1.3-.9,1.1-1.8,1-5.5,2.3-6.4,7.2-6.7,12.2-.3,5.9-.4,11.8-1.1,17.7-.6,4.8-2.1,8.9-4.6,12,3.7,2.8,6.4,6.9,7.3,12.7,1.2,6.8.6,13.6-1.5,20,1.8.9,3.7,1.9,5.5,3,12,9,28,1,42,8Z"/>
          <path d="M278.5,110.9c-.9,0-1.9-.1-2.7-.4,0,0-.1,0-.2-.1-1.3-1.3-2.3-2.7-3.4-4.1-1.5-1.9-2.8-3.7-4.5-4.9-6.4-3.2-13.4-3.2-20.1-3.2-7.9,0-15.4,0-21.9-4.8-1.8-1.1-3.6-2.1-5.5-3-.2-.1-.3-.4-.3-.6,2.2-6.5,2.7-13.3,1.5-19.7-.8-5.3-3.2-9.4-7.1-12.4-.1,0-.2-.2-.2-.3,0-.1,0-.3.1-.4,2.4-3.1,3.9-7.1,4.5-11.8.5-4.4.7-8.9.9-13.2,0-1.5.1-3,.2-4.4.3-4.8,1.1-10.2,7-12.6,0,0,.2,0,.2,0h.2c.4,0,.7.1.9,0,0,0,.1-.3.2-.5,0-.2.1-.3.2-.4.5-.3,1.1-.6,1.9-.5,0,0,.1,0,.2,0,.6.4.8.4.9.4.1,0,.3-.3.4-.7,0-.1.1-.2.2-.3.8-.5,1.8-.7,3-.6.2,0,.4.2.4.4.2,1.4-.8,2.1-1.5,2.6-.2.1-.3.2-.5.3-.6.5-1,1-.9,1.4,0,.4.3.8.8,1.2.3.2.6.6.8.9.5.7.8.9,1.1.8.3-.1.3-.1,0-.9-.2-.5-.4-1.3,0-1.9,0,0-.1-.2-.2-.2-.2-.2-.5-.6-.4-1,0-.4.5-.6.7-.7,1.1-.6,1.9.3,2.3.9l.3.4c.4.5.6.7.9.6.2,0,.2,0,.2,0,0,0,0-.2-.1-.3,0-.2-.1-.4-.1-.6-.1-1.1.5-1.9,1.6-2,.4,0,.7,0,1.1-.1,1-.2,2.1-.4,3,.3.6.4.9,1.2,1,2.3,0,.7.3.7.6.6.2,0,.3,0,.4.2.1.1.2.3.1.4,0,.4,0,.5.2.5.2,0,.3.3.3.5,0,.3,0,.7.1.9.2.2.5.2,1,.1.1,0,.2,0,.3,0,1.5.9,3.2,1.3,4.9,1.4.2,0,.3.1.4.3,1.5,3,3.3,4.1,5.8,3.8.5,0,1-.1,1.5-.2.5,0,1.1-.2,1.6-.2.2,0,.3,0,.4.2,2.4,3.2,6,5.3,9.4,7.4,1.4.9,2.8,1.8,4.2,2.7,1,.7,2.1,1.4,3.1,2,0,0,.2.1.2.2.1.4.3.4.9.4h.2c.1,0,.3,0,.4.2s.1.2.1.4c0,.4.1.5.8.8.5.2,1.1.4,1.3,1.1l7.3,5.2c.1,0,.2.2.2.4,0,.4,0,.8.1,1,0,0,.2,0,.5,0,.2,0,.3,0,.4.1.1.1.2.3.2.4,0,.4,0,.9,0,1,0,0,.1.1.5,0,.2,0,.5.1.5.4.1.5,0,1.1,0,1.7-.2,1.2-.3,1.8.9,2.3.2,0,.4.3.3.6,0,0,0,.2-.1.2-.2,3.7-.2,3.7,2.3,4l5.5,1.2c.2,0,.3.2.4.4,0,.2,0,.5.1.7.1.9.2,1.4.8,1.8.7.5,1.6.9,2.8,1.1.1,0,.3.1.3.2,0,.1,0,.3,0,.4-2.1,9.1-6.9,17.2-11.9,20-6.2,3.4-6.4,7.9-6.8,13.2-.2,3.8-.5,7.8-3.1,11.7-1.6,1.7-4.4,2.6-6.9,2.6ZM276.3,109.6c2.7.9,6.5,0,8.4-1.9,2.4-3.6,2.6-7.4,2.8-11.1.3-5.3.6-10.4,7.3-14,4.7-2.6,9.2-10.1,11.3-18.8-1.1-.3-2-.6-2.6-1.1-1-.7-1.1-1.6-1.2-2.5,0-.1,0-.2,0-.3l-5.1-1.1c-3.2-.3-3.4-.8-3.1-5-1.5-.8-1.2-2.2-1.1-3.2,0-.3.1-.6.1-.9-.4,0-.6-.2-.8-.4-.3-.3-.4-.8-.3-1.2-.3,0-.5-.1-.6-.3-.4-.4-.5-.9-.5-1.5l-7.3-5.2c-.1,0-.2-.2-.2-.3,0-.3-.2-.4-.7-.6-.5-.2-1.2-.5-1.3-1.2-.5,0-1.2-.1-1.5-.9-1-.6-2-1.3-3-1.9-1.4-.9-2.8-1.8-4.2-2.7-3.4-2-6.9-4.2-9.5-7.4-.4,0-.8.1-1.3.2-.5,0-1.1.2-1.6.2-3.7.5-5.6-2-6.7-4.1-1.7-.1-3.3-.6-4.9-1.5-.9.1-1.4-.2-1.7-.4-.3-.3-.5-.8-.5-1.4-.2-.2-.5-.5-.5-.9-.5-.1-1-.5-1.2-1.5,0-.8-.3-1.4-.6-1.6-.5-.4-1.3-.2-2.2-.1-.4,0-.8.1-1.2.1-.7,0-.8.6-.7.9,0,.1,0,.3,0,.4.1.3.3.7,0,1.1-.1.3-.4.5-.8.6-1,.3-1.6-.5-1.9-.9h0c0-.2-.1-.3-.2-.4-.5-.7-.7-.8-1.1-.6,0,0,0,0,0,0,0,0,0,0,.1.1.2.3.7.8.3,1.4-.2.3,0,.6.1,1.1.2.6.6,1.6-.6,2.2-1,.4-1.7-.5-2.2-1.1-.2-.3-.4-.6-.7-.7-.8-.6-1.2-1.2-1.2-1.9,0-.7.4-1.5,1.3-2.2.2-.1.4-.3.6-.4.6-.4,1-.7,1.1-1.2-.7,0-1.3,0-1.8.4-.2.6-.5,1-1,1.1-.6.2-1.2,0-1.7-.4-.3,0-.6,0-1,.2,0,.4-.2.8-.5,1-.5.4-1.1.3-1.6.2h0c-5.3,2.3-6,7-6.3,11.7,0,1.5-.1,3-.2,4.4-.2,4.4-.4,8.9-.9,13.3-.5,4.7-2,8.7-4.4,11.9,3.8,3.1,6.2,7.3,7.1,12.7,1.2,6.4.7,13.2-1.4,19.8,1.7.9,3.5,1.8,5.2,2.8,6.3,4.7,13.6,4.7,21.4,4.7,6.9,0,13.9,0,20.6,3.3,0,0,0,0,0,0,1.8,1.2,3.3,3.1,4.8,5.1,1,1.3,2,2.7,3.2,3.9ZM235.7,17.1s0,0,0,0c0,0,0,0,0,0Z"/>
        </g>
        <g>
          <path class="cls-4" d="M158,129c1,0,4,1,4,3,9-2,13,0,18,9,1,2,6,2,8,1,7-7,7-15,1-23,21-4,37-27,33-49-.9-5.8-3.6-9.9-7.3-12.7-2.8,3.6-6.8,6.1-12.1,7.5-5.3,1.3-10.7,2.3-15.8,4.3-6.2,2.5-11.2,6.4-14.3,12.4-1.2,2.2-.9,4.7-.6,7.1.3,2.2-.4,3-2.6,3.7-6.7,2.2-12.9.4-19.3-.9-3.6-.8-7.2-1.8-10.6-3.2-1.5-.6-2.6-1.5-3.2-3-4.1-1.4-7.7-3.3-9.4-7.7-.5-1.4-1.2-2.8-2.3-3.8-3,2.2-6,.3-8.9-.2-1.5-.3-3.4-1.7-4.4-.6-.9,1,.3,2.9.8,4.4,2.1,6.6,3.9,13.3,5.2,20.2,1.5,7.7,2.6,15.5,2.2,23.4,0,2.1-.5,3-2.7,2.3-2.3-.7-4.8-.9-7-2.2-.9-.5-1.9-.5-2.8-.3,3.8,4.2,9.7,6.7,15.2,8.8,12.1.6,23.6-2.2,35.9-.5Z"/>
          <path d="M184.5,143.2c-.3,0-.6,0-.9,0-1.2,0-3.3-.5-4-1.9-4.9-8.8-8.6-10.7-17.4-8.7-.1,0-.3,0-.4,0-.1,0-.2-.2-.2-.4,0-1.6-2.7-2.5-3.5-2.5s0,0,0,0c-6.9-1-13.8-.5-20.4,0-5,.4-10.2.8-15.4.5,0,0-.1,0-.2,0-6-2.3-11.7-4.8-15.4-8.9-.1-.1-.2-.3-.1-.5s.2-.3.4-.3c.9-.2,2-.3,3.2.4,1.4.9,3.1,1.2,4.6,1.6.8.2,1.5.3,2.3.6.8.2,1.3.3,1.6,0,.4-.3.5-1.1.5-1.9.4-8.4-.9-16.5-2.2-23.3-1.2-6.3-2.9-12.9-5.2-20.1-.1-.3-.3-.7-.4-1.1-.6-1.3-1.2-2.8-.3-3.8.9-1,2.3-.5,3.5,0,.5.2.9.4,1.4.5.7.1,1.5.3,2.2.6,2.2.6,4.2,1.2,6.3-.3.2-.1.5-.1.6,0,1,.9,1.8,2.2,2.4,4,1.7,4.3,5.4,6.1,9.1,7.4.1,0,.2.2.3.3.5,1.3,1.4,2.1,2.9,2.7,3,1.2,6.4,2.3,10.5,3.2.7.2,1.5.3,2.2.5,5.7,1.2,11,2.3,16.8.4,2.1-.7,2.5-1.3,2.3-3.2-.3-2.4-.6-5,.7-7.4,3-5.7,7.7-9.9,14.6-12.6,4-1.6,8.1-2.5,12.2-3.5,1.2-.3,2.5-.6,3.7-.9,5.1-1.3,9.1-3.8,11.8-7.3.2-.2.5-.3.7,0,4.1,3.1,6.6,7.4,7.5,13,3.9,21.6-11.6,44.9-32.6,49.4,5.9,8.2,5.3,16.2-1.5,23s0,0-.1,0c-.9.5-2.3.7-3.7.7ZM167.5,130.8c5.6,0,8.9,2.9,12.9,10,.4.7,1.6,1.2,3.2,1.4,1.5.1,3.1-.1,4-.5,6.6-6.6,6.9-14.3.9-22.3-.1-.1-.1-.3,0-.5,0-.2.2-.3.4-.3,20.9-4,36.5-27.1,32.6-48.4-.8-5.1-3.1-9.2-6.7-12.1-2.9,3.5-6.9,5.9-12.1,7.3-1.2.3-2.5.6-3.7.9-4,.9-8.1,1.9-12,3.4-6.6,2.7-11.2,6.6-14,12.2-1.1,2.1-.8,4.5-.5,6.8.4,2.7-.8,3.5-2.9,4.2-6,2-11.8.8-17.3-.4-.7-.2-1.5-.3-2.2-.5-4.2-.9-7.7-2-10.7-3.2-1.7-.7-2.8-1.6-3.4-3.1-3.9-1.3-7.7-3.3-9.5-7.9-.5-1.5-1.1-2.6-1.9-3.3-2.3,1.5-4.7.8-6.8.2-.7-.2-1.4-.4-2.1-.5-.5-.1-1-.3-1.5-.5-1.2-.5-2-.7-2.4-.2-.5.5,0,1.7.5,2.8.2.4.3.8.4,1.1,2.3,7.3,4,13.9,5.2,20.3,1.3,6.8,2.6,15,2.2,23.5,0,1.3-.2,2.2-.9,2.7-.5.4-1.3.4-2.4,0-.7-.2-1.4-.4-2.2-.6-1.6-.4-3.3-.8-4.9-1.7-.5-.3-1-.4-1.5-.4,3.6,3.6,8.8,5.8,14.3,7.9,5.1.3,10.3-.1,15.2-.5,6.7-.5,13.5-1,20.6,0,1,0,3.9.9,4.4,2.9,1.9-.4,3.6-.6,5.1-.6Z"/>
        </g>
        <g>
          <path class="cls-4" d="M126,131c-6.4-2.6-14.4-5.1-19.1-10.3-.5,0-.9.2-1.4.3-6,1.3-11.9,2.6-17.8,4-4.3,1-6.9,0-9.3-4.1-3.9-.3-6.3-2.7-8.2-5.8-1.2-1.9-2.5-3.8-3.7-5.7-4.6,0-8.4,1.5-10.7,5.9-.8,1.4-2.3,1.8-3.9,1.9-6.9.5-13.9,1.1-20.8,1.6,0,1.4,0,2.6-2,1.8-1.7-.7-3.8.6-5.5-.8-.9,0-1.7.1-2.6.1,0,2.3-1.3,1.9-2.7,1.6-.7.3-1.2.8-1.6,1.5v16.8c0,1.6,0,3.2.5,4.7,1.2,0,2.2.2,2.1,1.7.9,0,1.8-.2,1.5,1.1,0,0,0,0,0,0q0,0,0,.2c1.5-.3,2.3.6,2.9,1.9,1.9-.5,3.9-1.1,5.8-1.6.4-.7,1.4-.3,2-1l2.3,1.1c.8,1,2.9-.3,3.2,1.7h.2c2-.8,3.2-.2,3.5,2.1.5,0,1,0,1.1.6h0c1.6,0,3.1,0,3.3,2.1,3.5,1,7.5,1,10.1,4.3,1.3-.1,2.5-.1,2.7,1.6.8,0,1.6,0,1.6,1.1.9-.1,1.7-.1,1.6,1.2.9,0,1.9-.3,1.5,1.2v-.2c0,0,0,.2,0,.2.8-.3,1.2,0,1.2.9,1.4.3,3,.2,3,2.3h0c2.7.7,5.3,1.7,8.2,1.6,0,0,.3.6.4.9h.1c0,0,0,0,0,0l6.6,8c.6,0,1.2,0,1.8,0,.8-.2,1.4,0,1.3,1,.2.1.4.2.6.3,14-7.3,28.1-17.6,42.1-25.8,3-2,6-18-2-22Z"/>
          <path d="M85.9,179.3c0,0-.2,0-.3,0-.2,0-.3-.2-.5-.3-.2,0-.3-.3-.3-.5,0-.3,0-.4,0-.5,0,0-.3,0-.6,0-.3,0-.7,0-1.1,0-.3,0-.6,0-.9,0s-.3,0-.4-.2l-6.4-7.7c-.1,0-.2,0-.3-.1h-.1c0-.2,0-.2-.1-.3,0-.2-.1-.4-.2-.6-2.1,0-4-.5-5.9-1-.7-.2-1.4-.4-2.1-.5,0,0-.2,0-.2-.1h0c0-.2-.1-.3-.1-.5,0-1.3-.6-1.5-1.9-1.7-.2,0-.4,0-.7-.1-.2,0-.4-.3-.4-.5,0-.4,0-.5-.1-.5,0,0-.1,0-.4,0-.1,0-.2,0-.3,0,0,0,0,0,0,0h0c0,0-.1,0-.2-.2,0,0,0,0,0-.1,0,0,0-.2,0-.2h0s0,0,0,0c0,0,0,0,0,0,.1-.5,0-.6,0-.6,0,0-.6,0-.9,0h-.2c-.2,0-.3,0-.4-.1-.1-.1-.2-.2-.2-.4,0-.3,0-.5,0-.6-.2-.2-.7,0-.9,0-.1,0-.3,0-.4-.1-.1,0-.2-.2-.2-.4,0-.3,0-.5-.1-.5-.2-.2-.7,0-.9,0-.1,0-.3,0-.4-.1-.1,0-.2-.2-.2-.3-.1-1.1-.7-1.3-2.2-1.2-.2,0-.3,0-.4-.2-1.9-2.4-4.5-2.9-7.3-3.5-.8-.2-1.7-.4-2.6-.6-.2,0-.3-.2-.4-.4-.1-1.4-.9-1.6-2.8-1.6s-.5-.2-.5-.5,0,0,0,0c0,0-.2,0-.4,0-.1,0-.3,0-.4,0-.1,0-.2-.2-.2-.3-.1-1-.4-1.6-.9-1.8-.4-.3-1.1-.2-2,.1,0,0-.1,0-.2,0h-.2c-.2,0-.5-.2-.5-.4-.1-.7-.5-.8-1.3-.8-.6,0-1.2,0-1.7-.5l-1.9-.9c-.3.3-.7.3-1,.4-.4,0-.5.1-.6.3,0,.1-.2.2-.3.2-.9.2-1.9.5-2.9.8-1,.3-2,.6-2.9.8-.2,0-.5,0-.6-.3-.6-1.4-1.3-1.8-2.3-1.6-.2,0-.4,0-.5-.3,0-.1,0-.3,0-.4,0,0,0,0,0,0,0-.3,0-.4,0-.5-.1-.1-.8,0-1,0-.2,0-.3,0-.4-.1-.1-.1-.2-.2-.2-.4,0-.4,0-.7-.2-.9-.2-.2-.7-.3-1.3-.3-.2,0-.5-.1-.5-.4-.4-1.3-.5-2.8-.5-4.8v-16.8c0,0,0-.2,0-.2.5-.8,1.1-1.4,1.8-1.7,0,0,.2,0,.3,0h.2c.7.2,1.4.3,1.7,0,.2-.2.3-.6.3-1.2,0-.1,0-.3.1-.4,0,0,.2-.2.4-.2.4,0,.9,0,1.3,0,.4,0,.9,0,1.3,0s.2,0,.3.1c.8.7,1.8.6,2.8.5.8,0,1.7-.1,2.6.2.8.3,1,.2,1.1.2.2-.2.2-.9.2-1.5s.2-.5.5-.5c3.4-.2,6.9-.5,10.4-.8,3.5-.3,7-.6,10.4-.8,1.8-.1,2.9-.6,3.5-1.6,2.1-4.1,5.7-6,11.1-6.2.2,0,.3,0,.4.2.6.9,1.2,1.9,1.8,2.8.6,1,1.3,1.9,1.9,2.9,2.2,3.6,4.6,5.3,7.8,5.6.2,0,.3.1.4.2,2.3,3.8,4.6,4.8,8.8,3.9,6.1-1.5,12.2-2.8,17.8-4h.4c.3-.2.7-.2,1-.3.2,0,.3,0,.5.2,4,4.4,10.5,6.9,16.2,9.1.9.4,1.9.7,2.7,1.1,0,0,0,0,0,0,3.2,1.6,5.1,5.2,5.4,10.1.3,5.2-1.3,11.4-3.3,12.7-5.7,3.3-11.4,7.1-17,10.7-8.2,5.3-16.8,10.8-25.2,15.2,0,0-.2,0-.2,0ZM85.8,178.2s0,0,0,0c8.3-4.3,16.7-9.8,24.8-15,5.6-3.6,11.3-7.3,17-10.7,1.4-.9,3.2-6.3,2.8-11.8-.2-2.6-1-7.4-4.8-9.3-.9-.4-1.8-.7-2.7-1.1-5.8-2.2-12.3-4.7-16.4-9.2-.2,0-.5.1-.7.2h-.4c-5.6,1.3-11.7,2.6-17.8,4.1-4.5,1-7.2-.1-9.7-4.1-4.4-.4-6.8-3.4-8.3-6-.6-.9-1.2-1.9-1.8-2.8-.6-.9-1.1-1.7-1.7-2.6-5,.2-8,1.9-10,5.6-1,1.8-2.9,2.1-4.3,2.2-3.4.2-6.9.5-10.4.8-3.3.3-6.6.5-9.9.8,0,.8-.1,1.5-.7,1.9-.6.4-1.4.2-2,0-.6-.3-1.3-.2-2.1-.1-1.1,0-2.3.2-3.4-.6-.4,0-.7,0-1.1,0-.3,0-.6,0-.8,0,0,.7-.2,1.2-.6,1.5-.7.6-1.6.4-2.5.2h0c-.5.2-.8.6-1.2,1.1v16.7c0,1.7.1,3,.4,4.2h0c.7,0,1.3.2,1.7.6.3.3.5.7.5,1.1.5,0,1,0,1.3.4.2.2.3.5.3.8,1.4,0,2.1,1,2.6,1.9.8-.2,1.7-.5,2.5-.7.9-.3,1.8-.5,2.7-.8.3-.4.8-.5,1.2-.6.4,0,.6-.1.8-.3.1-.2.4-.2.6-.1l2.3,1.1c0,0,.1,0,.2.1.2.2.5.2,1.1.3.7,0,1.7,0,2.1,1.2,1-.3,1.8-.3,2.5,0,.6.4,1.1,1.1,1.3,2.1.3,0,.5,0,.7.2.1,0,.3.2.4.4,1.3,0,2.9.2,3.3,2.2.7.2,1.5.3,2.2.5,2.8.6,5.6,1.2,7.7,3.7,1,0,2.5,0,2.9,1.6.5,0,.9,0,1.2.3.2.2.4.4.4.8.5,0,.9,0,1.3.4.2.2.3.5.4.8.5,0,1,0,1.3.4.2.2.3.5.3.8.2,0,.4,0,.6.2.3.2.4.5.5.9,0,0,.2,0,.2,0,1.1.2,2.6.4,2.8,2.4.6.1,1.3.3,1.9.5,2,.5,3.9,1,5.9.9h0c.4,0,.6.3.8.9,0,0,.2,0,.2.2l6.5,7.8c.2,0,.5,0,.7,0,.3,0,.5,0,.8,0,.6-.1,1.1,0,1.4.2.3.2.4.6.4,1Z"/>
        </g>
        <g>
          <path class="cls-3" d="M447.2,490.3c-3.2-3.5-6.1-6.7-11.3-8.2-8.2-2.3-8.5-6.4-1.3-12-3.7-1.3-6.9-2.4-10.1-3.5,1.6-3.4,3.3-6.9,5.6-11.7-4.2.9-6.3,1.3-8.4,1.7-.5-.4-1-.7-1.5-1.1,1.8-3.1,3.6-6.1,5.8-9.9-1.9-2.9-9.7-2.7-7.1-10.5.8-.3,2.6-1.1,5-2.1-2.2-1.9-4.1-3.5-5.5-4.7,1.5-3.3,2.2-7.4,4.7-9.5,4.3-3.8,9.6-6.4,14.6-9.3,1-.6,3.1-.4,3.5-1.2,3-6.5,7-5.4,12.3-.7.6-2.9,1.3-4.9,1.4-6.9.3-4,0-7.9.5-11.9,0-.8,1.8-2.1,2.7-2,1,0,2.6,1.4,2.6,2.2.3,4.6,1.1,9.4.2,13.8-1.1,5,0,8.6,3.5,12v30.5c-7,5.6-6.7,13.6-6.9,21.4-.1,3.4.8,7.6-4.7,8.4,1,.4,2,.7,1.7.6-1.7,5.2-3.3,9.9-4.9,14.7h-2.3Z"/>
          <path class="cls-4" d="M446.2,481.5c-2.8-3.1-5.3-5.9-10-7.2-7.2-2-7.5-5.6-1.2-10.5-3.2-1.1-6.1-2.1-8.9-3.1,1.4-3,2.9-6,4.9-10.3-3.7.8-5.5,1.1-7.4,1.5-.4-.3-.9-.6-1.3-.9,1.6-2.7,3.2-5.4,5.1-8.7-1.7-2.5-8.5-2.4-6.3-9.2.7-.3,2.3-.9,4.4-1.8-1.9-1.6-3.6-3.1-4.9-4.1,1.3-2.9,2-6.5,4.1-8.4,3.8-3.3,8.5-5.6,12.9-8.2.9-.6,2.8-.4,3.1-1,2.7-5.7,6.2-4.8,10.8-.7.5-2.5,1.1-4.3,1.2-6.1.2-3.5,0-7,.4-10.4,0-.7,1.6-1.8,2.4-1.8.8,0,2.3,1.2,2.3,1.9.3,4.1,1,8.3.1,12.2-.9,4.4,0,7.6,3.1,10.5v26.8c-6.2,4.9-5.9,11.9-6.1,18.8,0,3,.7,6.6-4.2,7.4.9.3,1.7.7,1.5.6-1.5,4.6-2.9,8.7-4.3,12.9h-2Z"/>
        </g>
      </g>
      <g>
        <circle id="piste_1" class="cls-1" cx="360" cy="363.6" r="10"/>
        <circle id="piste_2" class="cls-1" cx="360" cy="280.5" r="10"/>
        <circle id="piste_8" class="cls-1" cx="330.1" cy="265" r="10"/>
<!--        <circle id="piste_9" class="cls-1" cx="303" cy="342.9" r="10"/>-->
        <circle id="piste_10" class="cls-1" cx="240" cy="115" r="10"/>
        <circle id="piste_11" class="cls-1" cx="115" cy="180" r="10"/>
        <circle id="piste_12" class="cls-1" cx="165" cy="120" r="10"/>
        <circle id="piste_13" class="cls-1" cx="255" cy="260" r="10"/>
        <circle id="piste_14" class="cls-1" cx="400" cy="130" r="10"/>
        <circle id="piste_15" class="cls-1" cx="345.7" cy="185.1" r="10"/>
        <circle id="piste_16" class="cls-1" cx="150" cy="375.5" r="10"/>
        <circle id="piste_17" class="cls-1" cx="400" cy="210" r="10"/>
        <circle id="piste_18" class="cls-1" cx="315" cy="305.5" r="10"/>
        <circle id="piste_19" class="cls-1" cx="255" cy="345.5" r="10"/>
        <circle id="piste_20" class="cls-1" cx="435" cy="445" r="10"/>
        <circle id="piste_21" class="cls-1" cx="280" cy="370.5" r="10"/>
        <circle id="piste_22" class="cls-1" cx="260" cy="90" r="10"/>
        <circle id="piste_23" class="cls-1" cx="160" cy="200" r="10"/>
        <circle id="piste_24" class="cls-1" cx="230" cy="140" r="10"/>
        <circle id="piste_25" class="cls-1" cx="140" cy="120" r="10"/>
        <circle id="piste_26" class="cls-1" cx="120" cy="80" r="10"/>
        <circle id="piste_27" class="cls-1" cx="172" cy="310" r="10"/>
        <circle id="piste_28" class="cls-1" cx="395" cy="365" r="10"/>
        <circle id="piste_29" class="cls-1" cx="310" cy="100" r="10"/>
        <circle id="piste_30" class="cls-1" cx="65" cy="145" r="10"/>
        <circle id="piste_31" class="cls-1" cx="195" cy="185" r="10"/>
        <circle id="piste_32" class="cls-1" cx="330" cy="300" r="10"/>
        <circle id="piste_33" class="cls-1" cx="100" cy="130" r="10"/>
        <circle id="piste_34" class="cls-1" cx="350" cy="100" r="10"/>
        <circle id="piste_35" class="cls-1" cx="175" cy="275" r="10"/>
        <circle id="piste_36" class="cls-1" cx="240" cy="25" r="10"/>
        <circle id="piste_37" class="cls-1" cx="365" cy="380" r="10"/>
        <circle id="piste_38" class="cls-1" cx="180" cy="335" r="10"/>
        <circle id="piste_39" class="cls-1" cx="290" cy="160" r="10"/>
      </g>
    </g>
  </g>
</svg>