<svg width="431" height="436" viewBox="0 0 431 436" fill="none" xmlns="http://www.w3.org/2000/svg">
<g clip-path="url(#clip0_1_1286)">
<path d="M370.818 85.5352C371.349 86.3339 372.04 87.0687 372.391 87.9313C373.942 91.6904 376.758 93.7138 380.712 94.2675C381.955 97.3771 384.484 98.5805 387.577 98.6976C392.062 98.868 396.568 99.1236 401.042 98.8893C408.034 98.5166 414.326 100.955 420.691 103.213C418.683 108.676 416.047 113.862 413.667 119.155C411.913 119.336 412.509 120.614 412.519 121.625V121.796C410.851 122.051 411.456 123.297 411.467 124.266L411.435 124.469C409.629 124.788 410.479 126.183 410.341 127.184L410.362 127.163C410.107 127.227 409.66 127.216 409.629 127.344C408.024 132.466 404.984 137.237 405.665 142.934C405.665 143.169 405.654 143.403 405.643 143.637C403.677 144.01 404.432 145.618 404.517 146.63C404.783 149.952 404.304 152.86 401.275 154.819C400.351 155.319 399.65 156.022 399.15 156.949C398.619 157.662 398.087 158.365 397.556 159.079C396.78 159.079 396.249 159.43 395.962 160.144C395.26 160.921 394.474 161.656 394.378 162.795C393.464 162.753 392.635 162.87 392.253 163.871C389.872 165.351 388.608 167.949 386.482 169.717C385.6 170.452 384.452 171.762 386.62 172.742C387.162 172.987 386.992 173.892 386.833 174.467C385.993 177.502 386.504 180.59 386.493 183.646H386.514C385.271 183.561 385.313 184.371 385.409 185.233C383.326 185.606 383.145 187.374 382.71 188.939L382.731 188.918C381.53 188.95 381.572 189.738 381.711 190.59L381.732 190.568C380.425 190.504 380.552 191.399 380.595 192.251C380.489 192.389 380.393 192.528 380.287 192.666C379.075 192.538 378.916 193.295 378.979 194.242L379.001 194.21C378.501 194.423 378.416 194.828 378.48 195.318C376.928 195.318 376.705 196.255 376.95 197.522H376.971C375.409 197.789 374.473 198.523 374.973 200.291C374.93 200.238 374.888 200.174 374.845 200.121C374.888 200.174 374.93 200.238 374.962 200.291C372.932 200.653 372.444 202.048 372.582 203.848C372.422 204.008 372.274 204.167 372.114 204.327C370.913 204.38 370.924 205.158 371.094 206.031L371.115 206.01C369.882 205.861 369.893 206.691 369.936 207.533L369.946 207.522C368.809 207.522 368.83 208.321 368.862 209.13L368.873 209.109C367.693 209.173 367.725 209.95 367.874 210.802L367.906 210.781C366.631 210.706 366.684 211.526 366.811 212.399C366.811 212.399 366.843 212.378 366.843 212.367C365.568 212.303 365.621 213.123 365.77 213.997L365.802 213.954C365.44 214.05 365.281 214.252 365.451 214.625V214.678C364.271 214.678 364.675 215.488 364.728 216.116L364.76 216.105C364.123 216.222 364.08 216.67 364.165 217.191L364.208 217.138C362.21 219.417 361.306 222.079 361.423 225.093C361.402 225.445 361.391 225.785 361.37 226.137C361.232 226.435 360.934 226.754 360.966 227.031C361.072 227.894 361.753 228.724 362.465 228.629C364.59 228.32 367.109 230.205 368.83 227.574C369.351 227.51 369.872 227.447 370.382 227.393C370.563 228.054 370.552 228.703 370.308 229.342C370.191 229.566 370.084 229.789 369.968 230.024C369.351 231.728 370.297 231.845 371.668 231.951C375.494 232.271 379.096 230.95 382.827 230.609C383.602 231.089 383.57 231.887 383.762 232.665C384.123 234.177 384.166 235.934 385.898 236.743L385.877 236.722C385.866 237.233 385.93 237.68 386.599 237.68L386.535 237.819L386.578 237.67C386.44 238.224 386.387 238.713 387.216 238.596L387.258 238.66C386.705 239.949 387.428 240.343 388.523 240.492C388.65 241.333 388.044 242.643 389.777 242.462L389.745 242.611C389.745 242.611 389.766 242.462 389.755 242.462C389.511 243.516 389.585 244.475 388.002 244.943C385.59 245.657 384.219 248.394 384.41 250.917C383.284 250.854 381.944 250.161 381.583 252.131C381.296 253.644 382.933 254.293 383.018 255.646C381.743 255.837 381.434 254.794 380.775 254.315C380.233 253.921 379.851 253.079 379.001 253.612C378.31 254.048 377.694 254.677 378.023 255.582C378.565 257.073 377.587 257.03 376.673 256.987C375.685 256.945 375.015 257.456 374.378 258.106C373.081 259.437 371.753 260.747 370.435 262.057C367.991 264.516 367.97 264.527 370.499 266.881C371.03 267.381 371.445 268.371 372.433 267.85C373.315 267.381 372.709 266.636 372.635 265.965C372.465 264.463 372.614 263.271 374.559 264.538C375.621 265.23 376.216 264.921 376.27 263.643C376.301 262.727 376.27 261.801 377.577 261.79C379.968 261.79 379.798 260.651 378.746 259.117C378.491 258.745 378.331 258.308 378.682 257.903C378.969 257.563 379.341 257.712 379.638 257.893C381.551 259.075 382.954 258.638 383.974 256.647C384.261 256.093 384.878 255.635 385.515 255.869C386.1 256.082 385.76 256.796 385.877 257.275C386.227 258.681 386.227 260.342 388.172 260.661C388.3 260.811 388.427 260.96 388.565 261.109C388.82 263.089 389.756 264.485 391.828 264.889L391.807 264.868C391.775 265.73 391.541 266.785 393.05 266.21L393.135 266.327C392.465 267.743 393.05 268.233 394.453 268.105L394.432 268.095C394.346 268.957 394.315 269.777 395.569 269.671L395.547 269.66C395.399 270.523 395.367 271.321 396.589 271.321L396.568 271.289C396.621 272.173 396.026 273.441 397.747 273.366H397.705C397.535 275.794 397.386 278.211 397.811 280.629L397.79 280.671C396.047 280.852 394.697 281.587 394.038 283.302L394.006 283.27C390.946 282.876 388.47 284.356 386.068 285.879C385.25 286.401 383.624 286.379 383.964 288.094L383.772 288.062L383.964 288.083C382.603 287.689 382.635 288.871 382.444 289.574C382.157 290.596 382.571 291.395 383.709 291.64L383.73 291.672C383.762 294.888 385.632 296.901 388.172 298.477C388.31 298.615 388.448 298.764 388.586 298.903C388.916 301.075 391.923 302.843 394.346 302.268C395.601 303.429 395.494 304.93 395.409 306.432L395.399 306.496C393.464 307.454 394.718 309.169 394.463 310.521C394.293 313.492 393.805 316.431 393.634 319.413C393.358 324.205 395.292 327.315 399.756 328.934C400.478 329.2 401.148 329.626 401.839 329.967C402.593 331.468 404.017 332.171 405.399 332.895C410.192 335.408 415.516 336.207 420.649 337.623C418.63 345.77 413.975 352.202 407.609 357.463C402.296 361.861 397.269 366.621 391.498 370.465C389.097 372.063 387.279 373.926 388.268 377.27C388.693 378.697 387.736 379.613 386.28 379.847C380.552 380.763 375.228 382.797 370.021 385.321C365.557 387.494 361.444 386.769 357.969 383C356.513 381.423 354.569 380.582 352.454 380.902C349.467 381.349 347.331 379.986 345.333 378.133C342.22 375.258 339.063 372.531 334.313 373.82C333.516 374.033 333.038 373.298 332.613 372.755C331.104 370.87 329.052 370.21 326.906 370.923C320.678 373 315.056 371.722 309.307 368.921C305.003 366.823 300.178 366.227 295.311 366.781C289.434 367.452 284.8 370.338 281.208 374.896C280.156 376.237 278.956 376.993 277.383 377.526C266.84 381.104 261.622 389.208 259.082 399.485C258.53 401.732 259.348 403.84 260.209 405.917C261.612 409.261 263.28 412.519 263.769 416.172C263.897 417.088 264.29 418.291 263.44 418.919C262.664 419.484 261.803 418.589 261.027 418.248C257.605 416.726 256.659 416.875 253.875 419.601C253.099 420.357 252.143 420.485 251.197 420.581C244.778 421.23 238.37 422.04 231.909 422.189C231.292 421.124 230.484 421.944 229.783 421.997C225.66 422.37 223.205 419.729 223.811 415.703C224.044 414.18 225.723 413.68 225.978 412.519C226.595 409.729 227.891 410.805 229.114 411.742C230.091 411.114 228.146 409.303 230.07 409.548C231.505 409.729 231.643 409.218 231.951 408.142C232.227 407.195 232.142 404.192 231.537 403.521C231.08 403.02 230.134 402.615 230.049 403.201C229.804 404.958 227.891 404.639 227.349 405.661C226 408.217 224.087 410.081 221.526 411.284C219.793 412.093 220.091 414.468 218.38 415.245L218.529 415.096L218.38 415.235C218.518 414.298 218.157 413.957 217.232 414.255L217.424 414.127L217.222 414.234C217.583 412.839 216.658 412.956 215.787 413.02L215.798 413.041C215.404 410.943 214.172 410.038 212.046 410.368L212.067 410.4C212.089 409.101 211.281 409.175 210.399 409.399V409.431C209.559 407.408 207.933 406.971 205.957 407.216L205.776 407.205C205.425 405.374 204.044 406.215 203.013 406.14L203.055 406.172C202.694 404.948 201.621 404.756 200.611 404.468C198.868 403.968 197.051 403.606 195.34 403.063C192.024 401.998 188.804 400.826 185.244 401.348L185.148 401.444L185.021 401.391C184.989 400.283 184.235 400.177 183.384 400.187C182.067 400.219 180.759 400.241 179.442 400.262L179.314 400.347L179.187 400.251C179.048 399.964 178.942 399.442 178.772 399.41C178.145 399.325 178.219 399.889 178.156 400.305C176.87 401.167 176.955 402.53 176.753 403.84C176.307 406.598 175.116 407.429 172.64 407.056C160.259 405.193 147.964 402.828 135.849 399.687C132.416 398.792 129.228 396.918 125.933 395.48C121.162 393.404 116.39 391.327 111.608 389.261C112.649 385.513 111.129 383.245 107.537 382.158C108.079 378.868 106.804 376.536 103.786 375.162C104.211 374.044 105.199 373.362 105.89 372.457C107.644 370.167 109.897 368.25 110.736 365.279C112.298 359.752 113.106 354.066 114.35 348.475C116.921 336.91 119.111 325.249 120.343 313.513C121.321 304.195 123.84 295.303 125.763 286.241C127.187 279.511 127.209 272.876 123.776 266.636C123.191 265.56 122.851 264.538 123.361 263.366C124.53 263.409 125.508 263.196 125.466 261.694V261.716C126.316 261.769 127.198 261.854 126.922 260.512C127.24 260.48 127.687 260.576 127.867 260.395C128.154 260.097 127.889 259.788 127.559 259.607C127.729 259.245 127.889 258.883 128.059 258.521C128.728 258.457 129.6 258.521 128.664 257.499C128.803 256.625 128.941 255.752 129.068 254.879C130.035 254.346 130.035 253.793 129.1 253.228C128.643 251.674 128.728 250.066 128.707 248.468C129.462 246.988 129.908 245.582 127.899 244.709C127.612 243.655 127.634 242.59 127.836 241.525C127.91 241.259 127.984 240.992 128.059 240.726C128.101 240.471 128.144 240.204 128.186 239.949C128.463 239.8 128.962 239.683 128.983 239.512C129.058 238.905 128.526 238.948 128.112 238.916L127.602 238.458C127.538 237.787 127.581 236.946 126.582 237.84C125.838 237.84 125.094 237.851 124.435 237.414C124.509 236.115 124.658 234.826 124.828 233.538C125.062 231.823 124.658 230.098 122.171 230.546V230.577C121.555 228.022 119.578 229.789 118.292 229.363H118.09C117.091 227.532 115.37 227.255 113.531 227.212L113.404 227.244L113.329 227.127C113.096 226.989 112.872 226.861 112.639 226.722V226.765C112.915 225.679 111.916 225.476 111.385 224.965C110.332 223.943 110.471 222.654 110.768 221.483C111.087 220.269 112.054 221.11 112.755 221.185C113.627 221.281 113.786 220.706 113.808 220.024C113.839 219.172 114.041 218.16 114.977 218.235C117.718 218.459 117.176 216.915 116.337 214.923C119.047 216.638 120.481 215.711 121.279 213.422C121.555 212.634 122.352 212.57 122.788 212.133C124.169 210.738 126.018 209.662 126.114 207.298C126.199 205.105 128.962 202.921 131.173 203.06C132.777 203.166 133.914 202.048 133.819 200.76C133.712 199.301 133.893 198.843 135.317 198.875C135.859 198.885 136.433 198.577 136.369 197.948C136.306 197.224 135.593 197.331 135.105 197.352C133.797 197.416 133.394 196.756 133.447 195.563C133.468 195.052 133.489 194.349 132.735 194.423C132.15 194.477 131.959 195.062 131.895 195.627C131.821 196.212 132.012 197.128 131.236 197.182C127.751 197.395 126.879 200.887 124.509 202.527C122.086 204.199 120.439 206.947 118.239 209.002C116.836 210.301 115.827 212.08 114.381 213.081C112.447 214.423 110.864 215.935 109.482 217.756C107.633 220.194 106.432 220.503 103.722 219.257C103.425 219.119 103.031 219.193 102.681 219.161C102.67 218.437 102.298 218.097 101.576 218.118L101.597 218.139C101.522 216.638 100.97 215.594 99.2482 215.69C99.3013 215.647 99.3545 215.605 99.4076 215.562C99.3545 215.605 99.2907 215.637 99.2375 215.679C99.6839 214.455 98.855 214.401 98.026 214.348L97.8666 214.295V214.124C97.8241 213.73 97.6222 213.454 97.229 213.336C96.8252 212.9 96.4213 212.452 96.0175 212.016C96.2513 211.931 96.4957 211.856 96.7295 211.771C97.771 210.525 97.6541 209.258 96.8039 207.969C96.8039 207.533 96.8677 207.139 97.2609 206.862C98.5255 206.446 99.6201 205.914 98.94 204.242C99.0037 203.177 99.0675 202.101 99.1419 201.037C99.5564 200.664 99.5351 200.323 99.0781 200.004L98.8975 198.96C99.8646 197.789 98.94 197.565 98.0686 197.32C97.8029 196.702 97.5478 196.085 97.2821 195.467C97.2715 195.084 97.0802 194.828 96.6976 194.732C96.1769 194.413 95.7518 194.029 95.6774 193.38C95.3161 192.336 95.1673 191.111 94.519 190.302C93.8708 189.503 94.2002 187.65 92.3511 187.981V187.97C92.6486 187.118 92.3192 186.735 91.4584 186.745L91.4796 186.756C91.6922 185.095 90.9164 184.434 89.3117 184.594C89.1416 184.456 88.9822 184.328 88.8122 184.189C88.6847 183.604 88.2596 183.508 87.7495 183.54C87.7495 183.54 87.7601 183.551 87.7707 183.551C87.6644 182.113 86.4742 182.102 85.4965 181.815C85.4433 181.655 85.454 181.506 85.5496 181.367C87.1862 180.068 87.1862 179.525 85.5602 178.801L85.5921 178.822C85.6559 177.8 85.1245 177.598 84.2637 177.853C83.6686 177.832 83.0735 177.8 82.4783 177.779C81.9151 176.416 82.1595 174.222 82.9034 174.051C86.0597 173.317 87.2712 171.315 87.9833 168.471C88.504 166.395 90.4488 164.968 92.5211 164.659C92.6061 164.648 92.7549 164.595 92.7443 164.595C92.2129 161.997 94.5509 163.605 95.3055 162.87C95.9856 162.21 95.4011 160.825 96.7933 160.601C98.2705 160.378 97.7072 159.59 97.0483 159.015C96.3257 158.386 95.4861 157.929 94.9654 157.034C94.5828 156.363 94.2534 156.64 93.6051 157.162C91.0227 159.228 89.5561 162.391 86.5167 164.041C85.1033 164.808 83.8599 166.288 84.2425 168.184C84.6357 170.069 84.1468 169.973 82.9034 169.025C82.659 168.844 82.117 168.674 81.9788 168.791C80.1297 170.431 77.8767 169.281 75.8682 169.738L75.7194 169.824L75.5918 169.717C75.4431 169.419 75.2837 168.855 75.1455 168.855C72.2761 168.972 69.6193 167.96 66.8987 167.31C66.8987 167.31 66.8031 167.236 66.8137 167.236C66.8137 165.17 65.1665 165.276 63.8381 164.936L63.8593 164.968C63.87 164.084 63.4874 163.743 62.6266 164.073L62.6797 163.871L62.6053 164.062C62.956 162.593 62.0314 162.742 61.1175 162.88L61.1387 162.902C61.2875 161.613 60.4586 161.645 59.5765 161.741L59.6084 161.762C59.6509 160.538 58.8433 160.57 57.9931 160.665L58.0143 160.687C57.7912 159.015 56.5903 159.004 55.3256 159.079L55.3681 159.111C52.7857 155.799 48.8111 155.799 45.251 154.798L45.2722 154.819C45.0278 152.817 43.5825 152.678 42.0203 152.71L42.0734 152.742C41.9459 152.157 41.5102 152.071 41.0107 152.114L41.0319 152.135C40.7769 149.878 39.576 149.26 37.5249 150.08L37.3549 150.048C37.0573 148.035 34.9956 149.345 34.1667 148.344C34.1667 147.897 34.1986 147.46 34.1667 147.013C34.0286 145.288 34.0073 143.744 36.5472 144.574C37.1105 144.755 37.8225 144.585 37.6418 143.605C37.3336 141.923 38.237 141.422 39.746 141.401C40.9044 141.39 41.5633 140.922 40.3837 139.91C39.9692 139.548 39.3741 139.324 39.6823 138.728C40.0755 137.972 40.7344 138.334 41.2976 138.611C43.4762 139.665 44.4539 138.664 44.4964 136.566C44.5177 135.32 45.3147 135.746 45.8992 135.544C47.844 134.905 49.8845 133.382 49.7676 131.721C49.5869 128.973 51.9036 128.036 52.5838 126.055C52.7219 125.661 53.2639 125.48 53.6996 125.864C55.4106 127.333 56.8878 125.523 57.0791 124.799C57.5467 123.02 58.8751 122.19 60.0973 121.146C58.9389 120.198 57.2598 120.497 56.7709 118.91C56.654 118.537 55.9208 118.558 55.8782 118.739C55.5913 120.124 54.0504 120.039 53.4977 120.72C49.8526 125.225 44.9747 128.409 41.1169 132.701C40.0117 133.936 39.3847 135.672 38.0244 136.47C35.4951 137.94 33.8585 140.187 31.9031 142.221C30.054 144.148 29.1825 145.618 31.9031 147.279C31.2761 148.014 30.3196 147.588 29.9052 148.312C27.9604 148.845 26.0262 149.377 24.0814 149.91C23.5182 148.653 22.7105 147.759 21.1589 148.057C21.2121 148.003 21.2546 147.95 21.3077 147.886C21.2546 147.94 21.2121 147.993 21.1589 148.057C21.5202 146.64 20.5957 146.747 19.703 146.821L19.7349 146.853C19.8199 145.309 18.8528 145.086 17.6307 145.181L17.6519 145.203C17.2375 143.659 17.1312 142.093 17.1418 140.485C17.1631 134.905 17.1206 129.314 17.1099 123.734C17.4819 123.063 17.9814 122.531 18.6934 122.222C20.0643 122.52 21.5096 122.935 21.4246 120.667C22.296 120.624 23.1675 120.582 24.0389 120.539C25.718 121.945 27.7903 120.656 29.5438 121.348C31.5418 122.137 31.5524 120.933 31.5099 119.57C38.4389 119.038 45.3679 118.494 52.3075 117.973C53.8697 117.856 55.4319 117.483 56.1758 116.066C58.4713 111.7 62.2546 110.241 66.8456 110.156C68.089 112.052 69.3855 113.926 70.5758 115.864C72.4993 118.974 74.8586 121.412 78.7694 121.711C81.1712 125.672 83.7536 126.769 88.047 125.779C93.9664 124.405 99.8964 123.063 105.848 121.785C107.197 121.498 108.685 121.029 110.003 121.806C112.182 123.095 114.658 123.308 117.006 124C119.238 124.66 119.621 123.755 119.727 121.668C120.12 113.745 119.004 106.014 117.495 98.261C116.167 91.4029 114.371 84.6833 112.288 78.0381C111.82 76.5579 110.545 74.6623 111.448 73.672C112.469 72.5538 114.339 74.0127 115.848 74.2683C118.781 74.7688 121.704 76.707 124.711 74.4813C125.848 75.5249 126.518 76.9093 127.049 78.2724C128.76 82.6599 132.373 84.5874 136.476 85.9825C137.06 87.484 138.187 88.3679 139.653 88.9642C143.086 90.3806 146.625 91.3923 150.249 92.1483C156.614 93.4795 162.895 95.2579 169.505 93.0642C171.662 92.3507 172.385 91.5626 172.141 89.3902C171.886 87.0261 171.567 84.5342 172.704 82.3298C175.796 76.313 180.781 72.426 186.998 69.9767C192.109 67.964 197.497 67.0056 202.779 65.6425C212.769 63.0547 218.252 56.4202 219.485 46.1651C220.197 40.2547 220.24 34.3338 220.622 28.4235C220.952 23.4503 221.855 18.5091 227.296 16.2195C228.157 16.3579 229.029 16.5177 229.145 15.2504C229.645 14.9416 230.176 14.7286 230.782 14.8457C231.707 15.474 232.525 15.6657 232.876 14.2494C233.705 13.7489 234.597 13.5998 235.543 13.7808C235.766 15.1652 234.533 15.5486 233.79 16.1875C232.461 17.327 232.047 18.36 233.683 19.542C234.512 20.1384 235.075 21.7145 236.074 21.3205C237.477 20.756 235.702 19.2758 236.383 18.2428C236.786 17.6358 235.129 17.0821 236.181 16.4964C237.084 16.0065 237.573 16.8478 238.072 17.4867C238.444 17.966 238.891 18.541 239.592 18.36C240.633 18.0937 239.9 17.3802 239.868 16.8584C239.815 16.0065 240.219 15.4314 241.027 15.3675C242.855 15.2291 245.182 14.0683 245.554 17.3483C245.628 18.0405 246 18.4984 246.787 18.4239L246.755 18.4026C246.691 18.8924 246.755 19.3184 247.286 19.5314L247.265 19.4888C247.095 20.8093 247.722 21.2779 248.965 21.0862C250.538 21.9914 252.238 22.4386 254.024 22.6303C255.31 25.25 257.085 27.1349 260.315 26.7728C261.357 26.6557 262.398 26.4853 263.44 26.3362C265.98 29.6268 269.402 31.7673 272.93 33.812C275.438 35.2709 277.808 36.9641 280.241 38.5509C280.496 39.3922 281.155 39.2857 281.793 39.2218V39.2111C281.676 40.7127 283.663 40.2015 283.876 41.4049C283.94 42.9597 283.143 44.0033 282.027 45.0043C279.593 47.1874 277.149 49.3918 274.938 51.8091C273.95 52.8847 273.195 54.0881 271.856 54.8655C271.006 55.3553 269.965 56.3351 271.123 57.4319C271.941 58.2093 272.866 58.8696 273.631 59.7322C273.833 59.9664 274.503 59.9771 274.843 59.8386C275.395 59.6044 275.098 59.1677 274.906 58.7524C273.993 56.7823 274.96 56.3351 276.692 56.6758C277.5 56.8356 278.477 56.6119 278.328 55.9197C277.829 53.6408 279.657 53.907 280.773 53.3213C281.347 53.0232 282.654 53.1722 281.814 51.8517C281.485 51.3406 280.922 50.7868 281.559 50.2331C282.069 49.7964 282.484 50.446 282.919 50.691C283.94 51.2554 284.322 50.4886 284.79 49.839C285.236 49.232 285.736 48.6463 284.577 48.263C284.025 48.0819 283.95 47.6772 284.269 47.2513C284.556 46.8573 284.992 46.7295 285.427 47.0276C286.086 47.4856 286.905 48.2097 287.521 47.4323C288.669 45.984 290.018 46.6123 291.347 46.6975C291.315 47.5388 291.315 48.3588 292.537 48.2097C292.537 48.2097 292.505 48.1884 292.505 48.1991C292.356 49.0936 292.325 49.9029 293.6 49.8284L293.557 49.8071C293.866 51.2554 292.335 53.1829 294.684 54.0881L294.62 54.0774C294.365 58.5607 294.376 58.5927 297.351 58.9015C299.147 59.3168 300.943 59.7215 302.739 60.1368C302.92 61.1485 302.888 62.2667 303.855 62.9482C306.438 64.8012 312.208 64.7692 315.024 62.9056C315.12 63.1186 315.216 63.3316 315.311 63.5446C315.343 64.3752 315.014 65.5147 316.576 65.0461L316.597 65.1952L316.544 65.0568C316.449 65.7916 316.927 65.8342 317.458 65.8129L317.416 65.7809C317.501 66.1004 317.703 66.2814 318.053 66.2708L318 66.2282C318.202 66.9523 318.765 66.8991 319.329 66.8458C319.775 66.7393 319.977 66.963 320.062 67.3676C320.487 68.1983 321.018 68.1344 321.624 67.5593C322.124 67.4528 322.559 67.5487 322.878 67.964C323.941 70.3814 325.779 71.5741 328.425 71.5102C328.596 71.638 328.776 71.7764 328.946 71.9042L329.116 72.032C329.233 73.2567 328.914 74.4068 327.915 75.0777C325.524 76.675 325.205 80.2425 322.102 81.1584C321.752 81.2649 321.422 81.7547 321.252 82.1381C320.455 83.8633 317.437 84.1082 318.149 86.8344C318.16 86.8876 317.894 87.0793 317.745 87.1006C313.962 87.5798 312.697 91.2432 310.093 93.2026C309.466 93.6818 308.521 94.2782 309.36 95.3644C310.21 96.4613 310.699 97.9735 312.261 98.2503C313.048 98.3888 313.696 97.835 313.43 96.9511C312.952 95.3644 313.398 94.9384 314.929 95.5028C315.843 95.833 316.874 95.3857 316.693 94.5764C316.077 91.8502 317.681 91.8821 319.52 91.8289C319.945 91.8182 320.391 91.2751 320.753 90.913C322.4 89.2305 324.228 87.665 325.599 85.7695C326.64 84.3318 328.978 83.1817 328.755 81.7547C328.436 79.7207 329.892 79.1776 330.434 77.9317C331.348 75.8444 332.602 76.2065 334.207 76.9945C334.749 77.2608 335.588 76.9413 336.29 76.8987C341.221 80.1573 346.651 82.4469 352.039 84.7791C355.185 86.1422 358.416 86.845 362.018 85.3009C364.505 84.236 367.47 83.7674 370.308 84.7684C370.488 84.9814 370.669 85.1944 370.85 85.3968V85.5778L370.881 85.5245L370.818 85.5352Z" fill="white"/>
<path d="M126.922 260.512C127.198 261.854 126.316 261.769 125.466 261.716V261.694C125.508 263.196 124.53 263.409 123.361 263.366C122.851 264.538 123.191 265.56 123.776 266.636C127.209 272.876 127.187 279.511 125.763 286.241C123.84 295.303 121.321 304.195 120.343 313.513C119.111 325.249 116.921 336.91 114.35 348.475C113.106 354.066 112.298 359.752 110.736 365.279C109.897 368.25 107.644 370.167 105.89 372.457C105.199 373.362 104.211 374.044 103.786 375.162C106.804 376.536 108.079 378.868 107.537 382.158C111.129 383.245 112.649 385.513 111.608 389.261C116.39 391.327 121.162 393.404 125.933 395.48C129.228 396.918 132.416 398.792 135.849 399.687C147.964 402.828 160.259 405.193 172.64 407.056C175.116 407.429 176.307 406.598 176.753 403.84C176.955 402.53 176.87 401.167 178.156 400.305C178.219 399.889 178.145 399.325 178.772 399.41C178.942 399.442 179.048 399.964 179.187 400.251L179.314 400.347L179.442 400.262C180.759 400.241 182.067 400.219 183.384 400.187C184.235 400.177 184.989 400.283 185.021 401.391L185.148 401.444L185.244 401.348C188.804 400.826 192.024 401.998 195.34 403.063C197.051 403.606 198.868 403.968 200.611 404.468C201.621 404.756 202.694 404.948 203.055 406.172L203.013 406.14C204.044 406.215 205.425 405.374 205.776 407.205L205.957 407.216C207.933 406.971 209.559 407.408 210.399 409.431V409.399C211.281 409.175 212.089 409.101 212.067 410.4L212.046 410.368C214.172 410.038 215.404 410.943 215.798 413.041L215.787 413.02C216.658 412.956 217.583 412.839 217.222 414.234L217.424 414.127L217.232 414.255C218.157 413.957 218.518 414.298 218.38 415.235L218.529 415.096L218.38 415.245C220.091 414.468 219.793 412.093 221.526 411.284C224.087 410.081 226 408.217 227.349 405.661C227.891 404.639 229.804 404.958 230.049 403.201C230.134 402.615 231.08 403.02 231.537 403.521C232.142 404.192 232.227 407.195 231.951 408.142C231.643 409.218 231.505 409.729 230.07 409.548C228.146 409.303 230.091 411.114 229.114 411.742C227.891 410.805 226.595 409.729 225.978 412.519C225.723 413.68 224.044 414.18 223.811 415.703C223.205 419.729 225.66 422.37 229.783 421.997C230.484 421.944 231.292 421.124 231.909 422.189C238.37 422.04 244.778 421.23 251.197 420.581C252.143 420.485 253.099 420.357 253.875 419.601C256.659 416.875 257.605 416.726 261.027 418.248C261.803 418.589 262.664 419.484 263.44 418.919C264.29 418.291 263.897 417.088 263.769 416.172C263.28 412.519 261.612 409.261 260.209 405.917C259.348 403.84 258.53 401.732 259.082 399.485C261.622 389.208 266.84 381.104 277.383 377.526C278.955 376.993 280.156 376.237 281.208 374.896C284.8 370.338 289.434 367.452 295.311 366.781C300.178 366.227 305.003 366.823 309.307 368.921C315.056 371.722 320.678 373 326.906 370.923C329.052 370.21 331.104 370.87 332.613 372.755C333.038 373.298 333.516 374.033 334.313 373.82C339.063 372.531 342.22 375.258 345.333 378.133C347.331 379.986 349.467 381.349 352.454 380.902C354.569 380.582 356.513 381.423 357.969 383C361.444 386.769 365.557 387.494 370.021 385.321C375.228 382.797 380.552 380.763 386.28 379.847C387.736 379.613 388.693 378.697 388.268 377.27C387.279 373.926 389.097 372.063 391.498 370.465C397.269 366.621 402.296 361.861 407.609 357.463C413.975 352.202 418.63 345.77 420.649 337.623C415.516 336.207 410.192 335.408 405.399 332.895C404.017 332.171 402.593 331.468 401.839 329.967C401.148 329.626 400.478 329.2 399.756 328.934C395.292 327.315 393.358 324.205 393.634 319.413C393.804 316.431 394.293 313.492 394.463 310.521C394.718 309.169 393.464 307.454 395.399 306.496L395.409 306.432C395.494 304.93 395.601 303.429 394.347 302.268C391.923 302.843 388.916 301.075 388.587 298.903C388.448 298.764 388.31 298.615 388.172 298.477C385.632 296.901 383.762 294.888 383.73 291.672L383.709 291.64C382.571 291.395 382.157 290.596 382.444 289.574C382.635 288.871 382.603 287.689 383.964 288.083L383.772 288.062L383.964 288.094C383.624 286.379 385.25 286.401 386.068 285.879C388.47 284.356 390.946 282.876 394.006 283.27L394.038 283.302C394.697 281.587 396.047 280.852 397.79 280.671L397.811 280.629C397.386 278.211 397.535 275.794 397.705 273.366H397.747C396.026 273.441 396.621 272.173 396.568 271.289L396.589 271.321C395.367 271.321 395.399 270.523 395.547 269.66L395.569 269.671C394.315 269.777 394.346 268.957 394.432 268.095L394.453 268.105C393.05 268.233 392.465 267.743 393.135 266.327L393.05 266.21C391.541 266.785 391.775 265.73 391.807 264.868L391.828 264.889C389.756 264.485 388.82 263.089 388.565 261.109C388.427 260.96 388.3 260.811 388.172 260.661C386.227 260.342 386.227 258.681 385.877 257.275C385.76 256.796 386.1 256.082 385.515 255.869C384.878 255.635 384.261 256.093 383.974 256.647C382.954 258.638 381.551 259.075 379.638 257.893C379.341 257.712 378.969 257.563 378.682 257.903C378.331 258.308 378.491 258.745 378.746 259.117C379.798 260.651 379.968 261.79 377.577 261.79C376.269 261.801 376.301 262.727 376.269 263.643C376.216 264.921 375.621 265.23 374.559 264.538C372.614 263.271 372.465 264.463 372.635 265.965C372.709 266.636 373.315 267.381 372.433 267.85C371.445 268.371 371.03 267.381 370.499 266.881C367.97 264.527 367.991 264.516 370.435 262.057C371.753 260.747 373.081 259.437 374.378 258.106C375.015 257.456 375.685 256.945 376.673 256.987C377.587 257.03 378.565 257.073 378.023 255.582C377.694 254.677 378.31 254.048 379.001 253.612C379.851 253.079 380.233 253.921 380.775 254.315C381.434 254.794 381.743 255.837 383.018 255.646C382.933 254.293 381.296 253.644 381.583 252.131C381.944 250.161 383.283 250.854 384.41 250.917C384.219 248.394 385.59 245.657 388.002 244.943C389.585 244.475 389.511 243.516 389.756 242.462C389.766 242.462 389.745 242.611 389.745 242.611L389.777 242.462C388.045 242.643 388.65 241.333 388.523 240.492C387.428 240.343 386.705 239.949 387.258 238.66L387.216 238.596C386.387 238.713 386.44 238.224 386.578 237.67L386.535 237.819L386.599 237.68C385.93 237.68 385.866 237.233 385.877 236.722L385.898 236.743C384.166 235.934 384.123 234.177 383.762 232.665C383.57 231.887 383.602 231.089 382.827 230.609C379.096 230.95 375.494 232.271 371.668 231.951C370.297 231.845 369.351 231.728 369.968 230.024C370.084 229.789 370.191 229.566 370.308 229.342C370.552 228.703 370.563 228.054 370.382 227.393C369.872 227.447 369.351 227.51 368.83 227.574C367.109 230.205 364.59 228.32 362.465 228.629C361.753 228.724 361.072 227.894 360.966 227.031C360.934 226.754 361.232 226.435 361.37 226.137C361.391 225.785 361.402 225.445 361.423 225.093C361.306 222.079 362.21 219.417 364.208 217.138L364.165 217.191C364.08 216.67 364.123 216.222 364.76 216.105L364.728 216.116C364.675 215.488 364.271 214.678 365.451 214.678V214.625C365.281 214.252 365.44 214.05 365.802 213.954L365.77 213.997C365.621 213.123 365.568 212.303 366.843 212.367C366.843 212.378 366.811 212.399 366.811 212.399C366.684 211.526 366.631 210.706 367.906 210.781L367.874 210.802C367.725 209.95 367.693 209.173 368.873 209.109L368.862 209.13C368.83 208.321 368.809 207.522 369.946 207.522L369.936 207.533C369.893 206.691 369.882 205.861 371.115 206.01L371.094 206.031C370.924 205.158 370.913 204.38 372.114 204.327C372.274 204.167 372.422 204.008 372.582 203.848C372.444 202.048 372.933 200.653 374.962 200.291C374.93 200.238 374.888 200.174 374.845 200.121C374.888 200.174 374.93 200.238 374.973 200.291C374.473 198.523 375.409 197.789 376.971 197.522H376.95C376.705 196.255 376.928 195.318 378.48 195.318C378.416 194.828 378.501 194.423 379.001 194.21L378.979 194.242C378.916 193.295 379.075 192.538 380.287 192.666C380.393 192.528 380.489 192.389 380.595 192.251C380.552 191.399 380.425 190.504 381.732 190.568L381.711 190.59C381.572 189.738 381.53 188.95 382.731 188.918L382.71 188.939C383.145 187.374 383.326 185.606 385.409 185.233C385.313 184.371 385.271 183.561 386.514 183.646H386.493C386.504 180.59 385.993 177.502 386.833 174.467C386.992 173.892 387.162 172.987 386.62 172.742C384.452 171.762 385.6 170.452 386.482 169.717C388.608 167.949 389.872 165.351 392.253 163.871C392.636 162.87 393.464 162.753 394.378 162.795C394.474 161.656 395.26 160.921 395.962 160.144C396.249 159.43 396.78 159.079 397.556 159.079C398.087 158.365 398.619 157.662 399.15 156.949C399.65 156.022 400.351 155.319 401.275 154.819C404.304 152.86 404.782 149.952 404.517 146.63C404.432 145.618 403.677 144.01 405.643 143.637C405.654 143.403 405.665 143.169 405.665 142.934C404.984 137.237 408.024 132.466 409.629 127.344C409.66 127.216 410.107 127.227 410.362 127.163L410.341 127.184C410.479 126.183 409.629 124.788 411.435 124.469L411.467 124.266C411.456 123.297 410.851 122.051 412.519 121.796V121.625C412.509 120.614 411.913 119.336 413.667 119.155C416.047 113.862 418.683 108.676 420.692 103.213C414.326 100.955 408.034 98.5166 401.042 98.8893C396.568 99.1236 392.062 98.868 387.577 98.6976C384.484 98.5805 381.955 97.3771 380.712 94.2675C376.758 93.7138 373.942 91.6904 372.391 87.9313C372.04 87.0687 371.349 86.3339 370.818 85.5352L370.881 85.5245L370.85 85.5778V85.3967C370.669 85.1944 370.488 84.9814 370.308 84.7684C367.47 83.7674 364.505 84.236 362.018 85.3009C358.416 86.845 355.185 86.1422 352.039 84.7791C346.651 82.4469 341.221 80.1573 336.29 76.8987C335.588 76.9413 334.749 77.2608 334.207 76.9945C332.602 76.2065 331.348 75.8444 330.434 77.9317C329.892 79.1776 328.436 79.7207 328.755 81.7547C328.978 83.1817 326.64 84.3318 325.599 85.7695C324.228 87.665 322.4 89.2305 320.753 90.913C320.391 91.2751 319.945 91.8182 319.52 91.8289C317.681 91.8821 316.077 91.8502 316.693 94.5764C316.874 95.3857 315.843 95.833 314.929 95.5028C313.398 94.9384 312.952 95.3644 313.43 96.9511C313.696 97.835 313.048 98.3888 312.261 98.2503C310.699 97.9735 310.21 96.4613 309.36 95.3644C308.521 94.2782 309.466 93.6818 310.093 93.2026C312.697 91.2432 313.962 87.5798 317.745 87.1006C317.894 87.0793 318.16 86.8876 318.149 86.8344C317.437 84.1082 320.455 83.8633 321.252 82.1381C321.422 81.7547 321.752 81.2649 322.102 81.1584C325.205 80.2425 325.524 76.675 327.915 75.0777C328.914 74.4068 329.233 73.2567 329.116 72.032L328.946 71.9042C328.776 71.7764 328.596 71.638 328.425 71.5102C325.779 71.5741 323.941 70.3814 322.878 67.964C322.559 67.5487 322.124 67.4528 321.624 67.5593C321.018 68.1344 320.487 68.1983 320.062 67.3676C319.977 66.963 319.775 66.7393 319.329 66.8458C318.765 66.8991 318.202 66.9523 318 66.2282L318.053 66.2708C317.703 66.2814 317.501 66.1004 317.416 65.7809L317.458 65.8129C316.927 65.8342 316.449 65.7916 316.544 65.0568L316.597 65.1952L316.576 65.0461C315.014 65.5147 315.343 64.3752 315.311 63.5446C315.216 63.3316 315.12 63.1186 315.024 62.9056C312.208 64.7692 306.438 64.8012 303.855 62.9482C302.888 62.2667 302.92 61.1485 302.739 60.1368C300.943 59.7215 299.147 59.3168 297.351 58.9015C294.376 58.5927 294.365 58.5607 294.62 54.0774L294.684 54.0881C292.335 53.1829 293.866 51.2554 293.557 49.8071L293.6 49.8284C292.325 49.9029 292.356 49.0936 292.505 48.1991C292.505 48.1884 292.537 48.2097 292.537 48.2097C291.315 48.3588 291.315 47.5388 291.347 46.6975C290.018 46.6123 288.669 45.984 287.521 47.4323C286.905 48.2097 286.086 47.4856 285.427 47.0276C284.992 46.7295 284.556 46.8573 284.269 47.2513C283.95 47.6772 284.025 48.0819 284.577 48.263C285.736 48.6463 285.236 49.232 284.79 49.839C284.322 50.4886 283.94 51.2554 282.919 50.691C282.484 50.446 282.069 49.7964 281.559 50.2331C280.922 50.7868 281.485 51.3406 281.814 51.8517C282.654 53.1722 281.347 53.0232 280.773 53.3213C279.657 53.907 277.829 53.6408 278.328 55.9197C278.477 56.6119 277.5 56.8356 276.692 56.6758C274.96 56.3351 273.993 56.7823 274.906 58.7524C275.098 59.1677 275.395 59.6044 274.843 59.8386C274.503 59.9771 273.833 59.9664 273.631 59.7322C272.866 58.8696 271.941 58.2093 271.123 57.4319C269.965 56.3351 271.006 55.3553 271.856 54.8655C273.195 54.0881 273.95 52.8847 274.938 51.8091C277.149 49.3918 279.593 47.1874 282.027 45.0043C283.143 44.0033 283.94 42.9596 283.876 41.4049C283.663 40.2015 281.676 40.7127 281.793 39.2111V39.2218C281.155 39.2857 280.496 39.3922 280.241 38.5509C277.808 36.9641 275.438 35.2709 272.93 33.812C269.402 31.7673 265.98 29.6268 263.44 26.3362C262.398 26.4853 261.357 26.6557 260.315 26.7728C257.085 27.1349 255.31 25.25 254.024 22.6303C252.238 22.4386 250.538 21.9914 248.965 21.0862C247.722 21.2779 247.095 20.8093 247.265 19.4888L247.286 19.5314C246.755 19.3184 246.691 18.8924 246.755 18.4026L246.787 18.4239C246 18.4984 245.628 18.0405 245.554 17.3483C245.182 14.0683 242.855 15.2291 241.027 15.3675C240.219 15.4314 239.815 16.0065 239.868 16.8584C239.9 17.3802 240.634 18.0937 239.592 18.36C238.891 18.541 238.444 17.966 238.072 17.4867C237.573 16.8478 237.084 16.0065 236.181 16.4964C235.129 17.0821 236.786 17.6358 236.383 18.2428C235.702 19.2758 237.477 20.756 236.074 21.3205C235.075 21.7145 234.512 20.1384 233.683 19.542C232.047 18.36 232.461 17.327 233.79 16.1875C234.533 15.5486 235.766 15.1652 235.543 13.7808C234.597 13.5998 233.705 13.7489 232.876 14.2494C232.525 15.6657 231.707 15.474 230.782 14.8457C230.176 14.7286 229.645 14.9416 229.145 15.2504C229.029 16.5177 228.157 16.3579 227.296 16.2195C221.855 18.5091 220.952 23.4503 220.622 28.4235C220.24 34.3338 220.197 40.2547 219.485 46.1651C218.252 56.4202 212.769 63.0547 202.779 65.6425C197.497 67.0056 192.109 67.964 186.998 69.9767C180.781 72.426 175.796 76.313 172.704 82.3298C171.567 84.5342 171.886 87.0261 172.141 89.3902C172.385 91.5626 171.662 92.3507 169.505 93.0642C162.895 95.2579 156.614 93.4795 150.249 92.1483C146.625 91.3923 143.086 90.3806 139.653 88.9642C138.187 88.3679 137.06 87.484 136.476 85.9825C132.373 84.5874 128.76 82.6599 127.049 78.2724C126.518 76.9093 125.848 75.5249 124.711 74.4813C121.704 76.707 118.781 74.7688 115.848 74.2683C114.339 74.0127 112.469 72.5538 111.448 73.672C110.545 74.6623 111.82 76.5579 112.288 78.0381C114.371 84.6833 116.167 91.4029 117.495 98.261C119.004 106.014 120.12 113.745 119.727 121.668C119.621 123.755 119.238 124.66 117.006 124C114.658 123.308 112.182 123.095 110.003 121.806C108.685 121.029 107.197 121.498 105.848 121.785C99.8964 123.063 93.9664 124.405 88.047 125.779C83.7536 126.769 81.1712 125.672 78.7694 121.711C74.8586 121.412 72.4993 118.974 70.5758 115.864C69.3855 113.926 68.089 112.052 66.8456 110.156C62.2546 110.241 58.4713 111.7 56.1758 116.066C55.4319 117.483 53.8697 117.856 52.3075 117.973C45.3679 118.494 38.4389 119.038 31.5099 119.57C31.5524 120.933 31.5418 122.137 29.5438 121.348C27.7903 120.656 25.718 121.945 24.0389 120.539C23.1675 120.582 22.296 120.624 21.4246 120.667C21.5096 122.935 20.0643 122.52 18.6934 122.222C17.9814 122.531 17.4819 123.063 17.1099 123.734C17.1206 129.314 17.1631 134.905 17.1418 140.485C17.1312 142.093 17.2375 143.659 17.6519 145.203L17.6307 145.181C18.8528 145.086 19.8199 145.309 19.7349 146.853L19.703 146.821C20.5957 146.747 21.5202 146.64 21.1589 148.057M126.922 260.512L127.017 260.704M126.922 260.512C127.24 260.48 127.687 260.576 127.867 260.395C128.154 260.097 127.889 259.788 127.559 259.607C127.729 259.245 127.889 258.883 128.059 258.521C128.728 258.457 129.6 258.521 128.664 257.499C128.803 256.625 128.941 255.752 129.068 254.879C130.035 254.346 130.035 253.793 129.1 253.228C128.643 251.674 128.728 250.066 128.707 248.468C129.462 246.988 129.908 245.582 127.899 244.709C127.612 243.655 127.634 242.59 127.836 241.525C127.91 241.259 127.984 240.992 128.059 240.726C128.101 240.471 128.144 240.204 128.186 239.949C128.463 239.8 128.962 239.683 128.983 239.512C129.058 238.905 128.526 238.948 128.112 238.916L127.602 238.458C127.538 237.787 127.581 236.946 126.582 237.84C125.838 237.84 125.094 237.851 124.435 237.414C124.509 236.115 124.658 234.826 124.828 233.538C125.062 231.823 124.658 230.098 122.171 230.545V230.577C121.555 228.022 119.578 229.789 118.292 229.363H118.09C117.091 227.532 115.37 227.255 113.531 227.212L113.404 227.244L113.329 227.127C113.096 226.989 112.872 226.861 112.639 226.722V226.765C112.915 225.679 111.916 225.476 111.385 224.965C110.332 223.943 110.471 222.654 110.768 221.483C111.087 220.269 112.054 221.11 112.755 221.185C113.627 221.281 113.786 220.706 113.808 220.024C113.839 219.172 114.041 218.16 114.977 218.235C117.718 218.459 117.176 216.915 116.337 214.923C119.047 216.638 120.481 215.711 121.279 213.422C121.555 212.634 122.352 212.57 122.788 212.133C124.169 210.738 126.018 209.662 126.114 207.298C126.199 205.105 128.962 202.921 131.173 203.06C132.777 203.166 133.914 202.048 133.819 200.76C133.712 199.301 133.893 198.843 135.317 198.875C135.859 198.885 136.433 198.577 136.369 197.948C136.306 197.224 135.593 197.331 135.105 197.352C133.797 197.416 133.394 196.756 133.447 195.563C133.468 195.052 133.489 194.349 132.735 194.423C132.15 194.477 131.959 195.062 131.895 195.627C131.821 196.212 132.012 197.128 131.236 197.182C127.751 197.395 126.879 200.887 124.509 202.527C122.086 204.199 120.439 206.947 118.239 209.002C116.836 210.301 115.827 212.08 114.381 213.081C112.447 214.423 110.864 215.935 109.482 217.756C107.633 220.194 106.432 220.503 103.722 219.257C103.425 219.119 103.031 219.193 102.681 219.161C102.67 218.437 102.298 218.097 101.576 218.118L101.597 218.139C101.522 216.638 100.97 215.594 99.2482 215.69C99.3013 215.647 99.3545 215.605 99.4076 215.562C99.3545 215.605 99.2907 215.637 99.2375 215.679C99.6839 214.455 98.855 214.401 98.026 214.348L97.8666 214.295V214.124C97.8241 213.73 97.6222 213.454 97.229 213.336C96.8252 212.9 96.4213 212.452 96.0175 212.016C96.2513 211.931 96.4957 211.856 96.7295 211.771C97.771 210.525 97.6541 209.258 96.8039 207.969C96.8039 207.533 96.8677 207.139 97.2609 206.862C98.5255 206.446 99.6201 205.914 98.94 204.242C99.0037 203.177 99.0675 202.101 99.1419 201.037C99.5564 200.664 99.5351 200.323 99.0781 200.004L98.8975 198.96C99.8646 197.789 98.94 197.565 98.0685 197.32C97.8029 196.702 97.5478 196.085 97.2821 195.467C97.2715 195.084 97.0802 194.828 96.6976 194.732C96.1769 194.413 95.7518 194.029 95.6774 193.38C95.3161 192.336 95.1673 191.111 94.519 190.302C93.8708 189.503 94.2002 187.65 92.3511 187.981V187.97C92.6486 187.118 92.3192 186.735 91.4584 186.745L91.4796 186.756C91.6922 185.095 90.9164 184.434 89.3117 184.594C89.1416 184.456 88.9822 184.328 88.8122 184.189C88.6847 183.604 88.2596 183.508 87.7495 183.54C87.7495 183.54 87.7601 183.551 87.7707 183.551C87.6644 182.113 86.4742 182.102 85.4965 181.815C85.4433 181.655 85.454 181.506 85.5496 181.367C87.1862 180.068 87.1862 179.525 85.5602 178.801L85.5921 178.822C85.6559 177.8 85.1245 177.598 84.2637 177.853C83.6686 177.832 83.0735 177.8 82.4783 177.779C81.9151 176.416 82.1595 174.222 82.9034 174.051C86.0597 173.317 87.2712 171.315 87.9833 168.471C88.504 166.395 90.4488 164.968 92.5211 164.659C92.6061 164.648 92.7549 164.595 92.7443 164.595C92.2129 161.997 94.5509 163.605 95.3055 162.87C95.9856 162.21 95.4011 160.825 96.7933 160.601C98.2705 160.378 97.7072 159.59 97.0483 159.015C96.3257 158.386 95.4861 157.929 94.9654 157.034C94.5828 156.363 94.2534 156.64 93.6051 157.162C91.0227 159.228 89.5561 162.391 86.5167 164.041C85.1033 164.808 83.8599 166.288 84.2425 168.184C84.6357 170.069 84.1468 169.973 82.9034 169.025C82.659 168.844 82.117 168.674 81.9788 168.791C80.1297 170.431 77.8767 169.281 75.8682 169.738L75.7194 169.824L75.5918 169.717C75.4431 169.419 75.2837 168.855 75.1455 168.855C72.2761 168.972 69.6193 167.96 66.8987 167.31C66.8987 167.31 66.8031 167.236 66.8137 167.236C66.8137 165.17 65.1665 165.276 63.8381 164.936L63.8593 164.968C63.87 164.084 63.4874 163.743 62.6266 164.073L62.6797 163.871L62.6053 164.062C62.956 162.593 62.0314 162.742 61.1175 162.88L61.1387 162.902C61.2875 161.613 60.4586 161.645 59.5765 161.741L59.6084 161.762C59.6509 160.538 58.8433 160.57 57.9931 160.665L58.0143 160.687C57.7912 159.015 56.5903 159.004 55.3256 159.079L55.3681 159.111C52.7857 155.799 48.8111 155.799 45.251 154.798L45.2722 154.819C45.0278 152.817 43.5825 152.678 42.0203 152.71L42.0734 152.742C41.9459 152.157 41.5102 152.071 41.0107 152.114L41.0319 152.135C40.7769 149.878 39.576 149.26 37.5249 150.08L37.3549 150.048C37.0573 148.035 34.9956 149.345 34.1667 148.344C34.1667 147.897 34.1986 147.46 34.1667 147.013C34.0286 145.288 34.0073 143.744 36.5472 144.574C37.1105 144.755 37.8225 144.585 37.6418 143.605C37.3336 141.923 38.237 141.422 39.746 141.401C40.9044 141.39 41.5633 140.922 40.3837 139.91C39.9692 139.548 39.3741 139.324 39.6823 138.728C40.0755 137.972 40.7344 138.334 41.2976 138.611C43.4762 139.665 44.4539 138.664 44.4964 136.566C44.5177 135.32 45.3147 135.746 45.8992 135.544C47.844 134.905 49.8845 133.382 49.7676 131.721C49.5869 128.973 51.9036 128.036 52.5838 126.055C52.7219 125.661 53.2639 125.48 53.6997 125.864C55.4106 127.333 56.8878 125.523 57.0791 124.799C57.5467 123.02 58.8751 122.19 60.0973 121.146C58.9389 120.198 57.2598 120.497 56.7709 118.91C56.654 118.537 55.9208 118.558 55.8782 118.739C55.5913 120.124 54.0503 120.039 53.4977 120.72C49.8526 125.225 44.9747 128.409 41.1169 132.701C40.0117 133.936 39.3847 135.672 38.0244 136.47C35.4951 137.94 33.8585 140.187 31.9031 142.221C30.054 144.148 29.1825 145.618 31.9031 147.279C31.2761 148.014 30.3196 147.588 29.9052 148.312C27.9604 148.845 26.0262 149.377 24.0814 149.91C23.5182 148.653 22.7105 147.759 21.1589 148.057M21.1589 148.057C21.2121 148.003 21.2546 147.95 21.3077 147.886C21.2546 147.94 21.2121 147.993 21.1589 148.057Z" stroke="white" stroke-miterlimit="10"/>
<path d="M370.818 85.5352C371.349 86.3339 372.04 87.0687 372.391 87.9313C373.942 91.6904 376.758 93.7138 380.712 94.2675C381.955 97.3771 384.484 98.5805 387.577 98.6976C392.062 98.868 396.568 99.1236 401.042 98.8893C408.034 98.5166 414.326 100.955 420.691 103.213C418.683 108.676 416.047 113.862 413.667 119.155C411.913 119.336 412.509 120.614 412.519 121.625V121.796C410.851 122.051 411.456 123.297 411.467 124.266L411.435 124.469C409.629 124.788 410.479 126.183 410.341 127.184L410.362 127.163C410.107 127.227 409.66 127.216 409.629 127.344C408.024 132.466 404.984 137.237 405.665 142.934C405.665 143.169 405.654 143.403 405.643 143.637C403.677 144.01 404.432 145.618 404.517 146.63C404.783 149.952 404.304 152.86 401.275 154.819C400.351 155.319 399.65 156.022 399.15 156.949C398.619 157.662 398.087 158.365 397.556 159.079C396.78 159.079 396.249 159.43 395.962 160.144C395.26 160.921 394.474 161.656 394.378 162.795C393.464 162.753 392.635 162.87 392.253 163.871C389.872 165.351 388.608 167.949 386.482 169.717C385.6 170.452 384.452 171.762 386.62 172.742C387.162 172.987 386.992 173.892 386.833 174.467C385.993 177.502 386.504 180.59 386.493 183.646H386.514C385.271 183.561 385.313 184.371 385.409 185.233C383.326 185.606 383.145 187.374 382.71 188.939L382.731 188.918C381.53 188.95 381.572 189.738 381.711 190.59L381.732 190.568C380.425 190.504 380.552 191.399 380.595 192.251C380.489 192.389 380.393 192.528 380.287 192.666C379.075 192.538 378.916 193.295 378.979 194.242L379.001 194.21C378.501 194.423 378.416 194.828 378.48 195.318C376.928 195.318 376.705 196.255 376.95 197.522H376.971C375.409 197.789 374.473 198.523 374.973 200.291C374.93 200.238 374.888 200.174 374.845 200.121C374.888 200.174 374.93 200.238 374.962 200.291C372.932 200.653 372.444 202.048 372.582 203.848C372.422 204.008 372.274 204.167 372.114 204.327C370.913 204.38 370.924 205.158 371.094 206.031L371.115 206.01C369.882 205.861 369.893 206.691 369.936 207.533L369.946 207.522C368.809 207.522 368.83 208.321 368.862 209.13L368.873 209.109C367.693 209.173 367.725 209.95 367.874 210.802L367.906 210.781C366.631 210.706 366.684 211.526 366.811 212.399C366.811 212.399 366.843 212.378 366.843 212.367C365.568 212.303 365.621 213.123 365.77 213.997L365.802 213.954C365.44 214.05 365.281 214.252 365.451 214.625V214.678C364.271 214.678 364.675 215.488 364.728 216.116L364.76 216.105C364.123 216.222 364.08 216.67 364.165 217.191L364.208 217.138C362.21 219.417 361.306 222.079 361.423 225.093C361.402 225.445 361.391 225.785 361.37 226.137C361.232 226.435 360.934 226.754 360.966 227.031C361.072 227.894 361.753 228.724 362.465 228.629C364.59 228.32 367.109 230.205 368.83 227.574C369.351 227.51 369.872 227.447 370.382 227.393C370.563 228.054 370.552 228.703 370.308 229.342C370.191 229.566 370.084 229.789 369.968 230.024C369.351 231.728 370.297 231.845 371.668 231.951C375.494 232.271 379.096 230.95 382.827 230.609C383.602 231.089 383.57 231.887 383.762 232.665C384.123 234.177 384.166 235.934 385.898 236.743L385.877 236.722C385.866 237.233 385.93 237.68 386.599 237.68L386.535 237.819L386.578 237.67C386.44 238.224 386.387 238.713 387.216 238.596L387.258 238.66C386.705 239.949 387.428 240.343 388.523 240.492C388.65 241.333 388.044 242.643 389.777 242.462L389.745 242.611C389.745 242.611 389.766 242.462 389.755 242.462C389.511 243.516 389.585 244.475 388.002 244.943C385.59 245.657 384.219 248.394 384.41 250.917C383.284 250.854 381.944 250.161 381.583 252.131C381.296 253.644 382.933 254.293 383.018 255.646C381.743 255.837 381.434 254.794 380.775 254.315C380.233 253.921 379.851 253.079 379.001 253.612C378.31 254.048 377.694 254.677 378.023 255.582C378.565 257.073 377.587 257.03 376.673 256.987C375.685 256.945 375.015 257.456 374.378 258.106C373.081 259.437 371.753 260.747 370.435 262.057C367.991 264.516 367.97 264.527 370.499 266.881C371.03 267.381 371.445 268.371 372.433 267.85C373.315 267.381 372.709 266.636 372.635 265.965C372.465 264.463 372.614 263.271 374.559 264.538C375.621 265.23 376.216 264.921 376.27 263.643C376.301 262.727 376.27 261.801 377.577 261.79C379.968 261.79 379.798 260.651 378.746 259.117C378.491 258.745 378.331 258.308 378.682 257.903C378.969 257.563 379.341 257.712 379.638 257.893C381.551 259.075 382.954 258.638 383.974 256.647C384.261 256.093 384.878 255.635 385.515 255.869C386.1 256.082 385.76 256.796 385.877 257.275C386.227 258.681 386.227 260.342 388.172 260.661C388.3 260.811 388.427 260.96 388.565 261.109C388.82 263.089 389.756 264.485 391.828 264.889L391.807 264.868C391.775 265.73 391.541 266.785 393.05 266.21L393.135 266.327C392.465 267.743 393.05 268.233 394.453 268.105L394.432 268.095C394.346 268.957 394.315 269.777 395.569 269.671L395.547 269.66C395.399 270.523 395.367 271.321 396.589 271.321L396.568 271.289C396.621 272.173 396.026 273.441 397.747 273.366H397.705C397.535 275.794 397.386 278.211 397.811 280.629L397.79 280.671C396.047 280.852 394.697 281.587 394.038 283.302L394.006 283.27C390.946 282.876 388.47 284.356 386.068 285.879C385.25 286.401 383.624 286.379 383.964 288.094L383.772 288.062L383.964 288.083C382.603 287.689 382.635 288.871 382.444 289.574C382.157 290.596 382.571 291.395 383.709 291.64L383.73 291.672C383.762 294.888 385.632 296.901 388.172 298.477C388.31 298.615 388.448 298.764 388.586 298.903C388.916 301.075 391.923 302.843 394.346 302.268C395.601 303.429 395.494 304.93 395.409 306.432L395.399 306.496C393.464 307.454 394.718 309.169 394.463 310.521C394.293 313.492 393.805 316.431 393.634 319.413C393.358 324.205 395.292 327.315 399.756 328.934C400.478 329.2 401.148 329.626 401.839 329.967C402.593 331.468 404.017 332.171 405.399 332.895C410.192 335.408 415.516 336.207 420.649 337.623C418.63 345.77 413.975 352.202 407.609 357.463C402.296 361.861 397.269 366.621 391.498 370.465C389.097 372.063 387.279 373.926 388.268 377.27C388.693 378.697 387.736 379.613 386.28 379.847C380.552 380.763 375.228 382.797 370.021 385.321C365.557 387.494 361.444 386.769 357.969 383C356.513 381.423 354.569 380.582 352.454 380.902C349.467 381.349 347.331 379.986 345.333 378.133C342.22 375.258 339.063 372.531 334.313 373.82C333.516 374.033 333.038 373.298 332.613 372.755C331.104 370.87 329.052 370.21 326.906 370.923C320.678 373 315.056 371.722 309.307 368.921C305.003 366.823 300.178 366.227 295.311 366.781C289.434 367.452 284.8 370.338 281.208 374.896C280.156 376.237 278.956 376.993 277.383 377.526C266.84 381.104 261.622 389.208 259.082 399.485C258.53 401.732 259.348 403.84 260.209 405.917C261.612 409.261 263.28 412.519 263.769 416.172C263.897 417.088 264.29 418.291 263.44 418.919C262.664 419.484 261.803 418.589 261.027 418.248C257.605 416.726 256.659 416.875 253.875 419.601C253.099 420.357 252.143 420.485 251.197 420.581C244.778 421.23 238.37 422.04 231.909 422.189C231.292 421.124 230.484 421.944 229.783 421.997C225.66 422.37 223.205 419.729 223.811 415.703C224.044 414.18 225.723 413.68 225.978 412.519C226.595 409.729 227.891 410.805 229.114 411.742C230.091 411.114 228.146 409.303 230.07 409.548C231.505 409.729 231.643 409.218 231.951 408.142C232.227 407.195 232.142 404.192 231.537 403.521C231.08 403.02 230.134 402.615 230.049 403.201C229.804 404.958 227.891 404.639 227.349 405.661C226 408.217 224.087 410.081 221.526 411.284C219.793 412.093 220.091 414.468 218.38 415.245L218.529 415.096L218.38 415.235C218.518 414.298 218.157 413.957 217.232 414.255L217.424 414.127L217.222 414.234C217.583 412.839 216.658 412.956 215.787 413.02L215.798 413.041C215.404 410.943 214.172 410.038 212.046 410.368L212.067 410.4C212.089 409.101 211.281 409.175 210.399 409.399V409.431C209.559 407.408 207.933 406.971 205.957 407.216L205.776 407.205C205.425 405.374 204.044 406.215 203.013 406.14L203.055 406.172C202.694 404.948 201.621 404.756 200.611 404.468C198.868 403.968 197.051 403.606 195.34 403.063C192.024 401.998 188.804 400.826 185.244 401.348L185.148 401.444L185.021 401.391C184.989 400.283 184.235 400.177 183.384 400.187C182.067 400.219 180.759 400.241 179.442 400.262L179.314 400.347L179.187 400.251C179.048 399.964 178.942 399.442 178.772 399.41C178.145 399.325 178.219 399.889 178.156 400.305C176.87 401.167 176.955 402.53 176.753 403.84C176.307 406.598 175.116 407.429 172.64 407.056C160.259 405.193 147.964 402.828 135.849 399.687C132.416 398.792 129.228 396.918 125.933 395.48C121.162 393.404 116.39 391.327 111.608 389.261C112.649 385.513 111.129 383.245 107.537 382.158C108.079 378.868 106.804 376.536 103.786 375.162C104.211 374.044 105.199 373.362 105.89 372.457C107.644 370.167 109.897 368.25 110.736 365.279C112.298 359.752 113.106 354.066 114.35 348.475C116.921 336.91 119.111 325.249 120.343 313.513C121.321 304.195 123.84 295.303 125.763 286.241C127.187 279.511 127.209 272.876 123.776 266.636C123.191 265.56 122.851 264.538 123.361 263.366C124.53 263.409 125.508 263.196 125.466 261.694V261.716C126.316 261.769 127.198 261.854 126.922 260.512C127.24 260.48 127.687 260.576 127.867 260.395C128.154 260.097 127.889 259.788 127.559 259.607C127.729 259.245 127.889 258.883 128.059 258.521C128.728 258.457 129.6 258.521 128.664 257.499C128.803 256.625 128.941 255.752 129.068 254.879C130.035 254.346 130.035 253.793 129.1 253.228C128.643 251.674 128.728 250.066 128.707 248.468C129.462 246.988 129.908 245.582 127.899 244.709C127.612 243.655 127.634 242.59 127.836 241.525C127.91 241.259 127.984 240.992 128.059 240.726C128.101 240.471 128.144 240.204 128.186 239.949C128.463 239.8 128.962 239.683 128.983 239.512C129.058 238.905 128.526 238.948 128.112 238.916L127.602 238.458C127.538 237.787 127.581 236.946 126.582 237.84C125.838 237.84 125.094 237.851 124.435 237.414C124.509 236.115 124.658 234.826 124.828 233.538C125.062 231.823 124.658 230.098 122.171 230.546V230.577C121.555 228.022 119.578 229.789 118.292 229.363H118.09C117.091 227.532 115.37 227.255 113.531 227.212L113.404 227.244L113.329 227.127C113.096 226.989 112.872 226.861 112.639 226.722V226.765C112.915 225.679 111.916 225.476 111.385 224.965C110.332 223.943 110.471 222.654 110.768 221.483C111.087 220.269 112.054 221.11 112.755 221.185C113.627 221.281 113.786 220.706 113.808 220.024C113.839 219.172 114.041 218.16 114.977 218.235C117.718 218.459 117.176 216.915 116.337 214.923C119.047 216.638 120.481 215.711 121.279 213.422C121.555 212.634 122.352 212.57 122.788 212.133C124.169 210.738 126.018 209.662 126.114 207.298C126.199 205.105 128.962 202.921 131.173 203.06C132.777 203.166 133.914 202.048 133.819 200.76C133.712 199.301 133.893 198.843 135.317 198.875C135.859 198.885 136.433 198.577 136.369 197.948C136.306 197.224 135.593 197.331 135.105 197.352C133.797 197.416 133.394 196.756 133.447 195.563C133.468 195.052 133.489 194.349 132.735 194.423C132.15 194.477 131.959 195.062 131.895 195.627C131.821 196.212 132.012 197.128 131.236 197.182C127.751 197.395 126.879 200.887 124.509 202.527C122.086 204.199 120.439 206.947 118.239 209.002C116.836 210.301 115.827 212.08 114.381 213.081C112.447 214.423 110.864 215.935 109.482 217.756C107.633 220.194 106.432 220.503 103.722 219.257C103.425 219.119 103.031 219.193 102.681 219.161C102.67 218.437 102.298 218.097 101.576 218.118L101.597 218.139C101.522 216.638 100.97 215.594 99.2482 215.69C99.3013 215.647 99.3545 215.605 99.4076 215.562C99.3545 215.605 99.2907 215.637 99.2375 215.679C99.6839 214.455 98.855 214.401 98.026 214.348L97.8666 214.295V214.124C97.8241 213.73 97.6222 213.454 97.229 213.336C96.8252 212.9 96.4213 212.452 96.0175 212.016C96.2513 211.931 96.4957 211.856 96.7295 211.771C97.771 210.525 97.6541 209.258 96.8039 207.969C96.8039 207.533 96.8677 207.139 97.2609 206.862C98.5255 206.446 99.6201 205.914 98.94 204.242C99.0037 203.177 99.0675 202.101 99.1419 201.037C99.5564 200.664 99.5351 200.323 99.0781 200.004L98.8975 198.96C99.8646 197.789 98.94 197.565 98.0686 197.32C97.8029 196.702 97.5478 196.085 97.2821 195.467C97.2715 195.084 97.0802 194.828 96.6976 194.732C96.1769 194.413 95.7518 194.029 95.6774 193.38C95.3161 192.336 95.1673 191.111 94.519 190.302C93.8708 189.503 94.2002 187.65 92.3511 187.981V187.97C92.6486 187.118 92.3192 186.735 91.4584 186.745L91.4796 186.756C91.6922 185.095 90.9164 184.434 89.3117 184.594C89.1416 184.456 88.9822 184.328 88.8122 184.189C88.6847 183.604 88.2596 183.508 87.7495 183.54C87.7495 183.54 87.7601 183.551 87.7707 183.551C87.6644 182.113 86.4742 182.102 85.4965 181.815C85.4433 181.655 85.454 181.506 85.5496 181.367C87.1862 180.068 87.1862 179.525 85.5602 178.801L85.5921 178.822C85.6559 177.8 85.1245 177.598 84.2637 177.853C83.6686 177.832 83.0735 177.8 82.4783 177.779C81.9151 176.416 82.1595 174.222 82.9034 174.051C86.0597 173.317 87.2712 171.315 87.9833 168.471C88.504 166.395 90.4488 164.968 92.5211 164.659C92.6061 164.648 92.7549 164.595 92.7443 164.595C92.2129 161.997 94.5509 163.605 95.3055 162.87C95.9856 162.21 95.4011 160.825 96.7933 160.601C98.2705 160.378 97.7072 159.59 97.0483 159.015C96.3257 158.386 95.4861 157.929 94.9654 157.034C94.5828 156.363 94.2534 156.64 93.6051 157.162C91.0227 159.228 89.5561 162.391 86.5167 164.041C85.1033 164.808 83.8599 166.288 84.2425 168.184C84.6357 170.069 84.1468 169.973 82.9034 169.025C82.659 168.844 82.117 168.674 81.9788 168.791C80.1297 170.431 77.8767 169.281 75.8682 169.738L75.7194 169.824L75.5918 169.717C75.4431 169.419 75.2837 168.855 75.1455 168.855C72.2761 168.972 69.6193 167.96 66.8987 167.31C66.8987 167.31 66.8031 167.236 66.8137 167.236C66.8137 165.17 65.1665 165.276 63.8381 164.936L63.8593 164.968C63.87 164.084 63.4874 163.743 62.6266 164.073L62.6797 163.871L62.6053 164.062C62.956 162.593 62.0314 162.742 61.1175 162.88L61.1387 162.902C61.2875 161.613 60.4586 161.645 59.5765 161.741L59.6084 161.762C59.6509 160.538 58.8433 160.57 57.9931 160.665L58.0143 160.687C57.7912 159.015 56.5903 159.004 55.3256 159.079L55.3681 159.111C52.7857 155.799 48.8111 155.799 45.251 154.798L45.2722 154.819C45.0278 152.817 43.5825 152.678 42.0203 152.71L42.0734 152.742C41.9459 152.157 41.5102 152.071 41.0107 152.114L41.0319 152.135C40.7769 149.878 39.576 149.26 37.5249 150.08L37.3549 150.048C37.0573 148.035 34.9956 149.345 34.1667 148.344C34.1667 147.897 34.1986 147.46 34.1667 147.013C34.0286 145.288 34.0073 143.744 36.5472 144.574C37.1105 144.755 37.8225 144.585 37.6418 143.605C37.3336 141.923 38.237 141.422 39.746 141.401C40.9044 141.39 41.5633 140.922 40.3837 139.91C39.9692 139.548 39.3741 139.324 39.6823 138.728C40.0755 137.972 40.7344 138.334 41.2976 138.611C43.4762 139.665 44.4539 138.664 44.4964 136.566C44.5177 135.32 45.3147 135.746 45.8992 135.544C47.844 134.905 49.8845 133.382 49.7676 131.721C49.5869 128.973 51.9036 128.036 52.5838 126.055C52.7219 125.661 53.2639 125.48 53.6996 125.864C55.4106 127.333 56.8878 125.523 57.0791 124.799C57.5467 123.02 58.8751 122.19 60.0973 121.146C58.9389 120.198 57.2598 120.497 56.7709 118.91C56.654 118.537 55.9208 118.558 55.8782 118.739C55.5913 120.124 54.0504 120.039 53.4977 120.72C49.8526 125.225 44.9747 128.409 41.1169 132.701C40.0117 133.936 39.3847 135.672 38.0244 136.47C35.4951 137.94 33.8585 140.187 31.9031 142.221C30.054 144.148 29.1825 145.618 31.9031 147.279C31.2761 148.014 30.3196 147.588 29.9052 148.312C27.9604 148.845 26.0262 149.377 24.0814 149.91C23.5182 148.653 22.7105 147.759 21.1589 148.057C21.2121 148.003 21.2546 147.95 21.3077 147.886C21.2546 147.94 21.2121 147.993 21.1589 148.057C21.5202 146.64 20.5957 146.747 19.703 146.821L19.7349 146.853C19.8199 145.309 18.8528 145.086 17.6307 145.181L17.6519 145.203C17.2375 143.659 17.1312 142.093 17.1418 140.485C17.1631 134.905 17.1206 129.314 17.1099 123.734C17.4819 123.063 17.9814 122.531 18.6934 122.222C20.0643 122.52 21.5096 122.935 21.4246 120.667C22.296 120.624 23.1675 120.582 24.0389 120.539C25.718 121.945 27.7903 120.656 29.5438 121.348C31.5418 122.137 31.5524 120.933 31.5099 119.57C38.4389 119.038 45.3679 118.494 52.3075 117.973C53.8697 117.856 55.4319 117.483 56.1758 116.066C58.4713 111.7 62.2546 110.241 66.8456 110.156C68.089 112.052 69.3855 113.926 70.5758 115.864C72.4993 118.974 74.8586 121.412 78.7694 121.711C81.1712 125.672 83.7536 126.769 88.047 125.779C93.9664 124.405 99.8964 123.063 105.848 121.785C107.197 121.498 108.685 121.029 110.003 121.806C112.182 123.095 114.658 123.308 117.006 124C119.238 124.66 119.621 123.755 119.727 121.668C120.12 113.745 119.004 106.014 117.495 98.261C116.167 91.4029 114.371 84.6833 112.288 78.0381C111.82 76.5579 110.545 74.6623 111.448 73.672C112.469 72.5538 114.339 74.0127 115.848 74.2683C118.781 74.7688 121.704 76.707 124.711 74.4813C125.848 75.5249 126.518 76.9093 127.049 78.2724C128.76 82.6599 132.373 84.5874 136.476 85.9825C137.06 87.484 138.187 88.3679 139.653 88.9642C143.086 90.3806 146.625 91.3923 150.249 92.1483C156.614 93.4795 162.895 95.2579 169.505 93.0642C171.662 92.3507 172.385 91.5626 172.141 89.3902C171.886 87.0261 171.567 84.5342 172.704 82.3298C175.796 76.313 180.781 72.426 186.998 69.9767C192.109 67.964 197.497 67.0056 202.779 65.6425C212.769 63.0547 218.252 56.4202 219.485 46.1651C220.197 40.2547 220.24 34.3338 220.622 28.4235C220.952 23.4503 221.855 18.5091 227.296 16.2195C228.157 16.3579 229.029 16.5177 229.145 15.2504C229.645 14.9416 230.176 14.7286 230.782 14.8457C231.707 15.474 232.525 15.6657 232.876 14.2494C233.705 13.7489 234.597 13.5998 235.543 13.7808C235.766 15.1652 234.533 15.5486 233.79 16.1875C232.461 17.327 232.047 18.36 233.683 19.542C234.512 20.1384 235.075 21.7145 236.074 21.3205C237.477 20.756 235.702 19.2758 236.383 18.2428C236.786 17.6358 235.129 17.0821 236.181 16.4964C237.084 16.0065 237.573 16.8478 238.072 17.4867C238.444 17.966 238.891 18.541 239.592 18.36C240.633 18.0937 239.9 17.3802 239.868 16.8584C239.815 16.0065 240.219 15.4314 241.027 15.3675C242.855 15.2291 245.182 14.0683 245.554 17.3483C245.628 18.0405 246 18.4984 246.787 18.4239L246.755 18.4026C246.691 18.8924 246.755 19.3184 247.286 19.5314L247.265 19.4888C247.095 20.8093 247.722 21.2779 248.965 21.0862C250.538 21.9914 252.238 22.4386 254.024 22.6303C255.31 25.25 257.085 27.1349 260.315 26.7728C261.357 26.6557 262.398 26.4853 263.44 26.3362C265.98 29.6268 269.402 31.7673 272.93 33.812C275.438 35.2709 277.808 36.9641 280.241 38.5509C280.496 39.3922 281.155 39.2857 281.793 39.2218V39.2111C281.676 40.7127 283.663 40.2015 283.876 41.4049C283.94 42.9597 283.143 44.0033 282.027 45.0043C279.593 47.1874 277.149 49.3918 274.938 51.8091C273.95 52.8847 273.195 54.0881 271.856 54.8655C271.006 55.3553 269.965 56.3351 271.123 57.4319C271.941 58.2093 272.866 58.8696 273.631 59.7322C273.833 59.9664 274.503 59.9771 274.843 59.8386C275.395 59.6044 275.098 59.1677 274.906 58.7524C273.993 56.7823 274.96 56.3351 276.692 56.6758C277.5 56.8356 278.477 56.6119 278.328 55.9197C277.829 53.6408 279.657 53.907 280.773 53.3213C281.347 53.0232 282.654 53.1722 281.814 51.8517C281.485 51.3406 280.922 50.7868 281.559 50.2331C282.069 49.7964 282.484 50.446 282.919 50.691C283.94 51.2554 284.322 50.4886 284.79 49.839C285.236 49.232 285.736 48.6463 284.577 48.263C284.025 48.0819 283.95 47.6772 284.269 47.2513C284.556 46.8573 284.992 46.7295 285.427 47.0276C286.086 47.4856 286.905 48.2097 287.521 47.4323C288.669 45.984 290.018 46.6123 291.347 46.6975C291.315 47.5388 291.315 48.3588 292.537 48.2097C292.537 48.2097 292.505 48.1884 292.505 48.1991C292.356 49.0936 292.325 49.9029 293.6 49.8284L293.557 49.8071C293.866 51.2554 292.335 53.1829 294.684 54.0881L294.62 54.0774C294.365 58.5607 294.376 58.5927 297.351 58.9015C299.147 59.3168 300.943 59.7215 302.739 60.1368C302.92 61.1485 302.888 62.2667 303.855 62.9482C306.438 64.8012 312.208 64.7692 315.024 62.9056C315.12 63.1186 315.216 63.3316 315.311 63.5446C315.343 64.3752 315.014 65.5147 316.576 65.0461L316.597 65.1952L316.544 65.0568C316.449 65.7916 316.927 65.8342 317.458 65.8129L317.416 65.7809C317.501 66.1004 317.703 66.2814 318.053 66.2708L318 66.2282C318.202 66.9523 318.765 66.8991 319.329 66.8458C319.775 66.7393 319.977 66.963 320.062 67.3676C320.487 68.1983 321.018 68.1344 321.624 67.5593C322.124 67.4528 322.559 67.5487 322.878 67.964C323.941 70.3814 325.779 71.5741 328.425 71.5102C328.596 71.638 328.776 71.7764 328.946 71.9042L329.116 72.032C329.233 73.2567 328.914 74.4068 327.915 75.0777C325.524 76.675 325.205 80.2425 322.102 81.1584C321.752 81.2649 321.422 81.7547 321.252 82.1381C320.455 83.8633 317.437 84.1082 318.149 86.8344C318.16 86.8876 317.894 87.0793 317.745 87.1006C313.962 87.5798 312.697 91.2432 310.093 93.2026C309.466 93.6818 308.521 94.2782 309.36 95.3644C310.21 96.4613 310.699 97.9735 312.261 98.2503C313.048 98.3888 313.696 97.835 313.43 96.9511C312.952 95.3644 313.398 94.9384 314.929 95.5028C315.843 95.833 316.874 95.3857 316.693 94.5764C316.077 91.8502 317.681 91.8821 319.52 91.8289C319.945 91.8182 320.391 91.2751 320.753 90.913C322.4 89.2305 324.228 87.665 325.599 85.7695C326.64 84.3318 328.978 83.1817 328.755 81.7547C328.436 79.7207 329.892 79.1776 330.434 77.9317C331.348 75.8444 332.602 76.2065 334.207 76.9945C334.749 77.2608 335.588 76.9413 336.29 76.8987C341.221 80.1573 346.651 82.4469 352.039 84.7791C355.185 86.1422 358.416 86.845 362.018 85.3009C364.505 84.236 367.47 83.7674 370.308 84.7684C370.488 84.9814 370.669 85.1944 370.85 85.3968V85.5778L370.881 85.5245L370.818 85.5352Z" fill="white"/>
<path d="M214.735 428.067C216.563 427.236 216.244 424.713 218.093 423.85C220.835 422.561 222.865 420.57 224.299 417.854C224.873 416.758 226.914 417.109 227.169 415.235C227.254 414.606 228.263 415.043 228.752 415.575C229.4 416.289 229.486 419.484 229.188 420.495C228.858 421.635 228.71 422.178 227.179 421.986C225.15 421.72 227.211 423.648 226.17 424.319C224.873 423.328 223.481 422.178 222.833 425.149C222.567 426.395 220.771 426.928 220.527 428.546C219.868 432.827 222.493 435.639 226.882 435.245C227.626 435.181 228.497 434.307 229.145 435.447C236.021 435.287 242.844 434.425 249.677 433.732C250.698 433.626 251.718 433.487 252.536 432.689C255.501 429.782 256.511 429.632 260.156 431.251C260.985 431.613 261.899 432.572 262.728 431.965C263.631 431.304 263.216 430.027 263.078 429.047C262.547 425.17 260.772 421.688 259.284 418.131C258.36 415.927 257.488 413.68 258.084 411.284C260.783 400.336 266.341 391.711 277.563 387.898C279.232 387.334 280.507 386.524 281.634 385.097C285.459 380.241 290.39 377.174 296.65 376.461C301.836 375.875 306.98 376.514 311.56 378.74C317.681 381.722 323.664 383.074 330.296 380.87C332.581 380.103 334.77 380.806 336.375 382.819C336.832 383.404 337.342 384.182 338.192 383.958C343.251 382.584 346.609 385.491 349.924 388.548C352.061 390.518 354.335 391.966 357.512 391.498C359.755 391.168 361.827 392.051 363.379 393.734C367.066 397.738 371.455 398.515 376.206 396.205C381.753 393.51 387.428 391.349 393.528 390.369C395.08 390.124 396.089 389.144 395.643 387.632C394.591 384.075 396.525 382.084 399.086 380.38C405.229 376.291 410.574 371.222 416.239 366.536C423.008 360.934 427.971 354.087 430.118 345.408C424.656 343.906 418.981 343.054 413.879 340.381C412.413 339.615 410.893 338.859 410.096 337.261C409.363 336.889 408.651 336.431 407.875 336.154C403.114 334.429 401.063 331.117 401.35 326.016C401.531 322.842 402.062 319.711 402.243 316.549C402.519 315.111 401.18 313.29 403.242 312.268L403.263 312.204C403.358 310.606 403.465 309.009 402.126 307.774C399.554 308.381 396.344 306.496 395.994 304.185C395.845 304.036 395.696 303.887 395.547 303.738C392.848 302.055 390.85 299.914 390.818 296.485L390.797 296.453C389.585 296.198 389.15 295.346 389.447 294.26C389.649 293.514 389.617 292.258 391.063 292.673L390.85 292.652L391.063 292.694C390.701 290.873 392.434 290.895 393.305 290.341C395.856 288.722 398.502 287.146 401.754 287.561C401.754 287.572 401.796 287.604 401.796 287.604C402.498 285.772 403.943 284.995 405.792 284.803L405.813 284.761C405.367 282.194 405.516 279.606 405.707 277.029H405.75C403.911 277.114 404.538 275.773 404.485 274.825C404.496 274.825 404.517 274.857 404.517 274.857C403.22 274.857 403.252 274.016 403.412 273.089L403.433 273.1C402.104 273.217 402.147 272.344 402.232 271.428L402.253 271.449C400.765 271.577 400.138 271.066 400.85 269.554L400.765 269.426C399.161 270.022 399.405 268.915 399.448 267.988L399.469 268.009C397.258 267.583 396.27 266.093 395.994 263.984C395.856 263.824 395.717 263.665 395.579 263.505C393.507 263.164 393.507 261.396 393.135 259.895C393.007 259.384 393.379 258.617 392.752 258.393C392.072 258.148 391.413 258.638 391.116 259.224C390.032 261.354 388.533 261.812 386.504 260.555C386.185 260.353 385.792 260.204 385.483 260.566C385.122 260.992 385.281 261.46 385.558 261.854C386.674 263.483 386.865 264.687 384.314 264.697C382.922 264.708 382.954 265.699 382.922 266.668C382.88 268.031 382.242 268.35 381.105 267.615C379.043 266.263 378.884 267.541 379.064 269.138C379.139 269.841 379.787 270.64 378.852 271.14C377.81 271.694 377.364 270.64 376.801 270.107C374.102 267.605 374.123 267.583 376.726 264.974C378.129 263.579 379.543 262.184 380.924 260.768C381.604 260.076 382.306 259.533 383.369 259.575C384.346 259.618 385.388 259.66 384.803 258.074C384.452 257.105 385.101 256.444 385.845 255.976C386.748 255.411 387.162 256.306 387.736 256.721C388.448 257.222 388.778 258.34 390.127 258.138C390.032 256.689 388.3 255.997 388.597 254.389C388.99 252.291 390.414 253.026 391.615 253.09C391.413 250.406 392.88 247.488 395.441 246.732C397.12 246.232 397.035 245.22 397.301 244.091L397.28 244.24L397.311 244.081C395.473 244.272 396.121 242.877 395.983 241.983V241.993C394.825 241.834 394.049 241.418 394.644 240.045C394.644 240.034 394.602 239.97 394.602 239.97C393.73 240.087 393.783 239.565 393.932 238.98L393.89 239.139L393.964 238.99C393.263 238.99 393.177 238.511 393.199 237.968L393.22 237.989C391.382 237.127 391.328 235.252 390.946 233.644C390.754 232.814 390.786 231.972 389.957 231.461C385.983 231.823 382.146 233.229 378.076 232.888C376.61 232.771 375.6 232.654 376.259 230.833C376.376 230.588 376.503 230.354 376.62 230.109C376.886 229.427 376.897 228.735 376.705 228.032C376.153 228.096 375.6 228.16 375.047 228.224C373.209 231.014 370.531 229.023 368.267 229.342C367.513 229.449 366.79 228.565 366.673 227.649C366.631 227.351 366.949 227.01 367.098 226.69C367.119 226.318 367.13 225.956 367.151 225.583C367.034 222.367 367.991 219.534 370.116 217.106L370.074 217.159C369.989 216.606 370.031 216.137 370.711 216.009L370.68 216.031C370.616 215.36 370.191 214.497 371.445 214.497V214.433C371.264 214.029 371.434 213.816 371.817 213.72L371.785 213.762C371.625 212.825 371.572 211.963 372.933 212.026L372.901 212.058C372.773 211.121 372.709 210.248 374.07 210.333L374.038 210.355C373.878 209.46 373.846 208.629 375.1 208.555L375.09 208.576C375.058 207.714 375.037 206.862 376.248 206.862L376.238 206.872C376.195 205.967 376.174 205.094 377.492 205.243L377.46 205.264C377.279 204.327 377.268 203.507 378.544 203.443C378.714 203.273 378.873 203.102 379.043 202.932C378.905 201.005 379.426 199.524 381.583 199.141C381.541 199.088 381.498 199.024 381.456 198.96C381.498 199.024 381.551 199.077 381.594 199.141C381.062 197.267 382.051 196.489 383.719 196.202H383.698C383.432 194.86 383.677 193.859 385.324 193.859C385.25 193.348 385.345 192.911 385.877 192.688L385.855 192.719C385.781 191.718 385.962 190.92 387.247 191.048C387.364 190.898 387.471 190.749 387.577 190.6C387.524 189.695 387.396 188.726 388.788 188.801L388.767 188.822C388.629 187.917 388.587 187.075 389.862 187.043L389.841 187.065C390.297 185.393 390.489 183.508 392.71 183.114C392.593 182.209 392.561 181.346 393.879 181.431H393.858C393.868 178.173 393.326 174.893 394.219 171.655C394.4 171.027 394.58 170.079 393.996 169.813C391.69 168.769 392.912 167.374 393.847 166.597C396.111 164.712 397.45 161.943 399.99 160.367C400.404 159.313 401.286 159.185 402.253 159.228C402.359 158.014 403.199 157.236 403.943 156.406C404.251 155.639 404.825 155.266 405.643 155.266C406.207 154.51 406.78 153.754 407.344 152.998C407.875 152.008 408.63 151.262 409.607 150.73C412.838 148.642 413.348 145.543 413.061 142.008C412.976 140.932 412.168 139.218 414.262 138.824C414.273 138.579 414.283 138.323 414.283 138.078C413.561 132.008 416.791 126.929 418.502 121.476C418.545 121.348 419.012 121.348 419.289 121.285L419.267 121.317C419.416 120.252 418.513 118.761 420.436 118.42L420.468 118.196C420.468 117.163 419.809 115.843 421.595 115.566L421.605 115.385C421.595 114.309 420.957 112.946 422.828 112.755C425.368 107.121 428.173 101.594 430.309 95.7797C423.529 93.373 416.834 90.7852 409.384 91.1793C404.623 91.4348 399.83 91.158 395.048 90.9769C391.753 90.8491 389.065 89.5606 387.736 86.2593C383.528 85.663 380.531 83.5118 378.873 79.5077C378.491 78.5812 377.768 77.8039 377.194 76.9519L377.141 76.9413L377.098 76.9945V76.8028C376.907 76.5898 376.705 76.3556 376.514 76.1319C373.496 75.0777 370.339 75.5782 367.693 76.707C363.857 78.347 360.414 77.6015 357.066 76.1532C351.338 73.672 345.546 71.2333 340.296 67.7616C339.552 67.8149 338.67 68.1557 338.086 67.8681C336.375 67.0268 335.046 66.6435 334.069 68.8692C333.484 70.1897 331.932 70.7647 332.273 72.9372C332.506 74.4493 330.02 75.674 328.914 77.2075C327.458 79.2308 325.514 80.9028 323.76 82.6918C323.378 83.0859 322.889 83.6609 322.442 83.6716C320.487 83.7248 318.776 83.6929 319.435 86.5894C319.626 87.4627 318.531 87.9312 317.554 87.5798C315.907 86.9835 315.439 87.4307 315.949 89.124C316.236 90.0611 315.545 90.6574 314.706 90.5084C313.048 90.2102 312.516 88.6021 311.613 87.4307C310.72 86.27 311.719 85.631 312.389 85.1305C315.163 83.0433 316.512 79.1456 320.54 78.6345C320.699 78.6132 320.986 78.4002 320.976 78.347C320.221 75.4504 323.441 75.1841 324.281 73.3525C324.462 72.9478 324.812 72.4154 325.184 72.3089C328.489 71.3291 328.819 67.538 331.369 65.8341C332.432 65.1206 332.772 63.896 332.645 62.5968L332.464 62.4583C332.283 62.3199 332.103 62.1815 331.911 62.043C329.095 62.1069 327.129 60.8503 326.002 58.2732C325.652 57.8259 325.195 57.7301 324.663 57.8472C324.026 58.4542 323.452 58.5181 323.006 57.6342C322.91 57.2083 322.687 56.9633 322.219 57.0805C321.624 57.1444 321.029 57.1976 320.806 56.4309L320.869 56.4735C320.498 56.4841 320.285 56.2924 320.189 55.9517L320.232 55.9836C319.669 56.0049 319.159 55.9623 319.265 55.1743L319.318 55.3234L319.297 55.1636C317.628 55.6535 317.979 54.4395 317.947 53.5556C317.851 53.332 317.745 53.0977 317.649 52.8741C314.642 54.8548 308.499 54.8867 305.747 52.9166C304.727 52.1818 304.769 50.9891 304.567 49.9136C302.654 49.477 300.741 49.0403 298.829 48.6037C295.662 48.2842 295.64 48.2416 295.917 43.4708L295.98 43.4814C293.494 42.5124 295.12 40.4571 294.79 38.9236L294.843 38.9449C293.483 39.0194 293.525 38.1568 293.685 37.2091L293.717 37.2304C292.42 37.3901 292.42 36.5169 292.452 35.6223C291.039 35.5265 289.604 34.8556 288.382 36.3997C287.723 37.2197 286.852 36.4423 286.15 35.9631C285.693 35.6543 285.226 35.7927 284.917 36.208C284.577 36.666 284.652 37.0813 285.247 37.2836C286.48 37.6883 285.938 38.3059 285.47 38.9555C284.96 39.6371 284.556 40.4677 283.472 39.8607C283.015 39.6051 282.569 38.9023 282.027 39.3709C281.347 39.9459 281.942 40.5423 282.292 41.0854C283.185 42.5017 281.793 42.3313 281.177 42.6508C279.997 43.2685 278.052 42.9916 278.584 45.4196C278.743 46.1544 277.701 46.3887 276.841 46.2183C274.992 45.8562 273.961 46.3354 274.938 48.4333C275.151 48.8806 275.459 49.3492 274.875 49.5941C274.503 49.7432 273.801 49.7219 273.578 49.477C272.77 48.5611 271.782 47.8583 270.911 47.0276C269.678 45.8669 270.783 44.8232 271.686 44.3014C273.1 43.4708 273.908 42.1929 274.96 41.0428C277.308 38.4763 279.912 36.1335 282.505 33.8013C283.695 32.7364 284.545 31.6182 284.482 29.9676C284.259 28.7003 282.133 29.2435 282.261 27.6354V27.6461C281.58 27.71 280.879 27.8271 280.613 26.9326C278.031 25.25 275.502 23.4503 272.834 21.8955C269.083 19.7231 265.438 17.4441 262.738 13.9405C261.633 14.1003 260.528 14.2813 259.412 14.4091C255.979 14.7925 254.088 12.7904 252.717 10.0003C250.814 9.78734 248.997 9.30813 247.329 8.3497C246 8.55204 245.341 8.05152 245.522 6.64583L245.554 6.68842C244.991 6.46479 244.927 6.00687 244.991 5.48506L245.023 5.51701C244.183 5.6022 243.79 5.11234 243.705 4.37754C243.322 0.873954 240.835 2.10926 238.891 2.25835C238.03 2.32225 237.605 2.9399 237.658 3.84508C237.69 4.39884 238.466 5.15494 237.36 5.44247C236.616 5.63415 236.149 5.02715 235.745 4.51598C235.214 3.84508 234.682 2.9399 233.726 3.46171C232.599 4.07937 234.363 4.67572 233.938 5.32532C233.205 6.42219 235.107 8.00893 233.609 8.60528C232.546 9.03125 231.94 7.34867 231.058 6.70972C229.315 5.46376 229.762 4.35625 231.175 3.14224C231.972 2.46069 233.279 2.04537 233.046 0.575776C232.036 0.39474 231.09 0.543829 230.208 1.07629C229.826 2.57783 228.965 2.37549 227.976 1.70459C227.328 1.58745 226.765 1.82173 226.234 2.14121C226.095 3.49366 225.171 3.32327 224.257 3.17418C218.454 5.6235 217.498 10.8842 217.147 16.1769C216.733 22.4706 216.69 28.7749 215.936 35.0686C214.639 45.9947 208.794 53.0551 198.156 55.8132C192.534 57.2722 186.796 58.2945 181.355 60.435C174.734 63.0334 169.431 67.1759 166.136 73.5868C164.935 75.9402 165.265 78.5919 165.541 81.1051C165.796 83.416 165.031 84.2573 162.736 85.0134C155.69 87.3455 149.005 85.45 142.225 84.0336C138.367 83.2243 134.595 82.1594 130.939 80.6472C129.377 79.9976 128.176 79.0605 127.549 77.4631C123.181 75.9828 119.334 73.9275 117.516 69.2525C116.953 67.8042 116.231 66.324 115.03 65.2165C111.831 67.5913 108.706 65.5253 105.593 64.9928C103.977 64.716 102.001 63.1612 100.906 64.3539C99.9389 65.4082 101.31 67.4315 101.799 69.0076C104.02 76.0893 105.933 83.2349 107.346 90.5403C108.94 98.7828 110.131 107.015 109.716 115.459C109.61 117.685 109.206 118.633 106.825 117.941C104.317 117.206 101.692 116.972 99.3651 115.609C97.9623 114.778 96.3788 115.278 94.9441 115.587C88.6209 116.94 82.2977 118.377 75.9957 119.836C71.4366 120.891 68.6735 119.719 66.1229 115.502C61.957 115.193 59.4384 112.595 57.3979 109.283C56.1227 107.217 54.7517 105.226 53.4233 103.202C48.5242 103.298 44.4964 104.853 42.0521 109.496C41.2657 111.008 39.5972 111.402 37.9288 111.53C30.5428 112.084 23.1675 112.659 15.7815 113.234C15.824 114.693 15.8134 115.971 13.6879 115.129C11.8175 114.384 9.60706 115.768 7.82168 114.267C6.8971 114.32 5.9619 114.363 5.03733 114.405C5.13297 116.833 3.59202 116.375 2.13608 116.066C1.38154 116.407 0.85018 116.972 0.45697 117.685C0.478225 123.627 0.531361 129.58 0.499479 135.523C0.488852 137.237 0.605752 138.898 1.04147 140.549L1.02022 140.528C2.31674 140.432 3.34759 140.677 3.26257 142.317L3.23069 142.285C4.18715 142.2 5.16486 142.082 4.78227 143.595M214.735 428.067L214.894 427.918M214.735 428.067C214.884 427.066 214.49 426.704 213.513 427.023L213.715 426.885L213.502 427.002C213.885 425.511 212.896 425.639 211.972 425.703L211.982 425.724C211.568 423.488 210.25 422.519 207.997 422.881L208.018 422.913C208.04 421.528 207.179 421.614 206.233 421.837V421.869C205.34 419.718 203.608 419.249 201.504 419.505L201.313 419.484C200.941 417.524 199.463 418.429 198.369 418.344L198.411 418.376C198.029 417.077 196.881 416.875 195.808 416.566C193.948 416.033 192.014 415.65 190.196 415.075C186.668 413.946 183.236 412.69 179.452 413.254L179.346 413.36L179.208 413.297C179.176 412.115 178.368 411.997 177.465 412.019C176.062 412.051 174.67 412.072 173.267 412.104L173.129 412.189L173.001 412.093C172.853 411.784 172.736 411.231 172.555 411.199C171.886 411.113 171.971 411.71 171.896 412.146C170.536 413.062 170.621 414.521 170.398 415.916C169.93 418.845 168.655 419.739 166.019 419.345C152.831 417.354 139.749 414.851 126.847 411.497C123.191 410.549 119.801 408.547 116.284 407.024C111.204 404.82 106.113 402.605 101.034 400.4C102.139 396.418 100.523 394 96.7082 392.839C97.2821 389.336 95.9325 386.855 92.723 385.385C93.18 384.192 94.2321 383.468 94.9654 382.51C96.8358 380.071 99.2375 378.026 100.13 374.864C101.788 368.975 102.649 362.926 103.977 356.973C106.719 344.662 109.057 332.245 110.364 319.743C111.406 309.818 114.094 300.362 116.135 290.703C117.655 283.536 117.676 276.476 114.02 269.82C113.393 268.68 113.042 267.583 113.574 266.337C114.828 266.38 115.859 266.156 115.816 264.559V264.58C116.719 264.634 117.665 264.729 117.368 263.302L117.463 263.505L117.357 263.302C117.697 263.27 118.175 263.366 118.356 263.175C118.664 262.866 118.377 262.525 118.027 262.333C118.207 261.95 118.377 261.567 118.558 261.183C119.27 261.109 120.195 261.183 119.206 260.086C119.355 259.16 119.493 258.223 119.642 257.296C120.673 256.732 120.673 256.146 119.674 255.539C119.185 253.878 119.281 252.163 119.249 250.47C120.046 248.905 120.535 247.403 118.388 246.466C118.09 245.337 118.101 244.208 118.314 243.069C118.388 242.781 118.473 242.505 118.547 242.217C118.59 241.94 118.643 241.663 118.685 241.386C118.983 241.227 119.504 241.109 119.536 240.918C119.621 240.268 119.057 240.321 118.611 240.289L118.069 239.81C117.995 239.097 118.048 238.192 116.974 239.161C116.177 239.161 115.391 239.171 114.69 238.703C114.764 237.318 114.923 235.955 115.115 234.582C115.359 232.75 114.934 230.918 112.277 231.397V231.44C111.618 228.724 109.514 230.609 108.154 230.141H107.941C106.879 228.192 105.051 227.894 103.085 227.851L102.946 227.883L102.872 227.766C102.628 227.628 102.383 227.478 102.139 227.34V227.383C102.436 226.233 101.363 226.009 100.81 225.466C99.6945 224.38 99.8327 222.995 100.151 221.76C100.492 220.461 101.522 221.355 102.266 221.44C103.202 221.536 103.372 220.929 103.393 220.205C103.425 219.3 103.648 218.224 104.636 218.299C107.559 218.533 106.985 216.893 106.082 214.774C108.972 216.595 110.492 215.615 111.353 213.177C111.65 212.335 112.5 212.271 112.968 211.803C114.435 210.323 116.411 209.173 116.517 206.649C116.613 204.306 119.546 201.995 121.906 202.144C123.617 202.251 124.817 201.058 124.722 199.695C124.605 198.151 124.807 197.65 126.316 197.693C126.89 197.703 127.506 197.373 127.442 196.702C127.368 195.925 126.613 196.042 126.103 196.074C124.711 196.149 124.286 195.435 124.339 194.168C124.36 193.625 124.382 192.879 123.585 192.954C122.968 193.007 122.766 193.635 122.692 194.232C122.618 194.86 122.809 195.829 121.991 195.882C118.282 196.106 117.357 199.833 114.828 201.58C112.245 203.358 110.492 206.287 108.143 208.47C106.655 209.854 105.571 211.75 104.03 212.815C101.979 214.242 100.29 215.86 98.8125 217.788C96.8358 220.375 95.5711 220.706 92.6699 219.385C92.3511 219.236 91.926 219.311 91.554 219.289C91.5328 218.523 91.1502 218.15 90.385 218.182L90.4063 218.203C90.3319 216.606 89.7474 215.498 87.8982 215.594C87.9514 215.551 88.0151 215.509 88.0683 215.456C88.0045 215.498 87.9514 215.541 87.8876 215.573C88.3658 214.273 87.4838 214.21 86.6017 214.156L86.4317 214.103V213.922C86.3785 213.507 86.1766 213.209 85.7515 213.091C85.3264 212.623 84.8907 212.154 84.4656 211.686C84.7207 211.601 84.9757 211.515 85.2308 211.43C86.3466 210.099 86.2191 208.757 85.3158 207.383C85.3158 206.926 85.3902 206.5 85.794 206.212C87.1437 205.765 88.3021 205.2 87.5794 203.422C87.6538 202.282 87.7176 201.143 87.792 200.004C88.2383 199.61 88.2171 199.237 87.7282 198.907L87.5369 197.788C88.5571 196.543 87.5794 196.308 86.6548 196.042C86.3785 195.382 86.0916 194.722 85.8153 194.072C85.794 193.657 85.6027 193.39 85.1883 193.295C84.6357 192.954 84.1893 192.549 84.1043 191.857C83.7111 190.749 83.5623 189.44 82.8715 188.588C82.1808 187.736 82.5315 185.755 80.5654 186.117C80.5654 186.117 80.5654 186.106 80.576 186.096C80.8949 185.19 80.5442 184.786 79.6196 184.786L79.6408 184.807C79.864 183.039 79.0351 182.336 77.3347 182.507C77.154 182.358 76.984 182.219 76.8033 182.07C76.6758 181.442 76.2189 181.346 75.6769 181.378L75.6981 181.389C75.5812 179.855 74.3166 179.845 73.2751 179.546C73.2113 179.376 73.2326 179.216 73.3282 179.067C75.0605 177.683 75.0711 177.108 73.3389 176.33L73.3707 176.352C73.4345 175.265 72.8713 175.052 71.9573 175.319C71.3197 175.287 70.6927 175.265 70.055 175.233C69.4599 173.785 69.7256 171.453 70.5014 171.272C73.8596 170.495 75.1455 168.365 75.9107 165.34C76.4633 163.136 78.5356 161.613 80.7461 161.272C80.8311 161.262 80.9905 161.208 80.9905 161.198C80.4273 158.429 82.914 160.144 83.7217 159.355C84.4444 158.653 83.8174 157.172 85.3052 156.938C86.878 156.693 86.2829 155.863 85.5709 155.256C84.7951 154.585 83.9024 154.105 83.3498 153.147C82.9353 152.434 82.5952 152.732 81.9044 153.275C79.1626 155.479 77.6004 158.844 74.3591 160.591C72.85 161.411 71.5216 162.987 71.9361 165C72.3505 167.012 71.8298 166.906 70.512 165.905C70.2569 165.713 69.6724 165.532 69.5237 165.66C67.5576 167.406 65.1559 166.182 63.0198 166.661L62.8604 166.746L62.7222 166.629C62.5628 166.309 62.3928 165.702 62.244 165.713C59.1833 165.841 56.3565 164.765 53.4552 164.062L53.3596 163.988C53.3596 161.794 51.6061 161.901 50.1926 161.539L50.2139 161.571C50.2352 160.623 49.8207 160.271 48.9067 160.623L48.9599 160.41C48.9599 160.41 48.8749 160.623 48.8855 160.623C49.2574 159.057 48.2797 159.217 47.302 159.366C47.302 159.366 47.3233 159.398 47.3233 159.387C47.4827 158.014 46.6006 158.056 45.6654 158.152L45.6973 158.184C45.7398 156.874 44.879 156.917 43.9757 157.023L44.0076 157.045C43.7738 155.266 42.4879 155.256 41.1488 155.33L41.1913 155.362C38.4495 151.837 34.2092 151.837 30.4153 150.772L30.4365 150.794C30.1815 148.653 28.6405 148.515 26.9827 148.547L27.0358 148.589C26.8976 147.961 26.4407 147.876 25.9093 147.918L25.9306 147.94C25.6649 145.533 24.379 144.873 22.1898 145.746L22.0091 145.714C21.6903 143.573 19.5011 144.958 18.6084 143.893C18.6084 143.424 18.6402 142.945 18.6084 142.476C18.4702 140.634 18.4383 138.994 21.1377 139.878C21.7434 140.07 22.4873 139.889 22.296 138.845C21.9666 137.056 22.923 136.524 24.5384 136.502C25.7818 136.492 26.4726 135.991 25.2185 134.916C24.7722 134.532 24.1452 134.287 24.4746 133.659C24.8891 132.86 25.5905 133.244 26.1856 133.531C28.5024 134.66 29.5545 133.584 29.5863 131.348C29.6076 130.028 30.4578 130.475 31.0848 130.262C33.1571 129.58 35.3251 127.962 35.2082 126.194C35.0063 123.276 37.4824 122.264 38.2157 120.156C38.3645 119.73 38.9384 119.549 39.406 119.953C41.2232 121.519 42.8067 119.581 43.0086 118.814C43.5081 116.918 44.9215 116.035 46.2287 114.927C44.9959 113.915 43.2105 114.235 42.6792 112.552C42.5516 112.148 41.7758 112.179 41.7333 112.371C41.4251 113.841 39.7885 113.756 39.204 114.48C35.3251 119.272 30.1283 122.669 26.0262 127.237C24.8466 128.558 24.1877 130.411 22.7317 131.252C20.043 132.818 18.2895 135.214 16.2172 137.376C14.2406 139.431 13.3266 140.996 16.2172 142.764C15.5477 143.552 14.5275 143.094 14.0918 143.872C12.0195 144.436 9.95776 145.011 7.88544 145.575C7.27968 144.234 6.4295 143.286 4.78227 143.595M4.78227 143.595C4.83541 143.531 4.88855 143.478 4.94168 143.414" stroke="white" stroke-miterlimit="10"/>
<ellipse cx="371.636" cy="350.431" rx="6.50566" ry="6.51963" fill="#0D1D6C"/>
</g>
<defs>
<clipPath id="clip0_1_1286">
<rect width="431" height="436" fill="white" transform="translate(0 0.000732422)"/>
</clipPath>
</defs>
</svg>
